<svg width="548.0" height="340" xmlns="http://www.w3.org/2000/svg">
<path stroke-width="0.5" stroke="gray" d="M 86 317 79 304"/>
<path stroke-width="0.5" stroke="gray" d="M 79 304 59 313"/>
<path stroke-width="0.5" stroke="gray" d="M 79 304 90 309"/>
<path stroke-width="0.5" stroke="gray" d="M 79 304 74 320"/>
<path stroke-width="0.5" stroke="gray" d="M 79 304 79 304"/>
<path stroke-width="0.5" stroke="gray" d="M 74 320 86 317"/>
<path stroke-width="0.5" stroke="gray" d="M 74 320 59 304"/>
<path stroke-width="0.5" stroke="gray" d="M 74 320 59 313"/>
<path stroke-width="0.5" stroke="gray" d="M 74 320 90 309"/>
<path stroke-width="0.5" stroke="gray" d="M 74 320 74 320"/>
<path stroke-width="0.5" stroke="gray" d="M 74 320 79 304"/>
<path stroke-width="0.5" stroke="gray" d="M 90 309 86 317"/>
<path stroke-width="0.5" stroke="gray" d="M 90 309 59 304"/>
<path stroke-width="0.5" stroke="gray" d="M 90 309 59 313"/>
<path stroke-width="0.5" stroke="gray" d="M 79 304 59 304"/>
<path stroke-width="0.5" stroke="gray" d="M 90 309 90 309"/>
<path stroke-width="0.5" stroke="gray" d="M 90 309 79 304"/>
<path stroke-width="0.5" stroke="gray" d="M 243 171 251 162"/>
<path stroke-width="0.5" stroke="gray" d="M 243 171 227 168"/>
<path stroke-width="0.5" stroke="gray" d="M 243 171 225 159"/>
<path stroke-width="0.5" stroke="gray" d="M 243 171 240 155"/>
<path stroke-width="0.5" stroke="gray" d="M 243 171 243 171"/>
<path stroke-width="0.5" stroke="gray" d="M 240 155 251 162"/>
<path stroke-width="0.5" stroke="gray" d="M 240 155 227 168"/>
<path stroke-width="0.5" stroke="gray" d="M 240 155 225 159"/>
<path stroke-width="0.5" stroke="gray" d="M 240 155 240 155"/>
<path stroke-width="0.5" stroke="gray" d="M 240 155 243 171"/>
<path stroke-width="0.5" stroke="gray" d="M 225 159 251 162"/>
<path stroke-width="0.5" stroke="gray" d="M 225 159 227 168"/>
<path stroke-width="0.5" stroke="gray" d="M 90 309 74 320"/>
<path stroke-width="0.5" stroke="gray" d="M 79 304 86 317"/>
<path stroke-width="0.5" stroke="gray" d="M 397 114 413 124"/>
<path stroke-width="0.5" stroke="gray" d="M 397 114 420 112"/>
<path stroke-width="0.5" stroke="gray" d="M 350 20 350 20"/>
<path stroke-width="0.5" stroke="gray" d="M 350 20 327 20"/>
<path stroke-width="0.5" stroke="gray" d="M 380 288 381 298"/>
<path stroke-width="0.5" stroke="gray" d="M 380 288 398 300"/>
<path stroke-width="0.5" stroke="gray" d="M 380 288 395 284"/>
<path stroke-width="0.5" stroke="gray" d="M 380 288 406 292"/>
<path stroke-width="0.5" stroke="gray" d="M 380 288 380 288"/>
<path stroke-width="0.5" stroke="gray" d="M 406 292 381 298"/>
<path stroke-width="0.5" stroke="gray" d="M 406 292 398 300"/>
<path stroke-width="0.5" stroke="gray" d="M 406 292 395 284"/>
<path stroke-width="0.5" stroke="gray" d="M 406 292 406 292"/>
<path stroke-width="0.5" stroke="gray" d="M 406 292 380 288"/>
<path stroke-width="0.5" stroke="gray" d="M 395 284 381 298"/>
<path stroke-width="0.5" stroke="gray" d="M 395 284 398 300"/>
<path stroke-width="0.5" stroke="gray" d="M 395 284 395 284"/>
<path stroke-width="0.5" stroke="gray" d="M 395 284 406 292"/>
<path stroke-width="0.5" stroke="gray" d="M 395 284 380 288"/>
<path stroke-width="0.5" stroke="gray" d="M 398 300 381 298"/>
<path stroke-width="0.5" stroke="gray" d="M 398 300 398 300"/>
<path stroke-width="0.5" stroke="gray" d="M 398 300 395 284"/>
<path stroke-width="0.5" stroke="gray" d="M 398 300 406 292"/>
<path stroke-width="0.5" stroke="gray" d="M 398 300 380 288"/>
<path stroke-width="0.5" stroke="gray" d="M 413 124 397 114"/>
<path stroke-width="0.5" stroke="gray" d="M 413 124 420 112"/>
<path stroke-width="0.5" stroke="gray" d="M 413 124 413 124"/>
<path stroke-width="0.5" stroke="gray" d="M 420 112 397 114"/>
<path stroke-width="0.5" stroke="gray" d="M 420 112 420 112"/>
<path stroke-width="0.5" stroke="gray" d="M 420 112 413 124"/>
<path stroke-width="0.5" stroke="gray" d="M 397 114 397 114"/>
<path stroke-width="0.5" stroke="gray" d="M 225 159 225 159"/>
<path stroke-width="0.5" stroke="gray" d="M 225 159 240 155"/>
<path stroke-width="0.5" stroke="gray" d="M 225 159 243 171"/>
<path stroke-width="0.5" stroke="gray" d="M 227 168 251 162"/>
<path stroke-width="0.5" stroke="gray" d="M 59 304 51 281"/>
<path stroke-width="7.0" stroke="gray" d="M 59 304 59 313"/>
<path stroke-width="0.5" stroke="gray" d="M 59 304 32 316"/>
<path stroke-width="0.5" stroke="gray" d="M 59 304 30 305"/>
<path stroke-width="0.5" stroke="gray" d="M 59 304 86 317"/>
<path stroke-width="0.5" stroke="gray" d="M 59 304 90 309"/>
<path stroke-width="0.5" stroke="gray" d="M 59 304 74 320"/>
<path stroke-width="0.5" stroke="gray" d="M 59 304 79 304"/>
<path stroke-width="0.5" stroke="gray" d="M 36 144 30 128"/>
<path stroke-width="0.5" stroke="gray" d="M 36 144 47 134"/>
<path stroke-width="0.5" stroke="gray" d="M 36 144 20 138"/>
<path stroke-width="0.5" stroke="gray" d="M 36 144 36 144"/>
<path stroke-width="0.5" stroke="gray" d="M 20 138 30 128"/>
<path stroke-width="0.5" stroke="gray" d="M 20 138 47 134"/>
<path stroke-width="0.5" stroke="gray" d="M 20 138 20 138"/>
<path stroke-width="0.5" stroke="gray" d="M 20 138 36 144"/>
<path stroke-width="0.5" stroke="gray" d="M 47 134 30 128"/>
<path stroke-width="0.5" stroke="gray" d="M 47 134 47 134"/>
<path stroke-width="0.5" stroke="gray" d="M 47 134 20 138"/>
<path stroke-width="0.5" stroke="gray" d="M 47 134 36 144"/>
<path stroke-width="0.5" stroke="gray" d="M 30 128 30 128"/>
<path stroke-width="0.5" stroke="gray" d="M 30 128 47 134"/>
<path stroke-width="0.5" stroke="gray" d="M 30 128 20 138"/>
<path stroke-width="0.5" stroke="gray" d="M 30 128 36 144"/>
<path stroke-width="7.0" stroke="gray" d="M 86 317 86 317"/>
<path stroke-width="0.5" stroke="gray" d="M 86 317 59 304"/>
<path stroke-width="0.5" stroke="gray" d="M 86 317 59 313"/>
<path stroke-width="0.5" stroke="gray" d="M 86 317 90 309"/>
<path stroke-width="0.5" stroke="gray" d="M 86 317 74 320"/>
<path stroke-width="20.0" stroke="gray" d="M 59 304 59 304"/>
<path stroke-width="0.5" stroke="gray" d="M 327 20 327 20"/>
<path stroke-width="0.5" stroke="gray" d="M 51 281 51 281"/>
<path stroke-width="0.5" stroke="gray" d="M 381 298 380 288"/>
<path stroke-width="0.5" stroke="gray" d="M 227 168 227 168"/>
<path stroke-width="0.5" stroke="gray" d="M 227 168 225 159"/>
<path stroke-width="0.5" stroke="gray" d="M 227 168 240 155"/>
<path stroke-width="0.5" stroke="gray" d="M 227 168 243 171"/>
<path stroke-width="0.5" stroke="gray" d="M 251 162 251 162"/>
<path stroke-width="0.5" stroke="gray" d="M 251 162 227 168"/>
<path stroke-width="0.5" stroke="gray" d="M 251 162 225 159"/>
<path stroke-width="0.5" stroke="gray" d="M 251 162 240 155"/>
<path stroke-width="0.5" stroke="gray" d="M 251 162 243 171"/>
<path stroke-width="0.5" stroke="gray" d="M 30 305 59 304"/>
<path stroke-width="0.5" stroke="gray" d="M 30 305 59 313"/>
<path stroke-width="0.5" stroke="gray" d="M 30 305 32 316"/>
<path stroke-width="0.5" stroke="gray" d="M 30 305 30 305"/>
<path stroke-width="0.5" stroke="gray" d="M 32 316 59 304"/>
<path stroke-width="0.5" stroke="gray" d="M 32 316 59 313"/>
<path stroke-width="0.5" stroke="gray" d="M 32 316 32 316"/>
<path stroke-width="0.5" stroke="gray" d="M 32 316 30 305"/>
<path stroke-width="7.0" stroke="gray" d="M 59 313 59 304"/>
<path stroke-width="13.5" stroke="gray" d="M 59 313 59 313"/>
<path stroke-width="0.5" stroke="gray" d="M 59 313 32 316"/>
<path stroke-width="0.5" stroke="gray" d="M 59 313 30 305"/>
<path stroke-width="0.5" stroke="gray" d="M 59 313 86 317"/>
<path stroke-width="0.5" stroke="gray" d="M 59 313 90 309"/>
<path stroke-width="0.5" stroke="gray" d="M 59 313 74 320"/>
<path stroke-width="0.5" stroke="gray" d="M 59 313 79 304"/>
<path stroke-width="7.0" stroke="gray" d="M 381 298 381 298"/>
<path stroke-width="0.5" stroke="gray" d="M 381 298 398 300"/>
<path stroke-width="0.5" stroke="gray" d="M 381 298 395 284"/>
<path stroke-width="0.5" stroke="gray" d="M 381 298 406 292"/>
<path stroke-width="0.5" stroke="gray" d="M 51 281 59 304"/>
<path stroke-width="0.5" stroke="gray" d="M 327 20 350 20"/>
<circle cx="86" cy="317" r="7.0" style="fill:rgb(234, 211, 199);stroke:black;stroke-width:1.0"/>
<circle cx="30" cy="128" r="7.0" style="fill:rgb(230, 215, 207);stroke:black;stroke-width:1.0"/>
<circle cx="47" cy="134" r="7.0" style="fill:rgb(230, 215, 207);stroke:black;stroke-width:1.0"/>
<circle cx="20" cy="138" r="7.0" style="fill:rgb(230, 215, 207);stroke:black;stroke-width:1.0"/>
<circle cx="36" cy="144" r="7.0" style="fill:rgb(230, 215, 207);stroke:black;stroke-width:1.0"/>
<circle cx="59" cy="304" r="7.0" style="fill:rgb(179, 3, 38);stroke:black;stroke-width:1.0"/>
<circle cx="51" cy="281" r="7.0" style="fill:rgb(58, 76, 192);stroke:black;stroke-width:1.0"/>
<circle cx="381" cy="298" r="7.0" style="fill:rgb(244, 195, 171);stroke:black;stroke-width:1.0"/>
<circle cx="59" cy="313" r="7.0" style="fill:rgb(225, 104, 82);stroke:black;stroke-width:1.0"/>
<circle cx="32" cy="316" r="7.0" style="fill:rgb(145, 179, 254);stroke:black;stroke-width:1.0"/>
<circle cx="30" cy="305" r="7.0" style="fill:rgb(145, 179, 254);stroke:black;stroke-width:1.0"/>
<circle cx="251" cy="162" r="7.0" style="fill:rgb(230, 215, 207);stroke:black;stroke-width:1.0"/>
<circle cx="227" cy="168" r="7.0" style="fill:rgb(230, 215, 207);stroke:black;stroke-width:1.0"/>
<circle cx="225" cy="159" r="7.0" style="fill:rgb(230, 215, 207);stroke:black;stroke-width:1.0"/>
<circle cx="240" cy="155" r="7.0" style="fill:rgb(230, 215, 207);stroke:black;stroke-width:1.0"/>
<circle cx="243" cy="171" r="7.0" style="fill:rgb(230, 215, 207);stroke:black;stroke-width:1.0"/>
<circle cx="90" cy="309" r="7.0" style="fill:rgb(208, 218, 233);stroke:black;stroke-width:1.0"/>
<circle cx="74" cy="320" r="7.0" style="fill:rgb(208, 218, 233);stroke:black;stroke-width:1.0"/>
<circle cx="79" cy="304" r="7.0" style="fill:rgb(208, 218, 233);stroke:black;stroke-width:1.0"/>
<circle cx="397" cy="114" r="7.0" style="fill:rgb(230, 215, 207);stroke:black;stroke-width:1.0"/>
<circle cx="420" cy="112" r="7.0" style="fill:rgb(230, 215, 207);stroke:black;stroke-width:1.0"/>
<circle cx="413" cy="124" r="7.0" style="fill:rgb(230, 215, 207);stroke:black;stroke-width:1.0"/>
<circle cx="398" cy="300" r="7.0" style="fill:rgb(224, 218, 215);stroke:black;stroke-width:1.0"/>
<circle cx="395" cy="284" r="7.0" style="fill:rgb(224, 218, 215);stroke:black;stroke-width:1.0"/>
<circle cx="406" cy="292" r="7.0" style="fill:rgb(224, 218, 215);stroke:black;stroke-width:1.0"/>
<circle cx="380" cy="288" r="7.0" style="fill:rgb(224, 218, 215);stroke:black;stroke-width:1.0"/>
<circle cx="350" cy="20" r="7.0" style="fill:rgb(230, 215, 207);stroke:black;stroke-width:1.0"/>
<circle cx="327" cy="20" r="7.0" style="fill:rgb(230, 215, 207);stroke:black;stroke-width:1.0"/>
<text x="96" y="324" font-size="12">tiger</text><text x="40" y="135" font-size="12">general</text><text x="57" y="141" font-size="12">cornell university</text><text x="30" y="145" font-size="12">pdf</text><text x="46" y="151" font-size="12">mako</text><text x="69" y="311" font-size="12">species</text><text x="61" y="288" font-size="12">angel sharks</text><text x="391" y="305" font-size="12">gps</text><text x="69" y="320" font-size="12">fish</text><text x="42" y="323" font-size="12">benthic</text><text x="40" y="312" font-size="12">bivalves</text><text x="261" y="169" font-size="12">anal fin</text><text x="237" y="175" font-size="12">propel</text><text x="235" y="166" font-size="12">caudal fin</text><text x="250" y="162" font-size="12">fin</text><text x="253" y="178" font-size="12">shark anatomy</text><text x="100" y="316" font-size="12">goblin shark</text><text x="84" y="327" font-size="12">sand</text><text x="89" y="311" font-size="12">great white shark</text><text x="407" y="121" font-size="12">gill</text><text x="430" y="119" font-size="12">predator</text><text x="423" y="131" font-size="12">pacific ocean</text><text x="408" y="307" font-size="12">life expectancy</text><text x="405" y="291" font-size="12">hammerhead sharks</text><text x="416" y="299" font-size="12">whale sharks</text><text x="390" y="295" font-size="12">rhincodon typus</text><text x="360" y="27" font-size="12">predatory</text><text x="337" y="27" font-size="12">people!</text></svg>
