<svg width="566.0" height="340" xmlns="http://www.w3.org/2000/svg">
<path stroke-width="0.5" stroke="gray" d="M 262 116 171 234"/>
<path stroke-width="0.5" stroke="gray" d="M 363 32 338 99"/>
<path stroke-width="0.5" stroke="gray" d="M 363 32 318 99"/>
<path stroke-width="0.5" stroke="gray" d="M 363 32 363 32"/>
<path stroke-width="0.5" stroke="gray" d="M 363 32 311 20"/>
<path stroke-width="0.5" stroke="gray" d="M 363 32 345 45"/>
<path stroke-width="0.5" stroke="gray" d="M 363 32 371 74"/>
<path stroke-width="0.5" stroke="gray" d="M 363 32 336 20"/>
<path stroke-width="0.5" stroke="gray" d="M 363 32 371 55"/>
<path stroke-width="0.5" stroke="gray" d="M 363 32 295 36"/>
<path stroke-width="0.5" stroke="gray" d="M 363 32 321 47"/>
<path stroke-width="0.5" stroke="gray" d="M 118 167 109 123"/>
<path stroke-width="0.5" stroke="gray" d="M 363 32 324 75"/>
<path stroke-width="0.5" stroke="gray" d="M 118 167 103 103"/>
<path stroke-width="0.5" stroke="gray" d="M 118 167 27 115"/>
<path stroke-width="0.5" stroke="gray" d="M 118 167 20 145"/>
<path stroke-width="0.5" stroke="gray" d="M 118 167 33 172"/>
<path stroke-width="2.9375" stroke="gray" d="M 118 167 118 167"/>
<path stroke-width="0.5" stroke="gray" d="M 118 167 262 116"/>
<path stroke-width="0.5" stroke="gray" d="M 118 167 300 145"/>
<path stroke-width="0.5" stroke="gray" d="M 118 167 171 234"/>
<path stroke-width="0.5" stroke="gray" d="M 33 172 109 123"/>
<path stroke-width="0.5" stroke="gray" d="M 33 172 103 103"/>
<path stroke-width="0.5" stroke="gray" d="M 33 172 159 149"/>
<path stroke-width="0.5" stroke="gray" d="M 33 172 27 115"/>
<path stroke-width="0.5" stroke="gray" d="M 118 167 159 149"/>
<path stroke-width="0.5" stroke="gray" d="M 33 172 20 145"/>
<path stroke-width="0.5" stroke="gray" d="M 363 32 298 69"/>
<path stroke-width="0.5" stroke="gray" d="M 363 32 300 145"/>
<path stroke-width="0.5" stroke="gray" d="M 345 45 363 32"/>
<path stroke-width="0.5" stroke="gray" d="M 345 45 311 20"/>
<path stroke-width="0.5" stroke="gray" d="M 345 45 345 45"/>
<path stroke-width="0.5" stroke="gray" d="M 345 45 371 74"/>
<path stroke-width="0.5" stroke="gray" d="M 345 45 336 20"/>
<path stroke-width="0.5" stroke="gray" d="M 345 45 371 55"/>
<path stroke-width="0.5" stroke="gray" d="M 345 45 295 36"/>
<path stroke-width="0.5" stroke="gray" d="M 345 45 321 47"/>
<path stroke-width="0.5" stroke="gray" d="M 311 20 262 116"/>
<path stroke-width="0.5" stroke="gray" d="M 311 20 300 145"/>
<path stroke-width="0.5" stroke="gray" d="M 311 20 256 81"/>
<path stroke-width="0.5" stroke="gray" d="M 363 32 256 81"/>
<path stroke-width="0.5" stroke="gray" d="M 311 20 298 69"/>
<path stroke-width="0.5" stroke="gray" d="M 311 20 338 99"/>
<path stroke-width="0.5" stroke="gray" d="M 311 20 318 99"/>
<path stroke-width="0.5" stroke="gray" d="M 311 20 363 32"/>
<path stroke-width="0.5" stroke="gray" d="M 311 20 311 20"/>
<path stroke-width="0.5" stroke="gray" d="M 311 20 345 45"/>
<path stroke-width="0.5" stroke="gray" d="M 311 20 371 74"/>
<path stroke-width="0.5" stroke="gray" d="M 311 20 336 20"/>
<path stroke-width="0.5" stroke="gray" d="M 311 20 371 55"/>
<path stroke-width="0.5" stroke="gray" d="M 311 20 295 36"/>
<path stroke-width="0.5" stroke="gray" d="M 311 20 321 47"/>
<path stroke-width="0.5" stroke="gray" d="M 363 32 262 116"/>
<path stroke-width="0.5" stroke="gray" d="M 311 20 324 75"/>
<path stroke-width="0.5" stroke="gray" d="M 33 172 33 172"/>
<path stroke-width="0.5" stroke="gray" d="M 33 172 118 167"/>
<path stroke-width="0.5" stroke="gray" d="M 20 145 109 123"/>
<path stroke-width="0.5" stroke="gray" d="M 218 236 262 116"/>
<path stroke-width="0.5" stroke="gray" d="M 218 236 300 145"/>
<path stroke-width="0.5" stroke="gray" d="M 218 236 159 149"/>
<path stroke-width="0.5" stroke="gray" d="M 218 236 197 205"/>
<path stroke-width="0.5" stroke="gray" d="M 218 236 261 209"/>
<path stroke-width="0.5" stroke="gray" d="M 218 236 218 236"/>
<path stroke-width="0.5" stroke="gray" d="M 218 236 250 235"/>
<path stroke-width="0.5" stroke="gray" d="M 218 236 227 197"/>
<path stroke-width="0.5" stroke="gray" d="M 261 209 262 116"/>
<path stroke-width="0.5" stroke="gray" d="M 261 209 300 145"/>
<path stroke-width="0.5" stroke="gray" d="M 261 209 159 149"/>
<path stroke-width="0.5" stroke="gray" d="M 250 235 227 197"/>
<path stroke-width="0.5" stroke="gray" d="M 261 209 197 205"/>
<path stroke-width="0.5" stroke="gray" d="M 261 209 218 236"/>
<path stroke-width="0.5" stroke="gray" d="M 261 209 250 235"/>
<path stroke-width="0.5" stroke="gray" d="M 261 209 227 197"/>
<path stroke-width="0.5" stroke="gray" d="M 197 205 262 116"/>
<path stroke-width="0.5" stroke="gray" d="M 197 205 300 145"/>
<path stroke-width="0.5" stroke="gray" d="M 197 205 159 149"/>
<path stroke-width="0.5" stroke="gray" d="M 197 205 197 205"/>
<path stroke-width="0.5" stroke="gray" d="M 197 205 261 209"/>
<path stroke-width="0.5" stroke="gray" d="M 197 205 218 236"/>
<path stroke-width="0.5" stroke="gray" d="M 197 205 250 235"/>
<path stroke-width="0.5" stroke="gray" d="M 197 205 227 197"/>
<path stroke-width="0.5" stroke="gray" d="M 261 209 261 209"/>
<path stroke-width="0.5" stroke="gray" d="M 250 235 250 235"/>
<path stroke-width="0.5" stroke="gray" d="M 250 235 218 236"/>
<path stroke-width="0.5" stroke="gray" d="M 250 235 261 209"/>
<path stroke-width="0.5" stroke="gray" d="M 20 145 103 103"/>
<path stroke-width="0.5" stroke="gray" d="M 20 145 159 149"/>
<path stroke-width="0.5" stroke="gray" d="M 20 145 27 115"/>
<path stroke-width="0.5" stroke="gray" d="M 20 145 20 145"/>
<path stroke-width="0.5" stroke="gray" d="M 20 145 33 172"/>
<path stroke-width="0.5" stroke="gray" d="M 20 145 118 167"/>
<path stroke-width="0.5" stroke="gray" d="M 27 115 109 123"/>
<path stroke-width="0.5" stroke="gray" d="M 27 115 103 103"/>
<path stroke-width="0.5" stroke="gray" d="M 27 115 159 149"/>
<path stroke-width="0.5" stroke="gray" d="M 27 115 27 115"/>
<path stroke-width="0.5" stroke="gray" d="M 27 115 20 145"/>
<path stroke-width="0.5" stroke="gray" d="M 27 115 33 172"/>
<path stroke-width="0.5" stroke="gray" d="M 27 115 118 167"/>
<path stroke-width="0.5" stroke="gray" d="M 227 197 262 116"/>
<path stroke-width="0.5" stroke="gray" d="M 227 197 300 145"/>
<path stroke-width="0.5" stroke="gray" d="M 227 197 159 149"/>
<path stroke-width="0.5" stroke="gray" d="M 227 197 197 205"/>
<path stroke-width="0.5" stroke="gray" d="M 227 197 261 209"/>
<path stroke-width="0.5" stroke="gray" d="M 227 197 218 236"/>
<path stroke-width="0.5" stroke="gray" d="M 227 197 250 235"/>
<path stroke-width="0.5" stroke="gray" d="M 227 197 227 197"/>
<path stroke-width="0.5" stroke="gray" d="M 250 235 262 116"/>
<path stroke-width="0.5" stroke="gray" d="M 250 235 300 145"/>
<path stroke-width="0.5" stroke="gray" d="M 250 235 159 149"/>
<path stroke-width="0.5" stroke="gray" d="M 250 235 197 205"/>
<path stroke-width="0.5" stroke="gray" d="M 345 45 318 99"/>
<path stroke-width="0.5" stroke="gray" d="M 345 45 338 99"/>
<path stroke-width="0.5" stroke="gray" d="M 345 45 324 75"/>
<path stroke-width="0.5" stroke="gray" d="M 345 45 298 69"/>
<path stroke-width="0.5" stroke="gray" d="M 171 234 300 145"/>
<path stroke-width="0.5" stroke="gray" d="M 171 234 118 167"/>
<path stroke-width="0.5" stroke="gray" d="M 171 234 171 234"/>
<path stroke-width="0.5" stroke="gray" d="M 321 47 262 116"/>
<path stroke-width="0.5" stroke="gray" d="M 321 47 300 145"/>
<path stroke-width="0.5" stroke="gray" d="M 321 47 256 81"/>
<path stroke-width="0.5" stroke="gray" d="M 321 47 298 69"/>
<path stroke-width="0.5" stroke="gray" d="M 321 47 324 75"/>
<path stroke-width="0.5" stroke="gray" d="M 321 47 338 99"/>
<path stroke-width="0.5" stroke="gray" d="M 321 47 318 99"/>
<path stroke-width="0.5" stroke="gray" d="M 321 47 363 32"/>
<path stroke-width="0.5" stroke="gray" d="M 171 234 262 116"/>
<path stroke-width="0.5" stroke="gray" d="M 321 47 311 20"/>
<path stroke-width="0.5" stroke="gray" d="M 321 47 371 74"/>
<path stroke-width="0.5" stroke="gray" d="M 321 47 336 20"/>
<path stroke-width="0.5" stroke="gray" d="M 321 47 371 55"/>
<path stroke-width="0.5" stroke="gray" d="M 321 47 295 36"/>
<path stroke-width="0.5" stroke="gray" d="M 321 47 321 47"/>
<path stroke-width="0.5" stroke="gray" d="M 295 36 262 116"/>
<path stroke-width="0.5" stroke="gray" d="M 295 36 300 145"/>
<path stroke-width="0.5" stroke="gray" d="M 295 36 256 81"/>
<path stroke-width="0.5" stroke="gray" d="M 295 36 298 69"/>
<path stroke-width="0.5" stroke="gray" d="M 295 36 324 75"/>
<path stroke-width="0.5" stroke="gray" d="M 295 36 338 99"/>
<path stroke-width="0.5" stroke="gray" d="M 321 47 345 45"/>
<path stroke-width="0.5" stroke="gray" d="M 343 311 420 296"/>
<path stroke-width="0.5" stroke="gray" d="M 343 311 413 265"/>
<path stroke-width="0.5" stroke="gray" d="M 343 311 383 320"/>
<path stroke-width="0.5" stroke="gray" d="M 420 296 372 285"/>
<path stroke-width="0.5" stroke="gray" d="M 420 296 383 320"/>
<path stroke-width="0.5" stroke="gray" d="M 420 296 413 265"/>
<path stroke-width="0.5" stroke="gray" d="M 420 296 420 296"/>
<path stroke-width="0.5" stroke="gray" d="M 413 265 300 145"/>
<path stroke-width="0.5" stroke="gray" d="M 413 265 343 311"/>
<path stroke-width="0.5" stroke="gray" d="M 413 265 372 285"/>
<path stroke-width="0.5" stroke="gray" d="M 413 265 383 320"/>
<path stroke-width="0.5" stroke="gray" d="M 413 265 413 265"/>
<path stroke-width="0.5" stroke="gray" d="M 413 265 420 296"/>
<path stroke-width="0.5" stroke="gray" d="M 383 320 300 145"/>
<path stroke-width="0.5" stroke="gray" d="M 383 320 343 311"/>
<path stroke-width="0.5" stroke="gray" d="M 383 320 372 285"/>
<path stroke-width="0.5" stroke="gray" d="M 383 320 383 320"/>
<path stroke-width="0.5" stroke="gray" d="M 383 320 413 265"/>
<path stroke-width="0.5" stroke="gray" d="M 383 320 420 296"/>
<path stroke-width="0.5" stroke="gray" d="M 372 285 300 145"/>
<path stroke-width="0.5" stroke="gray" d="M 372 285 343 311"/>
<path stroke-width="0.5" stroke="gray" d="M 372 285 372 285"/>
<path stroke-width="0.5" stroke="gray" d="M 372 285 383 320"/>
<path stroke-width="0.5" stroke="gray" d="M 372 285 413 265"/>
<path stroke-width="0.5" stroke="gray" d="M 372 285 420 296"/>
<path stroke-width="0.5" stroke="gray" d="M 343 311 300 145"/>
<path stroke-width="0.5" stroke="gray" d="M 343 311 343 311"/>
<path stroke-width="0.5" stroke="gray" d="M 343 311 372 285"/>
<path stroke-width="0.5" stroke="gray" d="M 295 36 318 99"/>
<path stroke-width="5.375" stroke="gray" d="M 318 99 262 116"/>
<path stroke-width="0.5" stroke="gray" d="M 295 36 363 32"/>
<path stroke-width="0.5" stroke="gray" d="M 295 36 345 45"/>
<path stroke-width="0.5" stroke="gray" d="M 336 20 345 45"/>
<path stroke-width="0.5" stroke="gray" d="M 336 20 371 74"/>
<path stroke-width="0.5" stroke="gray" d="M 336 20 336 20"/>
<path stroke-width="0.5" stroke="gray" d="M 336 20 371 55"/>
<path stroke-width="0.5" stroke="gray" d="M 336 20 295 36"/>
<path stroke-width="0.5" stroke="gray" d="M 336 20 321 47"/>
<path stroke-width="0.5" stroke="gray" d="M 371 74 262 116"/>
<path stroke-width="0.5" stroke="gray" d="M 371 74 300 145"/>
<path stroke-width="0.5" stroke="gray" d="M 371 74 256 81"/>
<path stroke-width="0.5" stroke="gray" d="M 371 74 298 69"/>
<path stroke-width="0.5" stroke="gray" d="M 371 74 324 75"/>
<path stroke-width="0.5" stroke="gray" d="M 336 20 311 20"/>
<path stroke-width="0.5" stroke="gray" d="M 371 74 338 99"/>
<path stroke-width="0.5" stroke="gray" d="M 371 74 363 32"/>
<path stroke-width="0.5" stroke="gray" d="M 371 74 311 20"/>
<path stroke-width="0.5" stroke="gray" d="M 371 74 345 45"/>
<path stroke-width="0.5" stroke="gray" d="M 371 74 371 74"/>
<path stroke-width="0.5" stroke="gray" d="M 371 74 336 20"/>
<path stroke-width="0.5" stroke="gray" d="M 371 74 371 55"/>
<path stroke-width="0.5" stroke="gray" d="M 371 74 295 36"/>
<path stroke-width="0.5" stroke="gray" d="M 371 74 321 47"/>
<path stroke-width="0.5" stroke="gray" d="M 345 45 262 116"/>
<path stroke-width="0.5" stroke="gray" d="M 345 45 300 145"/>
<path stroke-width="0.5" stroke="gray" d="M 345 45 256 81"/>
<path stroke-width="0.5" stroke="gray" d="M 371 74 318 99"/>
<path stroke-width="0.5" stroke="gray" d="M 336 20 363 32"/>
<path stroke-width="0.5" stroke="gray" d="M 336 20 318 99"/>
<path stroke-width="0.5" stroke="gray" d="M 336 20 338 99"/>
<path stroke-width="0.5" stroke="gray" d="M 295 36 371 74"/>
<path stroke-width="0.5" stroke="gray" d="M 295 36 336 20"/>
<path stroke-width="0.5" stroke="gray" d="M 295 36 371 55"/>
<path stroke-width="0.5" stroke="gray" d="M 295 36 295 36"/>
<path stroke-width="0.5" stroke="gray" d="M 295 36 321 47"/>
<path stroke-width="0.5" stroke="gray" d="M 371 55 262 116"/>
<path stroke-width="0.5" stroke="gray" d="M 371 55 300 145"/>
<path stroke-width="0.5" stroke="gray" d="M 371 55 256 81"/>
<path stroke-width="0.5" stroke="gray" d="M 371 55 298 69"/>
<path stroke-width="0.5" stroke="gray" d="M 371 55 324 75"/>
<path stroke-width="0.5" stroke="gray" d="M 371 55 338 99"/>
<path stroke-width="0.5" stroke="gray" d="M 371 55 318 99"/>
<path stroke-width="0.5" stroke="gray" d="M 371 55 363 32"/>
<path stroke-width="0.5" stroke="gray" d="M 371 55 311 20"/>
<path stroke-width="0.5" stroke="gray" d="M 371 55 345 45"/>
<path stroke-width="0.5" stroke="gray" d="M 371 55 371 74"/>
<path stroke-width="0.5" stroke="gray" d="M 371 55 336 20"/>
<path stroke-width="0.5" stroke="gray" d="M 371 55 371 55"/>
<path stroke-width="0.5" stroke="gray" d="M 371 55 295 36"/>
<path stroke-width="0.5" stroke="gray" d="M 371 55 321 47"/>
<path stroke-width="0.5" stroke="gray" d="M 336 20 262 116"/>
<path stroke-width="0.5" stroke="gray" d="M 336 20 300 145"/>
<path stroke-width="0.5" stroke="gray" d="M 336 20 256 81"/>
<path stroke-width="0.5" stroke="gray" d="M 336 20 298 69"/>
<path stroke-width="0.5" stroke="gray" d="M 336 20 324 75"/>
<path stroke-width="0.5" stroke="gray" d="M 295 36 311 20"/>
<path stroke-width="0.5" stroke="gray" d="M 420 296 343 311"/>
<path stroke-width="5.375" stroke="gray" d="M 318 99 300 145"/>
<path stroke-width="5.375" stroke="gray" d="M 318 99 338 99"/>
<path stroke-width="0.5" stroke="gray" d="M 103 103 118 167"/>
<path stroke-width="0.5" stroke="gray" d="M 109 123 262 116"/>
<path stroke-width="0.5" stroke="gray" d="M 109 123 138 53"/>
<path stroke-width="2.9375" stroke="gray" d="M 109 123 109 123"/>
<path stroke-width="2.9375" stroke="gray" d="M 109 123 103 103"/>
<path stroke-width="2.9375" stroke="gray" d="M 109 123 159 149"/>
<path stroke-width="0.5" stroke="gray" d="M 109 123 256 81"/>
<path stroke-width="0.5" stroke="gray" d="M 109 123 143 81"/>
<path stroke-width="0.5" stroke="gray" d="M 109 123 27 115"/>
<path stroke-width="0.5" stroke="gray" d="M 109 123 20 145"/>
<path stroke-width="0.5" stroke="gray" d="M 109 123 33 172"/>
<path stroke-width="0.5" stroke="gray" d="M 103 103 33 172"/>
<path stroke-width="0.5" stroke="gray" d="M 109 123 118 167"/>
<path stroke-width="0.5" stroke="gray" d="M 138 53 138 53"/>
<path stroke-width="0.5" stroke="gray" d="M 138 53 109 123"/>
<path stroke-width="0.5" stroke="gray" d="M 138 53 103 103"/>
<path stroke-width="0.5" stroke="gray" d="M 138 53 159 149"/>
<path stroke-width="0.5" stroke="gray" d="M 138 53 256 81"/>
<path stroke-width="0.5" stroke="gray" d="M 138 53 143 81"/>
<path stroke-width="17.5625" stroke="gray" d="M 300 145 262 116"/>
<path stroke-width="20.0" stroke="gray" d="M 300 145 300 145"/>
<path stroke-width="2.9375" stroke="gray" d="M 300 145 298 69"/>
<path stroke-width="2.9375" stroke="gray" d="M 300 145 246 66"/>
<path stroke-width="2.9375" stroke="gray" d="M 300 145 324 75"/>
<path stroke-width="0.5" stroke="gray" d="M 138 53 262 116"/>
<path stroke-width="2.9375" stroke="gray" d="M 300 145 256 81"/>
<path stroke-width="0.5" stroke="gray" d="M 103 103 20 145"/>
<path stroke-width="0.5" stroke="gray" d="M 103 103 143 81"/>
<path stroke-width="0.5" stroke="gray" d="M 256 81 321 47"/>
<path stroke-width="2.9375" stroke="gray" d="M 159 149 262 116"/>
<path stroke-width="0.5" stroke="gray" d="M 159 149 138 53"/>
<path stroke-width="2.9375" stroke="gray" d="M 159 149 109 123"/>
<path stroke-width="2.9375" stroke="gray" d="M 159 149 103 103"/>
<path stroke-width="5.375" stroke="gray" d="M 159 149 159 149"/>
<path stroke-width="0.5" stroke="gray" d="M 159 149 256 81"/>
<path stroke-width="0.5" stroke="gray" d="M 159 149 143 81"/>
<path stroke-width="0.5" stroke="gray" d="M 159 149 300 145"/>
<path stroke-width="0.5" stroke="gray" d="M 159 149 197 205"/>
<path stroke-width="0.5" stroke="gray" d="M 159 149 261 209"/>
<path stroke-width="0.5" stroke="gray" d="M 103 103 27 115"/>
<path stroke-width="0.5" stroke="gray" d="M 159 149 218 236"/>
<path stroke-width="0.5" stroke="gray" d="M 159 149 227 197"/>
<path stroke-width="0.5" stroke="gray" d="M 159 149 27 115"/>
<path stroke-width="0.5" stroke="gray" d="M 159 149 20 145"/>
<path stroke-width="0.5" stroke="gray" d="M 159 149 33 172"/>
<path stroke-width="0.5" stroke="gray" d="M 159 149 118 167"/>
<path stroke-width="0.5" stroke="gray" d="M 103 103 262 116"/>
<path stroke-width="0.5" stroke="gray" d="M 103 103 138 53"/>
<path stroke-width="2.9375" stroke="gray" d="M 103 103 109 123"/>
<path stroke-width="2.9375" stroke="gray" d="M 103 103 103 103"/>
<path stroke-width="2.9375" stroke="gray" d="M 103 103 159 149"/>
<path stroke-width="0.5" stroke="gray" d="M 103 103 256 81"/>
<path stroke-width="0.5" stroke="gray" d="M 159 149 250 235"/>
<path stroke-width="0.5" stroke="gray" d="M 300 145 242 25"/>
<path stroke-width="0.5" stroke="gray" d="M 300 145 362 108"/>
<path stroke-width="2.9375" stroke="gray" d="M 300 145 362 154"/>
<path stroke-width="5.375" stroke="gray" d="M 262 116 256 81"/>
<path stroke-width="0.5" stroke="gray" d="M 262 116 143 81"/>
<path stroke-width="2.9375" stroke="gray" d="M 262 116 298 69"/>
<path stroke-width="2.9375" stroke="gray" d="M 262 116 246 66"/>
<path stroke-width="2.9375" stroke="gray" d="M 262 116 324 75"/>
<path stroke-width="0.5" stroke="gray" d="M 262 116 242 25"/>
<path stroke-width="0.5" stroke="gray" d="M 262 116 362 108"/>
<path stroke-width="2.9375" stroke="gray" d="M 262 116 362 154"/>
<path stroke-width="5.375" stroke="gray" d="M 262 116 338 99"/>
<path stroke-width="5.375" stroke="gray" d="M 262 116 318 99"/>
<path stroke-width="0.5" stroke="gray" d="M 262 116 197 205"/>
<path stroke-width="2.9375" stroke="gray" d="M 262 116 159 149"/>
<path stroke-width="0.5" stroke="gray" d="M 262 116 261 209"/>
<path stroke-width="0.5" stroke="gray" d="M 262 116 250 235"/>
<path stroke-width="0.5" stroke="gray" d="M 262 116 227 197"/>
<path stroke-width="0.5" stroke="gray" d="M 262 116 363 32"/>
<path stroke-width="0.5" stroke="gray" d="M 262 116 311 20"/>
<path stroke-width="0.5" stroke="gray" d="M 262 116 345 45"/>
<path stroke-width="0.5" stroke="gray" d="M 262 116 371 74"/>
<path stroke-width="0.5" stroke="gray" d="M 262 116 336 20"/>
<path stroke-width="0.5" stroke="gray" d="M 262 116 371 55"/>
<path stroke-width="0.5" stroke="gray" d="M 262 116 295 36"/>
<path stroke-width="0.5" stroke="gray" d="M 262 116 321 47"/>
<path stroke-width="0.5" stroke="gray" d="M 262 116 118 167"/>
<path stroke-width="0.5" stroke="gray" d="M 262 116 218 236"/>
<path stroke-width="0.5" stroke="gray" d="M 262 116 103 103"/>
<path stroke-width="0.5" stroke="gray" d="M 262 116 109 123"/>
<path stroke-width="0.5" stroke="gray" d="M 262 116 138 53"/>
<path stroke-width="5.375" stroke="gray" d="M 300 145 338 99"/>
<path stroke-width="5.375" stroke="gray" d="M 300 145 318 99"/>
<path stroke-width="0.5" stroke="gray" d="M 300 145 159 149"/>
<path stroke-width="0.5" stroke="gray" d="M 300 145 197 205"/>
<path stroke-width="0.5" stroke="gray" d="M 300 145 261 209"/>
<path stroke-width="0.5" stroke="gray" d="M 300 145 218 236"/>
<path stroke-width="0.5" stroke="gray" d="M 300 145 250 235"/>
<path stroke-width="0.5" stroke="gray" d="M 300 145 227 197"/>
<path stroke-width="0.5" stroke="gray" d="M 300 145 363 32"/>
<path stroke-width="0.5" stroke="gray" d="M 300 145 311 20"/>
<path stroke-width="0.5" stroke="gray" d="M 300 145 345 45"/>
<path stroke-width="0.5" stroke="gray" d="M 300 145 371 74"/>
<path stroke-width="0.5" stroke="gray" d="M 300 145 336 20"/>
<path stroke-width="0.5" stroke="gray" d="M 300 145 371 55"/>
<path stroke-width="0.5" stroke="gray" d="M 300 145 295 36"/>
<path stroke-width="0.5" stroke="gray" d="M 300 145 321 47"/>
<path stroke-width="0.5" stroke="gray" d="M 300 145 118 167"/>
<path stroke-width="0.5" stroke="gray" d="M 300 145 171 234"/>
<path stroke-width="0.5" stroke="gray" d="M 300 145 343 311"/>
<path stroke-width="0.5" stroke="gray" d="M 300 145 372 285"/>
<path stroke-width="0.5" stroke="gray" d="M 300 145 383 320"/>
<path stroke-width="0.5" stroke="gray" d="M 300 145 413 265"/>
<path stroke-width="0.5" stroke="gray" d="M 300 145 420 296"/>
<path stroke-width="20.0" stroke="gray" d="M 262 116 262 116"/>
<path stroke-width="17.5625" stroke="gray" d="M 262 116 300 145"/>
<path stroke-width="0.5" stroke="gray" d="M 256 81 295 36"/>
<path stroke-width="0.5" stroke="gray" d="M 256 81 371 55"/>
<path stroke-width="0.5" stroke="gray" d="M 256 81 336 20"/>
<path stroke-width="0.5" stroke="gray" d="M 256 81 371 74"/>
<path stroke-width="2.9375" stroke="gray" d="M 362 154 300 145"/>
<path stroke-width="2.9375" stroke="gray" d="M 362 154 362 154"/>
<path stroke-width="2.9375" stroke="gray" d="M 362 154 338 99"/>
<path stroke-width="2.9375" stroke="gray" d="M 362 154 318 99"/>
<path stroke-width="0.5" stroke="gray" d="M 362 108 262 116"/>
<path stroke-width="0.5" stroke="gray" d="M 362 108 300 145"/>
<path stroke-width="0.5" stroke="gray" d="M 362 108 256 81"/>
<path stroke-width="0.5" stroke="gray" d="M 362 108 246 66"/>
<path stroke-width="0.5" stroke="gray" d="M 362 108 242 25"/>
<path stroke-width="0.5" stroke="gray" d="M 362 108 362 108"/>
<path stroke-width="0.5" stroke="gray" d="M 242 25 262 116"/>
<path stroke-width="2.9375" stroke="gray" d="M 362 154 262 116"/>
<path stroke-width="0.5" stroke="gray" d="M 242 25 300 145"/>
<path stroke-width="0.5" stroke="gray" d="M 242 25 246 66"/>
<path stroke-width="0.5" stroke="gray" d="M 242 25 242 25"/>
<path stroke-width="0.5" stroke="gray" d="M 242 25 362 108"/>
<path stroke-width="2.9375" stroke="gray" d="M 324 75 262 116"/>
<path stroke-width="2.9375" stroke="gray" d="M 324 75 300 145"/>
<path stroke-width="2.9375" stroke="gray" d="M 324 75 298 69"/>
<path stroke-width="0.5" stroke="gray" d="M 324 75 246 66"/>
<path stroke-width="2.9375" stroke="gray" d="M 324 75 324 75"/>
<path stroke-width="0.5" stroke="gray" d="M 324 75 256 81"/>
<path stroke-width="0.5" stroke="gray" d="M 324 75 338 99"/>
<path stroke-width="0.5" stroke="gray" d="M 324 75 318 99"/>
<path stroke-width="0.5" stroke="gray" d="M 242 25 256 81"/>
<path stroke-width="0.5" stroke="gray" d="M 338 99 321 47"/>
<path stroke-width="0.5" stroke="gray" d="M 338 99 295 36"/>
<path stroke-width="0.5" stroke="gray" d="M 338 99 371 55"/>
<path stroke-width="5.375" stroke="gray" d="M 318 99 318 99"/>
<path stroke-width="0.5" stroke="gray" d="M 318 99 256 81"/>
<path stroke-width="0.5" stroke="gray" d="M 318 99 298 69"/>
<path stroke-width="0.5" stroke="gray" d="M 318 99 324 75"/>
<path stroke-width="0.5" stroke="gray" d="M 318 99 363 32"/>
<path stroke-width="0.5" stroke="gray" d="M 318 99 311 20"/>
<path stroke-width="0.5" stroke="gray" d="M 318 99 345 45"/>
<path stroke-width="0.5" stroke="gray" d="M 318 99 371 74"/>
<path stroke-width="0.5" stroke="gray" d="M 318 99 336 20"/>
<path stroke-width="0.5" stroke="gray" d="M 318 99 371 55"/>
<path stroke-width="0.5" stroke="gray" d="M 318 99 295 36"/>
<path stroke-width="0.5" stroke="gray" d="M 318 99 321 47"/>
<path stroke-width="5.375" stroke="gray" d="M 338 99 262 116"/>
<path stroke-width="5.375" stroke="gray" d="M 338 99 300 145"/>
<path stroke-width="2.9375" stroke="gray" d="M 338 99 362 154"/>
<path stroke-width="5.375" stroke="gray" d="M 338 99 338 99"/>
<path stroke-width="5.375" stroke="gray" d="M 338 99 318 99"/>
<path stroke-width="0.5" stroke="gray" d="M 338 99 256 81"/>
<path stroke-width="0.5" stroke="gray" d="M 338 99 298 69"/>
<path stroke-width="0.5" stroke="gray" d="M 338 99 324 75"/>
<path stroke-width="0.5" stroke="gray" d="M 338 99 363 32"/>
<path stroke-width="0.5" stroke="gray" d="M 338 99 311 20"/>
<path stroke-width="0.5" stroke="gray" d="M 338 99 345 45"/>
<path stroke-width="0.5" stroke="gray" d="M 338 99 371 74"/>
<path stroke-width="0.5" stroke="gray" d="M 338 99 336 20"/>
<path stroke-width="0.5" stroke="gray" d="M 324 75 363 32"/>
<path stroke-width="2.9375" stroke="gray" d="M 318 99 362 154"/>
<path stroke-width="0.5" stroke="gray" d="M 324 75 311 20"/>
<path stroke-width="0.5" stroke="gray" d="M 324 75 371 74"/>
<path stroke-width="0.5" stroke="gray" d="M 143 81 138 53"/>
<path stroke-width="0.5" stroke="gray" d="M 143 81 109 123"/>
<path stroke-width="0.5" stroke="gray" d="M 143 81 103 103"/>
<path stroke-width="0.5" stroke="gray" d="M 143 81 159 149"/>
<path stroke-width="0.5" stroke="gray" d="M 143 81 256 81"/>
<path stroke-width="0.5" stroke="gray" d="M 143 81 143 81"/>
<path stroke-width="5.375" stroke="gray" d="M 256 81 262 116"/>
<path stroke-width="0.5" stroke="gray" d="M 256 81 138 53"/>
<path stroke-width="0.5" stroke="gray" d="M 256 81 109 123"/>
<path stroke-width="0.5" stroke="gray" d="M 256 81 103 103"/>
<path stroke-width="0.5" stroke="gray" d="M 256 81 159 149"/>
<path stroke-width="0.5" stroke="gray" d="M 143 81 262 116"/>
<path stroke-width="5.375" stroke="gray" d="M 256 81 256 81"/>
<path stroke-width="2.9375" stroke="gray" d="M 256 81 300 145"/>
<path stroke-width="0.5" stroke="gray" d="M 256 81 246 66"/>
<path stroke-width="0.5" stroke="gray" d="M 256 81 242 25"/>
<path stroke-width="0.5" stroke="gray" d="M 256 81 362 108"/>
<path stroke-width="0.5" stroke="gray" d="M 256 81 298 69"/>
<path stroke-width="0.5" stroke="gray" d="M 256 81 324 75"/>
<path stroke-width="0.5" stroke="gray" d="M 256 81 338 99"/>
<path stroke-width="0.5" stroke="gray" d="M 256 81 318 99"/>
<path stroke-width="0.5" stroke="gray" d="M 256 81 363 32"/>
<path stroke-width="0.5" stroke="gray" d="M 256 81 311 20"/>
<path stroke-width="0.5" stroke="gray" d="M 256 81 345 45"/>
<path stroke-width="0.5" stroke="gray" d="M 256 81 143 81"/>
<path stroke-width="0.5" stroke="gray" d="M 298 69 321 47"/>
<path stroke-width="0.5" stroke="gray" d="M 298 69 295 36"/>
<path stroke-width="0.5" stroke="gray" d="M 298 69 371 55"/>
<path stroke-width="0.5" stroke="gray" d="M 324 75 336 20"/>
<path stroke-width="0.5" stroke="gray" d="M 324 75 371 55"/>
<path stroke-width="0.5" stroke="gray" d="M 324 75 295 36"/>
<path stroke-width="0.5" stroke="gray" d="M 324 75 321 47"/>
<path stroke-width="2.9375" stroke="gray" d="M 246 66 262 116"/>
<path stroke-width="2.9375" stroke="gray" d="M 246 66 300 145"/>
<path stroke-width="0.5" stroke="gray" d="M 246 66 298 69"/>
<path stroke-width="2.9375" stroke="gray" d="M 246 66 246 66"/>
<path stroke-width="0.5" stroke="gray" d="M 246 66 324 75"/>
<path stroke-width="0.5" stroke="gray" d="M 246 66 256 81"/>
<path stroke-width="0.5" stroke="gray" d="M 246 66 242 25"/>
<path stroke-width="0.5" stroke="gray" d="M 246 66 362 108"/>
<path stroke-width="2.9375" stroke="gray" d="M 298 69 262 116"/>
<path stroke-width="2.9375" stroke="gray" d="M 298 69 300 145"/>
<path stroke-width="2.9375" stroke="gray" d="M 298 69 298 69"/>
<path stroke-width="0.5" stroke="gray" d="M 298 69 246 66"/>
<path stroke-width="2.9375" stroke="gray" d="M 298 69 324 75"/>
<path stroke-width="0.5" stroke="gray" d="M 298 69 256 81"/>
<path stroke-width="0.5" stroke="gray" d="M 298 69 338 99"/>
<path stroke-width="0.5" stroke="gray" d="M 298 69 318 99"/>
<path stroke-width="0.5" stroke="gray" d="M 298 69 363 32"/>
<path stroke-width="0.5" stroke="gray" d="M 298 69 311 20"/>
<path stroke-width="0.5" stroke="gray" d="M 298 69 345 45"/>
<path stroke-width="0.5" stroke="gray" d="M 298 69 371 74"/>
<path stroke-width="0.5" stroke="gray" d="M 298 69 336 20"/>
<path stroke-width="0.5" stroke="gray" d="M 324 75 345 45"/>
<path stroke-width="0.5" stroke="gray" d="M 420 296 300 145"/>
<circle cx="262" cy="116" r="7.0" style="fill:rgb(187, 26, 43);stroke:black;stroke-width:1.0"/>
<circle cx="300" cy="145" r="7.0" style="fill:rgb(179, 3, 38);stroke:black;stroke-width:1.0"/>
<circle cx="138" cy="53" r="7.0" style="fill:rgb(109, 144, 241);stroke:black;stroke-width:1.0"/>
<circle cx="109" cy="123" r="7.0" style="fill:rgb(208, 218, 233);stroke:black;stroke-width:1.0"/>
<circle cx="103" cy="103" r="7.0" style="fill:rgb(208, 218, 233);stroke:black;stroke-width:1.0"/>
<circle cx="159" cy="149" r="7.0" style="fill:rgb(245, 193, 168);stroke:black;stroke-width:1.0"/>
<circle cx="256" cy="81" r="7.0" style="fill:rgb(246, 183, 156);stroke:black;stroke-width:1.0"/>
<circle cx="143" cy="81" r="7.0" style="fill:rgb(109, 144, 241);stroke:black;stroke-width:1.0"/>
<circle cx="298" cy="69" r="7.0" style="fill:rgb(219, 220, 222);stroke:black;stroke-width:1.0"/>
<circle cx="246" cy="66" r="7.0" style="fill:rgb(155, 187, 254);stroke:black;stroke-width:1.0"/>
<circle cx="324" cy="75" r="7.0" style="fill:rgb(219, 220, 222);stroke:black;stroke-width:1.0"/>
<circle cx="242" cy="25" r="7.0" style="fill:rgb(86, 115, 224);stroke:black;stroke-width:1.0"/>
<circle cx="362" cy="108" r="7.0" style="fill:rgb(86, 115, 224);stroke:black;stroke-width:1.0"/>
<circle cx="362" cy="154" r="7.0" style="fill:rgb(130, 165, 251);stroke:black;stroke-width:1.0"/>
<circle cx="338" cy="99" r="7.0" style="fill:rgb(237, 207, 192);stroke:black;stroke-width:1.0"/>
<circle cx="318" cy="99" r="7.0" style="fill:rgb(237, 207, 192);stroke:black;stroke-width:1.0"/>
<circle cx="197" cy="205" r="7.0" style="fill:rgb(130, 165, 251);stroke:black;stroke-width:1.0"/>
<circle cx="261" cy="209" r="7.0" style="fill:rgb(130, 165, 251);stroke:black;stroke-width:1.0"/>
<circle cx="218" cy="236" r="7.0" style="fill:rgb(130, 165, 251);stroke:black;stroke-width:1.0"/>
<circle cx="250" cy="235" r="7.0" style="fill:rgb(130, 165, 251);stroke:black;stroke-width:1.0"/>
<circle cx="227" cy="197" r="7.0" style="fill:rgb(130, 165, 251);stroke:black;stroke-width:1.0"/>
<circle cx="27" cy="115" r="7.0" style="fill:rgb(127, 162, 250);stroke:black;stroke-width:1.0"/>
<circle cx="20" cy="145" r="7.0" style="fill:rgb(127, 162, 250);stroke:black;stroke-width:1.0"/>
<circle cx="33" cy="172" r="7.0" style="fill:rgb(127, 162, 250);stroke:black;stroke-width:1.0"/>
<circle cx="118" cy="167" r="7.0" style="fill:rgb(183, 207, 249);stroke:black;stroke-width:1.0"/>
<circle cx="363" cy="32" r="7.0" style="fill:rgb(183, 207, 249);stroke:black;stroke-width:1.0"/>
<circle cx="311" cy="20" r="7.0" style="fill:rgb(183, 207, 249);stroke:black;stroke-width:1.0"/>
<circle cx="345" cy="45" r="7.0" style="fill:rgb(183, 207, 249);stroke:black;stroke-width:1.0"/>
<circle cx="371" cy="74" r="7.0" style="fill:rgb(183, 207, 249);stroke:black;stroke-width:1.0"/>
<circle cx="336" cy="20" r="7.0" style="fill:rgb(183, 207, 249);stroke:black;stroke-width:1.0"/>
<circle cx="371" cy="55" r="7.0" style="fill:rgb(183, 207, 249);stroke:black;stroke-width:1.0"/>
<circle cx="295" cy="36" r="7.0" style="fill:rgb(183, 207, 249);stroke:black;stroke-width:1.0"/>
<circle cx="321" cy="47" r="7.0" style="fill:rgb(183, 207, 249);stroke:black;stroke-width:1.0"/>
<circle cx="171" cy="234" r="7.0" style="fill:rgb(58, 76, 192);stroke:black;stroke-width:1.0"/>
<circle cx="343" cy="311" r="7.0" style="fill:rgb(138, 173, 253);stroke:black;stroke-width:1.0"/>
<circle cx="372" cy="285" r="7.0" style="fill:rgb(138, 173, 253);stroke:black;stroke-width:1.0"/>
<circle cx="383" cy="320" r="7.0" style="fill:rgb(138, 173, 253);stroke:black;stroke-width:1.0"/>
<circle cx="413" cy="265" r="7.0" style="fill:rgb(138, 173, 253);stroke:black;stroke-width:1.0"/>
<circle cx="420" cy="296" r="7.0" style="fill:rgb(138, 173, 253);stroke:black;stroke-width:1.0"/>
<text x="272" y="123" font-size="12">endangered</text><text x="310" y="152" font-size="12">species</text><text x="148" y="60" font-size="12">great white sharks</text><text x="119" y="130" font-size="12">california</text><text x="113" y="110" font-size="12">endangered species</text><text x="169" y="156" font-size="12">great white shark</text><text x="266" y="88" font-size="12">white</text><text x="153" y="88" font-size="12">push</text><text x="308" y="76" font-size="12">red list</text><text x="256" y="73" font-size="12">iucn</text><text x="334" y="82" font-size="12">union</text><text x="252" y="32" font-size="12">critically endangered</text><text x="372" y="115" font-size="12">cites</text><text x="372" y="161" font-size="12">hammerhead shark</text><text x="348" y="106" font-size="12">great hammerhead</text><text x="328" y="106" font-size="12">scalloped hammerhead</text><text x="207" y="212" font-size="12">dusky shark</text><text x="271" y="216" font-size="12">tiger shark</text><text x="228" y="243" font-size="12">bull shark</text><text x="260" y="242" font-size="12">river dolphin</text><text x="237" y="204" font-size="12">yangtze</text><text x="37" y="122" font-size="12">san francisco</text><text x="30" y="152" font-size="12">reuters</text><text x="43" y="179" font-size="12">predatory</text><text x="128" y="174" font-size="12">fish</text><text x="373" y="39" font-size="12">hammerhead sharks</text><text x="321" y="27" font-size="12">winghead shark</text><text x="355" y="52" font-size="12">scalloped bonnethead</text><text x="381" y="81" font-size="12">fin</text><text x="346" y="27" font-size="12">scoophead</text><text x="381" y="62" font-size="12">bonnethead</text><text x="305" y="43" font-size="12">smalleye hammerhead</text><text x="331" y="54" font-size="12">smooth hammerhead</text><text x="181" y="241" font-size="12">skipjack tuna</text><text x="353" y="318" font-size="12">squalene</text><text x="382" y="292" font-size="12">shark liver oil</text><text x="393" y="327" font-size="12">cosmetics</text><text x="423" y="272" font-size="12">hydrogenation</text><text x="430" y="303" font-size="12">lipid</text></svg>
