<svg width="548.0" height="340" xmlns="http://www.w3.org/2000/svg">
<path stroke-width="0.5" stroke="gray" d="M 51 132 20 133"/>
<path stroke-width="0.5" stroke="gray" d="M 169 299 154 297"/>
<path stroke-width="0.5" stroke="gray" d="M 169 299 149 288"/>
<path stroke-width="0.5" stroke="gray" d="M 169 299 179 292"/>
<path stroke-width="0.5" stroke="gray" d="M 169 299 169 299"/>
<path stroke-width="0.5" stroke="gray" d="M 179 292 179 278"/>
<path stroke-width="0.5" stroke="gray" d="M 179 292 162 279"/>
<path stroke-width="0.5" stroke="gray" d="M 179 292 154 297"/>
<path stroke-width="0.5" stroke="gray" d="M 179 292 149 288"/>
<path stroke-width="0.5" stroke="gray" d="M 179 292 179 292"/>
<path stroke-width="0.5" stroke="gray" d="M 179 292 169 299"/>
<path stroke-width="0.5" stroke="gray" d="M 149 288 179 278"/>
<path stroke-width="0.5" stroke="gray" d="M 149 288 162 279"/>
<path stroke-width="0.5" stroke="gray" d="M 149 288 154 297"/>
<path stroke-width="0.5" stroke="gray" d="M 169 299 162 279"/>
<path stroke-width="0.5" stroke="gray" d="M 149 288 149 288"/>
<path stroke-width="0.5" stroke="gray" d="M 149 288 169 299"/>
<path stroke-width="0.5" stroke="gray" d="M 154 297 179 278"/>
<path stroke-width="0.5" stroke="gray" d="M 154 297 162 279"/>
<path stroke-width="0.5" stroke="gray" d="M 154 297 154 297"/>
<path stroke-width="0.5" stroke="gray" d="M 154 297 149 288"/>
<path stroke-width="0.5" stroke="gray" d="M 154 297 179 292"/>
<path stroke-width="0.5" stroke="gray" d="M 154 297 169 299"/>
<path stroke-width="0.5" stroke="gray" d="M 391 310 402 302"/>
<path stroke-width="0.5" stroke="gray" d="M 391 310 418 316"/>
<path stroke-width="0.5" stroke="gray" d="M 391 310 420 305"/>
<path stroke-width="0.5" stroke="gray" d="M 391 310 400 320"/>
<path stroke-width="0.5" stroke="gray" d="M 391 310 391 310"/>
<path stroke-width="0.5" stroke="gray" d="M 400 320 402 302"/>
<path stroke-width="0.5" stroke="gray" d="M 149 288 179 292"/>
<path stroke-width="0.5" stroke="gray" d="M 169 299 179 278"/>
<path stroke-width="0.5" stroke="gray" d="M 138 173 157 182"/>
<path stroke-width="0.5" stroke="gray" d="M 138 173 131 187"/>
<path stroke-width="0.5" stroke="gray" d="M 355 102 355 102"/>
<path stroke-width="0.5" stroke="gray" d="M 355 102 332 96"/>
<path stroke-width="0.5" stroke="gray" d="M 95 29 126 32"/>
<path stroke-width="0.5" stroke="gray" d="M 95 29 109 37"/>
<path stroke-width="0.5" stroke="gray" d="M 95 29 104 20"/>
<path stroke-width="0.5" stroke="gray" d="M 95 29 123 21"/>
<path stroke-width="0.5" stroke="gray" d="M 95 29 95 29"/>
<path stroke-width="0.5" stroke="gray" d="M 123 21 126 32"/>
<path stroke-width="0.5" stroke="gray" d="M 123 21 109 37"/>
<path stroke-width="0.5" stroke="gray" d="M 123 21 104 20"/>
<path stroke-width="0.5" stroke="gray" d="M 123 21 123 21"/>
<path stroke-width="0.5" stroke="gray" d="M 123 21 95 29"/>
<path stroke-width="0.5" stroke="gray" d="M 104 20 126 32"/>
<path stroke-width="0.5" stroke="gray" d="M 104 20 109 37"/>
<path stroke-width="0.5" stroke="gray" d="M 104 20 104 20"/>
<path stroke-width="0.5" stroke="gray" d="M 104 20 123 21"/>
<path stroke-width="0.5" stroke="gray" d="M 104 20 95 29"/>
<path stroke-width="0.5" stroke="gray" d="M 109 37 126 32"/>
<path stroke-width="0.5" stroke="gray" d="M 109 37 109 37"/>
<path stroke-width="0.5" stroke="gray" d="M 109 37 104 20"/>
<path stroke-width="0.5" stroke="gray" d="M 109 37 123 21"/>
<path stroke-width="0.5" stroke="gray" d="M 109 37 95 29"/>
<path stroke-width="0.5" stroke="gray" d="M 157 182 138 173"/>
<path stroke-width="0.5" stroke="gray" d="M 157 182 131 187"/>
<path stroke-width="0.5" stroke="gray" d="M 157 182 157 182"/>
<path stroke-width="0.5" stroke="gray" d="M 131 187 138 173"/>
<path stroke-width="0.5" stroke="gray" d="M 131 187 131 187"/>
<path stroke-width="0.5" stroke="gray" d="M 131 187 157 182"/>
<path stroke-width="0.5" stroke="gray" d="M 138 173 138 173"/>
<path stroke-width="0.5" stroke="gray" d="M 400 320 418 316"/>
<path stroke-width="0.5" stroke="gray" d="M 400 320 420 305"/>
<path stroke-width="0.5" stroke="gray" d="M 400 320 400 320"/>
<path stroke-width="0.5" stroke="gray" d="M 400 320 391 310"/>
<path stroke-width="0.5" stroke="gray" d="M 126 32 104 20"/>
<path stroke-width="0.5" stroke="gray" d="M 126 32 123 21"/>
<path stroke-width="0.5" stroke="gray" d="M 126 32 95 29"/>
<path stroke-width="0.5" stroke="gray" d="M 222 268 179 278"/>
<path stroke-width="0.5" stroke="gray" d="M 222 268 222 268"/>
<path stroke-width="20.0" stroke="gray" d="M 179 278 179 278"/>
<path stroke-width="0.5" stroke="gray" d="M 179 278 222 268"/>
<path stroke-width="10.25" stroke="gray" d="M 179 278 162 279"/>
<path stroke-width="0.5" stroke="gray" d="M 179 278 156 262"/>
<path stroke-width="0.5" stroke="gray" d="M 179 278 177 260"/>
<path stroke-width="0.5" stroke="gray" d="M 179 278 154 297"/>
<path stroke-width="0.5" stroke="gray" d="M 179 278 149 288"/>
<path stroke-width="0.5" stroke="gray" d="M 179 278 179 292"/>
<path stroke-width="0.5" stroke="gray" d="M 179 278 169 299"/>
<path stroke-width="0.5" stroke="gray" d="M 20 133 51 132"/>
<path stroke-width="0.5" stroke="gray" d="M 20 133 34 123"/>
<path stroke-width="0.5" stroke="gray" d="M 20 133 36 141"/>
<path stroke-width="0.5" stroke="gray" d="M 20 133 20 133"/>
<path stroke-width="0.5" stroke="gray" d="M 36 141 51 132"/>
<path stroke-width="0.5" stroke="gray" d="M 36 141 34 123"/>
<path stroke-width="0.5" stroke="gray" d="M 36 141 36 141"/>
<path stroke-width="0.5" stroke="gray" d="M 36 141 20 133"/>
<path stroke-width="0.5" stroke="gray" d="M 34 123 51 132"/>
<path stroke-width="0.5" stroke="gray" d="M 34 123 34 123"/>
<path stroke-width="0.5" stroke="gray" d="M 34 123 36 141"/>
<path stroke-width="0.5" stroke="gray" d="M 34 123 20 133"/>
<path stroke-width="0.5" stroke="gray" d="M 51 132 51 132"/>
<path stroke-width="0.5" stroke="gray" d="M 51 132 34 123"/>
<path stroke-width="0.5" stroke="gray" d="M 51 132 36 141"/>
<path stroke-width="0.5" stroke="gray" d="M 126 32 109 37"/>
<path stroke-width="0.5" stroke="gray" d="M 332 96 332 96"/>
<path stroke-width="10.25" stroke="gray" d="M 126 32 126 32"/>
<path stroke-width="0.5" stroke="gray" d="M 162 279 179 292"/>
<path stroke-width="0.5" stroke="gray" d="M 420 305 402 302"/>
<path stroke-width="0.5" stroke="gray" d="M 420 305 418 316"/>
<path stroke-width="0.5" stroke="gray" d="M 420 305 420 305"/>
<path stroke-width="0.5" stroke="gray" d="M 420 305 400 320"/>
<path stroke-width="0.5" stroke="gray" d="M 420 305 391 310"/>
<path stroke-width="0.5" stroke="gray" d="M 418 316 402 302"/>
<path stroke-width="0.5" stroke="gray" d="M 418 316 418 316"/>
<path stroke-width="0.5" stroke="gray" d="M 418 316 420 305"/>
<path stroke-width="0.5" stroke="gray" d="M 418 316 400 320"/>
<path stroke-width="0.5" stroke="gray" d="M 418 316 391 310"/>
<path stroke-width="0.5" stroke="gray" d="M 402 302 402 302"/>
<path stroke-width="0.5" stroke="gray" d="M 402 302 418 316"/>
<path stroke-width="0.5" stroke="gray" d="M 402 302 420 305"/>
<path stroke-width="0.5" stroke="gray" d="M 402 302 400 320"/>
<path stroke-width="0.5" stroke="gray" d="M 402 302 391 310"/>
<path stroke-width="0.5" stroke="gray" d="M 177 260 179 278"/>
<path stroke-width="0.5" stroke="gray" d="M 177 260 162 279"/>
<path stroke-width="0.5" stroke="gray" d="M 177 260 156 262"/>
<path stroke-width="0.5" stroke="gray" d="M 177 260 177 260"/>
<path stroke-width="0.5" stroke="gray" d="M 156 262 179 278"/>
<path stroke-width="0.5" stroke="gray" d="M 156 262 162 279"/>
<path stroke-width="0.5" stroke="gray" d="M 156 262 156 262"/>
<path stroke-width="0.5" stroke="gray" d="M 156 262 177 260"/>
<path stroke-width="10.25" stroke="gray" d="M 162 279 179 278"/>
<path stroke-width="20.0" stroke="gray" d="M 162 279 162 279"/>
<path stroke-width="0.5" stroke="gray" d="M 162 279 156 262"/>
<path stroke-width="0.5" stroke="gray" d="M 162 279 177 260"/>
<path stroke-width="0.5" stroke="gray" d="M 162 279 154 297"/>
<path stroke-width="0.5" stroke="gray" d="M 162 279 149 288"/>
<path stroke-width="0.5" stroke="gray" d="M 162 279 169 299"/>
<path stroke-width="0.5" stroke="gray" d="M 332 96 355 102"/>
<circle cx="51" cy="132" r="7.0" style="fill:rgb(231, 214, 204);stroke:black;stroke-width:1.0"/>
<circle cx="34" cy="123" r="7.0" style="fill:rgb(231, 214, 204);stroke:black;stroke-width:1.0"/>
<circle cx="36" cy="141" r="7.0" style="fill:rgb(231, 214, 204);stroke:black;stroke-width:1.0"/>
<circle cx="20" cy="133" r="7.0" style="fill:rgb(231, 214, 204);stroke:black;stroke-width:1.0"/>
<circle cx="179" cy="278" r="7.0" style="fill:rgb(179, 3, 38);stroke:black;stroke-width:1.0"/>
<circle cx="222" cy="268" r="7.0" style="fill:rgb(58, 76, 192);stroke:black;stroke-width:1.0"/>
<circle cx="126" cy="32" r="7.0" style="fill:rgb(245, 193, 168);stroke:black;stroke-width:1.0"/>
<circle cx="162" cy="279" r="7.0" style="fill:rgb(214, 82, 67);stroke:black;stroke-width:1.0"/>
<circle cx="156" cy="262" r="7.0" style="fill:rgb(148, 181, 254);stroke:black;stroke-width:1.0"/>
<circle cx="177" cy="260" r="7.0" style="fill:rgb(148, 181, 254);stroke:black;stroke-width:1.0"/>
<circle cx="402" cy="302" r="7.0" style="fill:rgb(231, 214, 204);stroke:black;stroke-width:1.0"/>
<circle cx="418" cy="316" r="7.0" style="fill:rgb(231, 214, 204);stroke:black;stroke-width:1.0"/>
<circle cx="420" cy="305" r="7.0" style="fill:rgb(231, 214, 204);stroke:black;stroke-width:1.0"/>
<circle cx="400" cy="320" r="7.0" style="fill:rgb(231, 214, 204);stroke:black;stroke-width:1.0"/>
<circle cx="391" cy="310" r="7.0" style="fill:rgb(231, 214, 204);stroke:black;stroke-width:1.0"/>
<circle cx="154" cy="297" r="7.0" style="fill:rgb(217, 220, 224);stroke:black;stroke-width:1.0"/>
<circle cx="149" cy="288" r="7.0" style="fill:rgb(217, 220, 224);stroke:black;stroke-width:1.0"/>
<circle cx="179" cy="292" r="7.0" style="fill:rgb(217, 220, 224);stroke:black;stroke-width:1.0"/>
<circle cx="169" cy="299" r="7.0" style="fill:rgb(217, 220, 224);stroke:black;stroke-width:1.0"/>
<circle cx="138" cy="173" r="7.0" style="fill:rgb(231, 214, 204);stroke:black;stroke-width:1.0"/>
<circle cx="131" cy="187" r="7.0" style="fill:rgb(231, 214, 204);stroke:black;stroke-width:1.0"/>
<circle cx="157" cy="182" r="7.0" style="fill:rgb(231, 214, 204);stroke:black;stroke-width:1.0"/>
<circle cx="109" cy="37" r="7.0" style="fill:rgb(227, 217, 211);stroke:black;stroke-width:1.0"/>
<circle cx="104" cy="20" r="7.0" style="fill:rgb(227, 217, 211);stroke:black;stroke-width:1.0"/>
<circle cx="123" cy="21" r="7.0" style="fill:rgb(227, 217, 211);stroke:black;stroke-width:1.0"/>
<circle cx="95" cy="29" r="7.0" style="fill:rgb(227, 217, 211);stroke:black;stroke-width:1.0"/>
<circle cx="355" cy="102" r="7.0" style="fill:rgb(231, 214, 204);stroke:black;stroke-width:1.0"/>
<circle cx="332" cy="96" r="7.0" style="fill:rgb(231, 214, 204);stroke:black;stroke-width:1.0"/>
<text x="61" y="139" font-size="12">general</text><text x="44" y="130" font-size="12">cornell university</text><text x="46" y="148" font-size="12">pdf</text><text x="30" y="140" font-size="12">mako</text><text x="189" y="285" font-size="12">species</text><text x="232" y="275" font-size="12">angel sharks</text><text x="136" y="39" font-size="12">gps</text><text x="172" y="286" font-size="12">fish</text><text x="166" y="269" font-size="12">benthic</text><text x="187" y="267" font-size="12">bivalves</text><text x="412" y="309" font-size="12">anal fin</text><text x="428" y="323" font-size="12">propel</text><text x="430" y="312" font-size="12">caudal fin</text><text x="410" y="327" font-size="12">fin</text><text x="401" y="317" font-size="12">shark anatomy</text><text x="164" y="304" font-size="12">goblin shark</text><text x="159" y="295" font-size="12">sand</text><text x="189" y="299" font-size="12">tiger</text><text x="179" y="306" font-size="12">great white shark</text><text x="148" y="180" font-size="12">gill</text><text x="141" y="194" font-size="12">predator</text><text x="167" y="189" font-size="12">pacific ocean</text><text x="119" y="44" font-size="12">life expectancy</text><text x="114" y="27" font-size="12">hammerhead sharks</text><text x="133" y="28" font-size="12">whale sharks</text><text x="105" y="36" font-size="12">rhincodon typus</text><text x="365" y="109" font-size="12">predatory</text><text x="342" y="103" font-size="12">people!</text></svg>
