<svg width="596.0" height="340" xmlns="http://www.w3.org/2000/svg">
<path stroke-width="9.6" stroke="gray" d="M 147 266 170 271"/>
<path stroke-width="3.1" stroke="gray" d="M 57 276 159 272"/>
<path stroke-width="1.8" stroke="gray" d="M 57 276 170 271"/>
<path stroke-width="1.8" stroke="gray" d="M 238 291 147 266"/>
<path stroke-width="3.1" stroke="gray" d="M 238 291 159 272"/>
<path stroke-width="1.8" stroke="gray" d="M 238 291 170 271"/>
<path stroke-width="1.8" stroke="gray" d="M 206 302 147 266"/>
<path stroke-width="3.1" stroke="gray" d="M 206 302 159 272"/>
<path stroke-width="1.8" stroke="gray" d="M 206 302 170 271"/>
<path stroke-width="1.8" stroke="gray" d="M 81 239 147 266"/>
<path stroke-width="3.1" stroke="gray" d="M 81 239 159 272"/>
<path stroke-width="1.8" stroke="gray" d="M 81 239 170 271"/>
<path stroke-width="1.8" stroke="gray" d="M 96 301 147 266"/>
<path stroke-width="3.1" stroke="gray" d="M 96 301 159 272"/>
<path stroke-width="1.8" stroke="gray" d="M 96 301 170 271"/>
<path stroke-width="3.1" stroke="gray" d="M 106 285 147 266"/>
<path stroke-width="1.8" stroke="gray" d="M 57 276 147 266"/>
<path stroke-width="1.8" stroke="gray" d="M 156 305 170 271"/>
<path stroke-width="3.1" stroke="gray" d="M 156 305 159 272"/>
<path stroke-width="1.8" stroke="gray" d="M 156 305 147 266"/>
<path stroke-width="3.1" stroke="gray" d="M 199 231 170 271"/>
<path stroke-width="0.5" stroke="gray" d="M 194 320 147 266"/>
<path stroke-width="1.8" stroke="gray" d="M 194 320 159 272"/>
<path stroke-width="1.8" stroke="gray" d="M 194 320 170 271"/>
<path stroke-width="1.8" stroke="gray" d="M 40 295 147 266"/>
<path stroke-width="1.8" stroke="gray" d="M 40 295 159 272"/>
<path stroke-width="0.5" stroke="gray" d="M 40 295 170 271"/>
<path stroke-width="5.7" stroke="gray" d="M 106 285 159 272"/>
<path stroke-width="1.8" stroke="gray" d="M 20 264 147 266"/>
<path stroke-width="0.5" stroke="gray" d="M 20 264 170 271"/>
<path stroke-width="1.8" stroke="gray" d="M 235 272 147 266"/>
<path stroke-width="3.1" stroke="gray" d="M 235 272 159 272"/>
<path stroke-width="1.8" stroke="gray" d="M 235 272 170 271"/>
<path stroke-width="1.8" stroke="gray" d="M 116 231 147 266"/>
<path stroke-width="3.1" stroke="gray" d="M 116 231 159 272"/>
<path stroke-width="1.8" stroke="gray" d="M 116 231 170 271"/>
<path stroke-width="1.8" stroke="gray" d="M 20 264 159 272"/>
<path stroke-width="4.4" stroke="gray" d="M 106 285 170 271"/>
<path stroke-width="1.8" stroke="gray" d="M 61 253 147 266"/>
<path stroke-width="3.1" stroke="gray" d="M 61 253 159 272"/>
<path stroke-width="1.8" stroke="gray" d="M 288 257 159 272"/>
<path stroke-width="0.5" stroke="gray" d="M 288 257 170 271"/>
<path stroke-width="1.8" stroke="gray" d="M 263 237 147 266"/>
<path stroke-width="1.8" stroke="gray" d="M 263 237 159 272"/>
<path stroke-width="0.5" stroke="gray" d="M 263 237 170 271"/>
<path stroke-width="1.8" stroke="gray" d="M 117 318 147 266"/>
<path stroke-width="1.8" stroke="gray" d="M 117 318 159 272"/>
<path stroke-width="1.8" stroke="gray" d="M 288 257 147 266"/>
<path stroke-width="0.5" stroke="gray" d="M 117 318 170 271"/>
<path stroke-width="1.8" stroke="gray" d="M 273 299 159 272"/>
<path stroke-width="0.5" stroke="gray" d="M 273 299 170 271"/>
<path stroke-width="3.1" stroke="gray" d="M 156 228 147 266"/>
<path stroke-width="3.1" stroke="gray" d="M 156 228 159 272"/>
<path stroke-width="0.5" stroke="gray" d="M 156 228 170 271"/>
<path stroke-width="16.1" stroke="gray" d="M 147 266 147 266"/>
<path stroke-width="20.0" stroke="gray" d="M 147 266 159 272"/>
<path stroke-width="1.8" stroke="gray" d="M 273 299 147 266"/>
<path stroke-width="3.1" stroke="gray" d="M 199 231 159 272"/>
<path stroke-width="12.2" stroke="gray" d="M 159 272 170 271"/>
<path stroke-width="13.5" stroke="gray" d="M 159 272 147 266"/>
<path stroke-width="1.8" stroke="gray" d="M 61 253 170 271"/>
<path stroke-width="7.0" stroke="gray" d="M 159 251 147 266"/>
<path stroke-width="10.9" stroke="gray" d="M 159 251 159 272"/>
<path stroke-width="7.0" stroke="gray" d="M 159 251 170 271"/>
<path stroke-width="5.7" stroke="gray" d="M 112 261 147 266"/>
<path stroke-width="9.6" stroke="gray" d="M 112 261 159 272"/>
<path stroke-width="7.0" stroke="gray" d="M 112 261 170 271"/>
<path stroke-width="18.7" stroke="gray" d="M 159 272 159 272"/>
<path stroke-width="1.8" stroke="gray" d="M 225 245 147 266"/>
<path stroke-width="1.8" stroke="gray" d="M 225 245 170 271"/>
<path stroke-width="8.3" stroke="gray" d="M 170 271 147 266"/>
<path stroke-width="14.8" stroke="gray" d="M 170 271 159 272"/>
<path stroke-width="10.9" stroke="gray" d="M 170 271 170 271"/>
<path stroke-width="1.8" stroke="gray" d="M 269 273 147 266"/>
<path stroke-width="3.1" stroke="gray" d="M 269 273 159 272"/>
<path stroke-width="1.8" stroke="gray" d="M 269 273 170 271"/>
<path stroke-width="3.1" stroke="gray" d="M 225 245 159 272"/>
<path stroke-width="0.5" stroke="gray" d="M 199 231 147 266"/>
<circle cx="147" cy="266" r="7.0" style="fill:rgb(207, 70, 61);stroke:black;stroke-width:1.0"/>
<circle cx="420" cy="20" r="7.0" style="fill:rgb(58, 76, 192);stroke:black;stroke-width:1.0"/>
<circle cx="156" cy="228" r="7.0" style="fill:rgb(58, 76, 192);stroke:black;stroke-width:1.0"/>
<circle cx="273" cy="299" r="7.0" style="fill:rgb(58, 76, 192);stroke:black;stroke-width:1.0"/>
<circle cx="117" cy="318" r="7.0" style="fill:rgb(58, 76, 192);stroke:black;stroke-width:1.0"/>
<circle cx="263" cy="237" r="7.0" style="fill:rgb(58, 76, 192);stroke:black;stroke-width:1.0"/>
<circle cx="288" cy="257" r="7.0" style="fill:rgb(58, 76, 192);stroke:black;stroke-width:1.0"/>
<circle cx="159" cy="272" r="7.0" style="fill:rgb(179, 3, 38);stroke:black;stroke-width:1.0"/>
<circle cx="269" cy="273" r="7.0" style="fill:rgb(58, 76, 192);stroke:black;stroke-width:1.0"/>
<circle cx="170" cy="271" r="7.0" style="fill:rgb(217, 88, 71);stroke:black;stroke-width:1.0"/>
<circle cx="225" cy="245" r="7.0" style="fill:rgb(58, 76, 192);stroke:black;stroke-width:1.0"/>
<circle cx="112" cy="261" r="7.0" style="fill:rgb(58, 76, 192);stroke:black;stroke-width:1.0"/>
<circle cx="159" cy="251" r="7.0" style="fill:rgb(58, 76, 192);stroke:black;stroke-width:1.0"/>
<circle cx="61" cy="253" r="7.0" style="fill:rgb(58, 76, 192);stroke:black;stroke-width:1.0"/>
<circle cx="106" cy="285" r="7.0" style="fill:rgb(58, 76, 192);stroke:black;stroke-width:1.0"/>
<circle cx="96" cy="301" r="7.0" style="fill:rgb(58, 76, 192);stroke:black;stroke-width:1.0"/>
<circle cx="81" cy="239" r="7.0" style="fill:rgb(58, 76, 192);stroke:black;stroke-width:1.0"/>
<circle cx="206" cy="302" r="7.0" style="fill:rgb(58, 76, 192);stroke:black;stroke-width:1.0"/>
<circle cx="238" cy="291" r="7.0" style="fill:rgb(58, 76, 192);stroke:black;stroke-width:1.0"/>
<circle cx="57" cy="276" r="7.0" style="fill:rgb(58, 76, 192);stroke:black;stroke-width:1.0"/>
<circle cx="156" cy="305" r="7.0" style="fill:rgb(58, 76, 192);stroke:black;stroke-width:1.0"/>
<circle cx="116" cy="231" r="7.0" style="fill:rgb(58, 76, 192);stroke:black;stroke-width:1.0"/>
<circle cx="235" cy="272" r="7.0" style="fill:rgb(58, 76, 192);stroke:black;stroke-width:1.0"/>
<circle cx="20" cy="264" r="7.0" style="fill:rgb(58, 76, 192);stroke:black;stroke-width:1.0"/>
<circle cx="40" cy="295" r="7.0" style="fill:rgb(58, 76, 192);stroke:black;stroke-width:1.0"/>
<circle cx="194" cy="320" r="7.0" style="fill:rgb(58, 76, 192);stroke:black;stroke-width:1.0"/>
<circle cx="199" cy="231" r="7.0" style="fill:rgb(58, 76, 192);stroke:black;stroke-width:1.0"/>
<text x="157" y="273" font-size="12">lung cancer</text><text x="430" y="27" font-size="12">granuloma</text><text x="166" y="235" font-size="12">cough</text><text x="283" y="306" font-size="12">pain</text><text x="127" y="325" font-size="12">sputum</text><text x="273" y="244" font-size="12">spit</text><text x="298" y="264" font-size="12">phlegm</text><text x="169" y="279" font-size="12">cancer</text><text x="279" y="280" font-size="12">tumor</text><text x="180" y="278" font-size="12">small cell lung cancer</text><text x="235" y="252" font-size="12">sclc</text><text x="122" y="268" font-size="12">lung</text><text x="169" y="258" font-size="12">non-small cell lung cancer</text><text x="71" y="260" font-size="12">adenocarcinoma</text><text x="116" y="292" font-size="12">carcinoma</text><text x="106" y="308" font-size="12">carcinoid</text><text x="91" y="246" font-size="12">microscope</text><text x="216" y="309" font-size="12">lymph nodes</text><text x="248" y="298" font-size="12">chemotherapy</text><text x="67" y="283" font-size="12">radiation therapy</text><text x="166" y="312" font-size="12">targeted therapy</text><text x="126" y="238" font-size="12">x-rays</text><text x="245" y="279" font-size="12">chest pain</text><text x="30" y="271" font-size="12">wheezing</text><text x="50" y="302" font-size="12">weight loss</text><text x="204" y="327" font-size="12">bronchi</text><text x="209" y="238" font-size="12">prognosis</text></svg>
