<svg width="578.0" height="340" xmlns="http://www.w3.org/2000/svg">
<path stroke-width="5.375" stroke="gray" d="M 224 199 245 178"/>
<path stroke-width="2.9375" stroke="gray" d="M 304 193 245 178"/>
<path stroke-width="4.15625" stroke="gray" d="M 171 132 224 199"/>
<path stroke-width="5.375" stroke="gray" d="M 171 132 227 178"/>
<path stroke-width="2.9375" stroke="gray" d="M 171 132 245 178"/>
<path stroke-width="0.5" stroke="gray" d="M 126 46 227 178"/>
<path stroke-width="0.5" stroke="gray" d="M 126 46 245 178"/>
<path stroke-width="0.5" stroke="gray" d="M 126 46 274 157"/>
<path stroke-width="0.5" stroke="gray" d="M 420 87 227 178"/>
<path stroke-width="0.5" stroke="gray" d="M 420 87 245 178"/>
<path stroke-width="0.5" stroke="gray" d="M 420 87 274 157"/>
<path stroke-width="0.5" stroke="gray" d="M 311 20 227 178"/>
<path stroke-width="0.5" stroke="gray" d="M 311 20 245 178"/>
<path stroke-width="5.375" stroke="gray" d="M 304 193 227 178"/>
<path stroke-width="0.5" stroke="gray" d="M 311 20 274 157"/>
<path stroke-width="7.8125" stroke="gray" d="M 206 142 227 178"/>
<path stroke-width="5.375" stroke="gray" d="M 206 142 245 178"/>
<path stroke-width="2.9375" stroke="gray" d="M 150 169 224 199"/>
<path stroke-width="5.375" stroke="gray" d="M 150 169 227 178"/>
<path stroke-width="4.15625" stroke="gray" d="M 150 169 245 178"/>
<path stroke-width="5.375" stroke="gray" d="M 252 233 224 199"/>
<path stroke-width="7.8125" stroke="gray" d="M 252 233 227 178"/>
<path stroke-width="5.375" stroke="gray" d="M 252 233 245 178"/>
<path stroke-width="0.5" stroke="gray" d="M 300 320 224 199"/>
<path stroke-width="0.5" stroke="gray" d="M 300 320 227 178"/>
<path stroke-width="0.5" stroke="gray" d="M 300 320 245 178"/>
<path stroke-width="0.5" stroke="gray" d="M 300 320 274 157"/>
<path stroke-width="5.375" stroke="gray" d="M 206 142 224 199"/>
<path stroke-width="4.15625" stroke="gray" d="M 304 193 224 199"/>
<path stroke-width="2.9375" stroke="gray" d="M 154 211 245 178"/>
<path stroke-width="5.375" stroke="gray" d="M 154 211 227 178"/>
<path stroke-width="1.71875" stroke="gray" d="M 100 128 245 178"/>
<path stroke-width="0.5" stroke="gray" d="M 370 205 224 199"/>
<path stroke-width="1.71875" stroke="gray" d="M 370 205 227 178"/>
<path stroke-width="1.71875" stroke="gray" d="M 370 205 245 178"/>
<path stroke-width="0.5" stroke="gray" d="M 126 270 224 199"/>
<path stroke-width="1.71875" stroke="gray" d="M 126 270 227 178"/>
<path stroke-width="1.71875" stroke="gray" d="M 126 270 245 178"/>
<path stroke-width="0.5" stroke="gray" d="M 324 64 224 199"/>
<path stroke-width="0.5" stroke="gray" d="M 324 64 227 178"/>
<path stroke-width="0.5" stroke="gray" d="M 324 64 245 178"/>
<path stroke-width="0.5" stroke="gray" d="M 324 64 274 157"/>
<path stroke-width="0.5" stroke="gray" d="M 394 127 224 199"/>
<path stroke-width="0.5" stroke="gray" d="M 394 127 227 178"/>
<path stroke-width="0.5" stroke="gray" d="M 394 127 245 178"/>
<path stroke-width="0.5" stroke="gray" d="M 394 127 274 157"/>
<path stroke-width="0.5" stroke="gray" d="M 86 226 224 199"/>
<path stroke-width="0.5" stroke="gray" d="M 86 226 227 178"/>
<path stroke-width="0.5" stroke="gray" d="M 86 226 245 178"/>
<path stroke-width="0.5" stroke="gray" d="M 86 226 274 157"/>
<path stroke-width="0.5" stroke="gray" d="M 378 267 224 199"/>
<path stroke-width="0.5" stroke="gray" d="M 378 267 227 178"/>
<path stroke-width="0.5" stroke="gray" d="M 378 267 245 178"/>
<path stroke-width="0.5" stroke="gray" d="M 378 267 274 157"/>
<path stroke-width="1.71875" stroke="gray" d="M 179 275 224 199"/>
<path stroke-width="2.9375" stroke="gray" d="M 179 275 227 178"/>
<path stroke-width="1.71875" stroke="gray" d="M 179 275 245 178"/>
<path stroke-width="4.15625" stroke="gray" d="M 154 211 224 199"/>
<path stroke-width="0.5" stroke="gray" d="M 74 175 224 199"/>
<path stroke-width="0.5" stroke="gray" d="M 74 175 227 178"/>
<path stroke-width="0.5" stroke="gray" d="M 74 175 245 178"/>
<path stroke-width="0.5" stroke="gray" d="M 74 175 274 157"/>
<path stroke-width="1.71875" stroke="gray" d="M 307 231 274 157"/>
<path stroke-width="0.5" stroke="gray" d="M 253 285 224 199"/>
<path stroke-width="1.71875" stroke="gray" d="M 253 285 227 178"/>
<path stroke-width="1.71875" stroke="gray" d="M 253 285 245 178"/>
<path stroke-width="0.5" stroke="gray" d="M 253 285 274 157"/>
<path stroke-width="2.9375" stroke="gray" d="M 274 157 224 199"/>
<path stroke-width="5.375" stroke="gray" d="M 274 157 227 178"/>
<path stroke-width="5.375" stroke="gray" d="M 274 157 245 178"/>
<path stroke-width="4.15625" stroke="gray" d="M 274 157 274 157"/>
<path stroke-width="5.375" stroke="gray" d="M 245 178 224 199"/>
<path stroke-width="11.46875" stroke="gray" d="M 245 178 227 178"/>
<path stroke-width="10.25" stroke="gray" d="M 245 178 245 178"/>
<path stroke-width="1.71875" stroke="gray" d="M 245 178 274 157"/>
<path stroke-width="0.5" stroke="gray" d="M 172 87 224 199"/>
<path stroke-width="1.71875" stroke="gray" d="M 172 87 227 178"/>
<path stroke-width="1.71875" stroke="gray" d="M 172 87 245 178"/>
<path stroke-width="0.5" stroke="gray" d="M 172 87 274 157"/>
<path stroke-width="0.5" stroke="gray" d="M 20 98 224 199"/>
<path stroke-width="0.5" stroke="gray" d="M 20 98 227 178"/>
<path stroke-width="0.5" stroke="gray" d="M 57 318 224 199"/>
<path stroke-width="0.5" stroke="gray" d="M 57 318 227 178"/>
<path stroke-width="15.125" stroke="gray" d="M 227 178 224 199"/>
<path stroke-width="20.0" stroke="gray" d="M 227 178 227 178"/>
<path stroke-width="15.125" stroke="gray" d="M 227 178 245 178"/>
<path stroke-width="2.9375" stroke="gray" d="M 227 178 274 157"/>
<path stroke-width="11.46875" stroke="gray" d="M 224 199 224 199"/>
<path stroke-width="12.6875" stroke="gray" d="M 224 199 227 178"/>
<path stroke-width="2.9375" stroke="gray" d="M 307 231 245 178"/>
<path stroke-width="1.71875" stroke="gray" d="M 100 128 227 178"/>
<path stroke-width="2.9375" stroke="gray" d="M 307 231 227 178"/>
<path stroke-width="0.5" stroke="gray" d="M 362 161 274 157"/>
<path stroke-width="0.5" stroke="gray" d="M 414 219 224 199"/>
<path stroke-width="0.5" stroke="gray" d="M 414 219 227 178"/>
<path stroke-width="0.5" stroke="gray" d="M 414 219 245 178"/>
<path stroke-width="0.5" stroke="gray" d="M 414 219 274 157"/>
<path stroke-width="0.5" stroke="gray" d="M 263 86 224 199"/>
<path stroke-width="1.71875" stroke="gray" d="M 263 86 227 178"/>
<path stroke-width="1.71875" stroke="gray" d="M 263 86 245 178"/>
<path stroke-width="1.71875" stroke="gray" d="M 263 86 274 157"/>
<path stroke-width="1.71875" stroke="gray" d="M 199 316 224 199"/>
<path stroke-width="1.71875" stroke="gray" d="M 199 316 227 178"/>
<path stroke-width="0.5" stroke="gray" d="M 199 316 245 178"/>
<path stroke-width="1.71875" stroke="gray" d="M 314 285 224 199"/>
<path stroke-width="1.71875" stroke="gray" d="M 314 285 227 178"/>
<path stroke-width="0.5" stroke="gray" d="M 314 285 245 178"/>
<path stroke-width="1.71875" stroke="gray" d="M 208 63 224 199"/>
<path stroke-width="1.71875" stroke="gray" d="M 208 63 227 178"/>
<path stroke-width="0.5" stroke="gray" d="M 208 63 245 178"/>
<path stroke-width="6.59375" stroke="gray" d="M 202 236 224 199"/>
<path stroke-width="7.8125" stroke="gray" d="M 202 236 227 178"/>
<path stroke-width="4.15625" stroke="gray" d="M 202 236 245 178"/>
<path stroke-width="0.5" stroke="gray" d="M 325 112 224 199"/>
<path stroke-width="1.71875" stroke="gray" d="M 325 112 227 178"/>
<path stroke-width="1.71875" stroke="gray" d="M 325 112 245 178"/>
<path stroke-width="0.5" stroke="gray" d="M 325 112 274 157"/>
<path stroke-width="0.5" stroke="gray" d="M 362 161 224 199"/>
<path stroke-width="1.71875" stroke="gray" d="M 362 161 227 178"/>
<path stroke-width="1.71875" stroke="gray" d="M 362 161 245 178"/>
<path stroke-width="1.71875" stroke="gray" d="M 307 231 224 199"/>
<path stroke-width="0.5" stroke="gray" d="M 100 128 224 199"/>
<circle cx="224" cy="199" r="7.0" style="fill:rgb(207, 70, 61);stroke:black;stroke-width:1.0"/>
<circle cx="227" cy="178" r="7.0" style="fill:rgb(179, 3, 38);stroke:black;stroke-width:1.0"/>
<circle cx="57" cy="318" r="7.0" style="fill:rgb(58, 76, 192);stroke:black;stroke-width:1.0"/>
<circle cx="20" cy="98" r="7.0" style="fill:rgb(58, 76, 192);stroke:black;stroke-width:1.0"/>
<circle cx="172" cy="87" r="7.0" style="fill:rgb(58, 76, 192);stroke:black;stroke-width:1.0"/>
<circle cx="245" cy="178" r="7.0" style="fill:rgb(207, 70, 61);stroke:black;stroke-width:1.0"/>
<circle cx="274" cy="157" r="7.0" style="fill:rgb(244, 195, 171);stroke:black;stroke-width:1.0"/>
<circle cx="253" cy="285" r="7.0" style="fill:rgb(58, 76, 192);stroke:black;stroke-width:1.0"/>
<circle cx="307" cy="231" r="7.0" style="fill:rgb(58, 76, 192);stroke:black;stroke-width:1.0"/>
<circle cx="362" cy="161" r="7.0" style="fill:rgb(58, 76, 192);stroke:black;stroke-width:1.0"/>
<circle cx="325" cy="112" r="7.0" style="fill:rgb(58, 76, 192);stroke:black;stroke-width:1.0"/>
<circle cx="202" cy="236" r="7.0" style="fill:rgb(58, 76, 192);stroke:black;stroke-width:1.0"/>
<circle cx="208" cy="63" r="7.0" style="fill:rgb(58, 76, 192);stroke:black;stroke-width:1.0"/>
<circle cx="314" cy="285" r="7.0" style="fill:rgb(58, 76, 192);stroke:black;stroke-width:1.0"/>
<circle cx="199" cy="316" r="7.0" style="fill:rgb(58, 76, 192);stroke:black;stroke-width:1.0"/>
<circle cx="263" cy="86" r="7.0" style="fill:rgb(58, 76, 192);stroke:black;stroke-width:1.0"/>
<circle cx="414" cy="219" r="7.0" style="fill:rgb(58, 76, 192);stroke:black;stroke-width:1.0"/>
<circle cx="74" cy="175" r="7.0" style="fill:rgb(58, 76, 192);stroke:black;stroke-width:1.0"/>
<circle cx="300" cy="320" r="7.0" style="fill:rgb(58, 76, 192);stroke:black;stroke-width:1.0"/>
<circle cx="252" cy="233" r="7.0" style="fill:rgb(58, 76, 192);stroke:black;stroke-width:1.0"/>
<circle cx="150" cy="169" r="7.0" style="fill:rgb(58, 76, 192);stroke:black;stroke-width:1.0"/>
<circle cx="206" cy="142" r="7.0" style="fill:rgb(58, 76, 192);stroke:black;stroke-width:1.0"/>
<circle cx="311" cy="20" r="7.0" style="fill:rgb(58, 76, 192);stroke:black;stroke-width:1.0"/>
<circle cx="420" cy="87" r="7.0" style="fill:rgb(58, 76, 192);stroke:black;stroke-width:1.0"/>
<circle cx="126" cy="46" r="7.0" style="fill:rgb(58, 76, 192);stroke:black;stroke-width:1.0"/>
<circle cx="171" cy="132" r="7.0" style="fill:rgb(58, 76, 192);stroke:black;stroke-width:1.0"/>
<circle cx="304" cy="193" r="7.0" style="fill:rgb(58, 76, 192);stroke:black;stroke-width:1.0"/>
<circle cx="154" cy="211" r="7.0" style="fill:rgb(58, 76, 192);stroke:black;stroke-width:1.0"/>
<circle cx="179" cy="275" r="7.0" style="fill:rgb(58, 76, 192);stroke:black;stroke-width:1.0"/>
<circle cx="378" cy="267" r="7.0" style="fill:rgb(58, 76, 192);stroke:black;stroke-width:1.0"/>
<circle cx="86" cy="226" r="7.0" style="fill:rgb(58, 76, 192);stroke:black;stroke-width:1.0"/>
<circle cx="394" cy="127" r="7.0" style="fill:rgb(58, 76, 192);stroke:black;stroke-width:1.0"/>
<circle cx="324" cy="64" r="7.0" style="fill:rgb(58, 76, 192);stroke:black;stroke-width:1.0"/>
<circle cx="126" cy="270" r="7.0" style="fill:rgb(58, 76, 192);stroke:black;stroke-width:1.0"/>
<circle cx="370" cy="205" r="7.0" style="fill:rgb(58, 76, 192);stroke:black;stroke-width:1.0"/>
<circle cx="100" cy="128" r="7.0" style="fill:rgb(58, 76, 192);stroke:black;stroke-width:1.0"/>
<text x="234" y="206" font-size="12">throat cancer</text><text x="237" y="185" font-size="12">esophageal cancer</text><text x="67" y="325" font-size="12">larynx cancer</text><text x="30" y="105" font-size="12">laryngeal cancer</text><text x="182" y="94" font-size="12">malignant</text><text x="255" y="185" font-size="12">cancer</text><text x="284" y="164" font-size="12">esophagus</text><text x="263" y="292" font-size="12">carcinoma</text><text x="317" y="238" font-size="12">adenocarcinoma</text><text x="372" y="168" font-size="12">mucus</text><text x="335" y="119" font-size="12">pubmed</text><text x="212" y="243" font-size="12">oral cancer</text><text x="218" y="70" font-size="12">difficulty swallowing</text><text x="324" y="292" font-size="12">dysphagia</text><text x="209" y="323" font-size="12">pain</text><text x="273" y="93" font-size="12">stomach</text><text x="424" y="226" font-size="12">gastrointestinal cancer</text><text x="84" y="182" font-size="12">asia</text><text x="310" y="327" font-size="12">africa</text><text x="262" y="240" font-size="12">smoking</text><text x="160" y="176" font-size="12">bladder cancer</text><text x="216" y="149" font-size="12">lung cancer</text><text x="321" y="27" font-size="12">esophageal</text><text x="430" y="94" font-size="12">windpipe</text><text x="136" y="53" font-size="12">trachea</text><text x="181" y="139" font-size="12">cigar</text><text x="314" y="200" font-size="12">lip</text><text x="164" y="218" font-size="12">cigarette</text><text x="189" y="282" font-size="12">pancreas</text><text x="388" y="274" font-size="12">colorectal cancer</text><text x="96" y="233" font-size="12">intestinal gland</text><text x="404" y="134" font-size="12">colon</text><text x="334" y="71" font-size="12">rectum</text><text x="136" y="277" font-size="12">metastasized</text><text x="380" y="212" font-size="12">metastatic</text><text x="110" y="135" font-size="12">liver</text></svg>
