<svg width="578.0" height="340" xmlns="http://www.w3.org/2000/svg">
<path stroke-width="15.256756756756756" stroke="gray" d="M 226 149 205 149"/>
<path stroke-width="3.6621621621621623" stroke="gray" d="M 312 208 231 135"/>
<path stroke-width="1.554054054054054" stroke="gray" d="M 312 208 233 171"/>
<path stroke-width="1.554054054054054" stroke="gray" d="M 312 208 256 159"/>
<path stroke-width="3.6621621621621623" stroke="gray" d="M 312 208 234 155"/>
<path stroke-width="3.6621621621621623" stroke="gray" d="M 312 208 226 149"/>
<path stroke-width="3.6621621621621623" stroke="gray" d="M 359 142 205 149"/>
<path stroke-width="3.6621621621621623" stroke="gray" d="M 359 142 231 135"/>
<path stroke-width="1.554054054054054" stroke="gray" d="M 359 142 233 171"/>
<path stroke-width="1.554054054054054" stroke="gray" d="M 359 142 256 159"/>
<path stroke-width="3.6621621621621623" stroke="gray" d="M 359 142 234 155"/>
<path stroke-width="3.6621621621621623" stroke="gray" d="M 312 208 205 149"/>
<path stroke-width="3.6621621621621623" stroke="gray" d="M 359 142 226 149"/>
<path stroke-width="3.6621621621621623" stroke="gray" d="M 145 95 231 135"/>
<path stroke-width="1.554054054054054" stroke="gray" d="M 145 95 233 171"/>
<path stroke-width="1.554054054054054" stroke="gray" d="M 145 95 256 159"/>
<path stroke-width="3.6621621621621623" stroke="gray" d="M 145 95 234 155"/>
<path stroke-width="3.6621621621621623" stroke="gray" d="M 145 95 226 149"/>
<path stroke-width="4.716216216216216" stroke="gray" d="M 199 216 205 149"/>
<path stroke-width="4.716216216216216" stroke="gray" d="M 199 216 231 135"/>
<path stroke-width="2.608108108108108" stroke="gray" d="M 199 216 233 171"/>
<path stroke-width="2.608108108108108" stroke="gray" d="M 199 216 256 159"/>
<path stroke-width="4.716216216216216" stroke="gray" d="M 199 216 234 155"/>
<path stroke-width="3.6621621621621623" stroke="gray" d="M 145 95 205 149"/>
<path stroke-width="4.716216216216216" stroke="gray" d="M 199 216 226 149"/>
<path stroke-width="3.6621621621621623" stroke="gray" d="M 257 230 226 149"/>
<path stroke-width="1.554054054054054" stroke="gray" d="M 257 230 256 159"/>
<path stroke-width="3.135135135135135" stroke="gray" d="M 268 72 226 149"/>
<path stroke-width="1.554054054054054" stroke="gray" d="M 253 20 205 149"/>
<path stroke-width="1.554054054054054" stroke="gray" d="M 253 20 231 135"/>
<path stroke-width="0.5" stroke="gray" d="M 253 20 233 171"/>
<path stroke-width="0.5" stroke="gray" d="M 253 20 256 159"/>
<path stroke-width="1.554054054054054" stroke="gray" d="M 253 20 234 155"/>
<path stroke-width="1.554054054054054" stroke="gray" d="M 253 20 226 149"/>
<path stroke-width="2.608108108108108" stroke="gray" d="M 326 104 205 149"/>
<path stroke-width="2.608108108108108" stroke="gray" d="M 326 104 231 135"/>
<path stroke-width="2.608108108108108" stroke="gray" d="M 326 104 233 171"/>
<path stroke-width="3.6621621621621623" stroke="gray" d="M 257 230 234 155"/>
<path stroke-width="2.608108108108108" stroke="gray" d="M 326 104 256 159"/>
<path stroke-width="3.6621621621621623" stroke="gray" d="M 326 104 226 149"/>
<path stroke-width="1.554054054054054" stroke="gray" d="M 141 34 205 149"/>
<path stroke-width="1.554054054054054" stroke="gray" d="M 141 34 231 135"/>
<path stroke-width="0.5" stroke="gray" d="M 141 34 233 171"/>
<path stroke-width="0.5" stroke="gray" d="M 141 34 256 159"/>
<path stroke-width="1.554054054054054" stroke="gray" d="M 141 34 234 155"/>
<path stroke-width="1.554054054054054" stroke="gray" d="M 141 34 226 149"/>
<path stroke-width="3.6621621621621623" stroke="gray" d="M 257 230 205 149"/>
<path stroke-width="3.6621621621621623" stroke="gray" d="M 257 230 231 135"/>
<path stroke-width="1.554054054054054" stroke="gray" d="M 257 230 233 171"/>
<path stroke-width="3.6621621621621623" stroke="gray" d="M 326 104 234 155"/>
<path stroke-width="1.027027027027027" stroke="gray" d="M 35 96 205 149"/>
<path stroke-width="1.027027027027027" stroke="gray" d="M 35 96 231 135"/>
<path stroke-width="0.5" stroke="gray" d="M 35 96 233 171"/>
<path stroke-width="0.5" stroke="gray" d="M 114 258 205 149"/>
<path stroke-width="0.5" stroke="gray" d="M 114 258 231 135"/>
<path stroke-width="1.554054054054054" stroke="gray" d="M 114 258 233 171"/>
<path stroke-width="1.554054054054054" stroke="gray" d="M 114 258 256 159"/>
<path stroke-width="1.554054054054054" stroke="gray" d="M 114 258 234 155"/>
<path stroke-width="1.554054054054054" stroke="gray" d="M 114 258 226 149"/>
<path stroke-width="0.5" stroke="gray" d="M 377 69 205 149"/>
<path stroke-width="0.5" stroke="gray" d="M 377 69 231 135"/>
<path stroke-width="1.554054054054054" stroke="gray" d="M 377 69 233 171"/>
<path stroke-width="1.554054054054054" stroke="gray" d="M 377 69 256 159"/>
<path stroke-width="0.5" stroke="gray" d="M 194 320 226 149"/>
<path stroke-width="1.554054054054054" stroke="gray" d="M 377 69 234 155"/>
<path stroke-width="0.5" stroke="gray" d="M 203 275 205 149"/>
<path stroke-width="0.5" stroke="gray" d="M 203 275 231 135"/>
<path stroke-width="1.554054054054054" stroke="gray" d="M 203 275 233 171"/>
<path stroke-width="1.554054054054054" stroke="gray" d="M 203 275 256 159"/>
<path stroke-width="1.554054054054054" stroke="gray" d="M 203 275 234 155"/>
<path stroke-width="1.554054054054054" stroke="gray" d="M 203 275 226 149"/>
<path stroke-width="0.5" stroke="gray" d="M 343 260 205 149"/>
<path stroke-width="0.5" stroke="gray" d="M 343 260 231 135"/>
<path stroke-width="1.554054054054054" stroke="gray" d="M 343 260 233 171"/>
<path stroke-width="1.554054054054054" stroke="gray" d="M 343 260 256 159"/>
<path stroke-width="1.554054054054054" stroke="gray" d="M 377 69 226 149"/>
<path stroke-width="0.5" stroke="gray" d="M 194 320 234 155"/>
<path stroke-width="0.5" stroke="gray" d="M 194 320 256 159"/>
<path stroke-width="0.5" stroke="gray" d="M 194 320 233 171"/>
<path stroke-width="0.5" stroke="gray" d="M 35 96 256 159"/>
<path stroke-width="1.027027027027027" stroke="gray" d="M 35 96 234 155"/>
<path stroke-width="1.027027027027027" stroke="gray" d="M 35 96 226 149"/>
<path stroke-width="1.027027027027027" stroke="gray" d="M 20 159 205 149"/>
<path stroke-width="1.027027027027027" stroke="gray" d="M 20 159 231 135"/>
<path stroke-width="0.5" stroke="gray" d="M 20 159 233 171"/>
<path stroke-width="0.5" stroke="gray" d="M 20 159 256 159"/>
<path stroke-width="1.027027027027027" stroke="gray" d="M 20 159 234 155"/>
<path stroke-width="1.027027027027027" stroke="gray" d="M 20 159 226 149"/>
<path stroke-width="1.027027027027027" stroke="gray" d="M 287 291 205 149"/>
<path stroke-width="1.027027027027027" stroke="gray" d="M 287 291 231 135"/>
<path stroke-width="0.5" stroke="gray" d="M 287 291 233 171"/>
<path stroke-width="0.5" stroke="gray" d="M 287 291 256 159"/>
<path stroke-width="1.027027027027027" stroke="gray" d="M 287 291 234 155"/>
<path stroke-width="1.027027027027027" stroke="gray" d="M 287 291 226 149"/>
<path stroke-width="2.608108108108108" stroke="gray" d="M 151 214 205 149"/>
<path stroke-width="2.608108108108108" stroke="gray" d="M 151 214 231 135"/>
<path stroke-width="3.135135135135135" stroke="gray" d="M 151 214 233 171"/>
<path stroke-width="3.135135135135135" stroke="gray" d="M 151 214 256 159"/>
<path stroke-width="4.1891891891891895" stroke="gray" d="M 151 214 234 155"/>
<path stroke-width="4.1891891891891895" stroke="gray" d="M 151 214 226 149"/>
<path stroke-width="0.5" stroke="gray" d="M 194 320 205 149"/>
<path stroke-width="0.5" stroke="gray" d="M 194 320 231 135"/>
<path stroke-width="3.135135135135135" stroke="gray" d="M 268 72 234 155"/>
<path stroke-width="1.554054054054054" stroke="gray" d="M 268 72 256 159"/>
<path stroke-width="1.554054054054054" stroke="gray" d="M 268 72 233 171"/>
<path stroke-width="3.135135135135135" stroke="gray" d="M 268 72 231 135"/>
<path stroke-width="3.6621621621621623" stroke="gray" d="M 358 183 234 155"/>
<path stroke-width="3.6621621621621623" stroke="gray" d="M 358 183 226 149"/>
<path stroke-width="14.72972972972973" stroke="gray" d="M 234 155 205 149"/>
<path stroke-width="14.72972972972973" stroke="gray" d="M 234 155 231 135"/>
<path stroke-width="14.72972972972973" stroke="gray" d="M 234 155 233 171"/>
<path stroke-width="14.72972972972973" stroke="gray" d="M 234 155 256 159"/>
<path stroke-width="19.472972972972972" stroke="gray" d="M 234 155 234 155"/>
<path stroke-width="19.472972972972972" stroke="gray" d="M 234 155 226 149"/>
<path stroke-width="3.6621621621621623" stroke="gray" d="M 256 159 205 149"/>
<path stroke-width="3.6621621621621623" stroke="gray" d="M 256 159 231 135"/>
<path stroke-width="3.6621621621621623" stroke="gray" d="M 358 183 256 159"/>
<path stroke-width="7.878378378378378" stroke="gray" d="M 256 159 233 171"/>
<path stroke-width="7.878378378378378" stroke="gray" d="M 256 159 234 155"/>
<path stroke-width="7.878378378378378" stroke="gray" d="M 256 159 226 149"/>
<path stroke-width="5.77027027027027" stroke="gray" d="M 233 171 205 149"/>
<path stroke-width="5.77027027027027" stroke="gray" d="M 233 171 231 135"/>
<path stroke-width="9.45945945945946" stroke="gray" d="M 233 171 233 171"/>
<path stroke-width="9.45945945945946" stroke="gray" d="M 233 171 256 159"/>
<path stroke-width="10.513513513513514" stroke="gray" d="M 233 171 234 155"/>
<path stroke-width="10.513513513513514" stroke="gray" d="M 233 171 226 149"/>
<path stroke-width="1.554054054054054" stroke="gray" d="M 107 164 205 149"/>
<path stroke-width="1.554054054054054" stroke="gray" d="M 107 164 231 135"/>
<path stroke-width="7.878378378378378" stroke="gray" d="M 256 159 256 159"/>
<path stroke-width="3.6621621621621623" stroke="gray" d="M 358 183 233 171"/>
<path stroke-width="1.554054054054054" stroke="gray" d="M 358 183 231 135"/>
<path stroke-width="1.554054054054054" stroke="gray" d="M 358 183 205 149"/>
<path stroke-width="15.256756756756756" stroke="gray" d="M 226 149 231 135"/>
<path stroke-width="15.256756756756756" stroke="gray" d="M 226 149 233 171"/>
<path stroke-width="15.256756756756756" stroke="gray" d="M 226 149 256 159"/>
<path stroke-width="20.0" stroke="gray" d="M 226 149 234 155"/>
<path stroke-width="20.0" stroke="gray" d="M 226 149 226 149"/>
<path stroke-width="0.5" stroke="gray" d="M 420 117 205 149"/>
<path stroke-width="0.5" stroke="gray" d="M 420 117 231 135"/>
<path stroke-width="1.554054054054054" stroke="gray" d="M 420 117 233 171"/>
<path stroke-width="1.554054054054054" stroke="gray" d="M 420 117 256 159"/>
<path stroke-width="1.554054054054054" stroke="gray" d="M 420 117 234 155"/>
<path stroke-width="1.554054054054054" stroke="gray" d="M 420 117 226 149"/>
<path stroke-width="0.5" stroke="gray" d="M 199 33 205 149"/>
<path stroke-width="0.5" stroke="gray" d="M 199 33 231 135"/>
<path stroke-width="1.554054054054054" stroke="gray" d="M 199 33 233 171"/>
<path stroke-width="1.554054054054054" stroke="gray" d="M 199 33 256 159"/>
<path stroke-width="1.554054054054054" stroke="gray" d="M 199 33 234 155"/>
<path stroke-width="1.554054054054054" stroke="gray" d="M 199 33 226 149"/>
<path stroke-width="1.554054054054054" stroke="gray" d="M 121 131 205 149"/>
<path stroke-width="1.554054054054054" stroke="gray" d="M 121 131 231 135"/>
<path stroke-width="3.6621621621621623" stroke="gray" d="M 121 131 233 171"/>
<path stroke-width="3.6621621621621623" stroke="gray" d="M 121 131 256 159"/>
<path stroke-width="3.6621621621621623" stroke="gray" d="M 121 131 234 155"/>
<path stroke-width="3.6621621621621623" stroke="gray" d="M 121 131 226 149"/>
<path stroke-width="3.6621621621621623" stroke="gray" d="M 107 164 233 171"/>
<path stroke-width="1.554054054054054" stroke="gray" d="M 343 260 234 155"/>
<path stroke-width="3.6621621621621623" stroke="gray" d="M 107 164 256 159"/>
<path stroke-width="3.6621621621621623" stroke="gray" d="M 107 164 226 149"/>
<path stroke-width="5.243243243243243" stroke="gray" d="M 205 149 256 159"/>
<path stroke-width="9.986486486486486" stroke="gray" d="M 205 149 234 155"/>
<path stroke-width="9.986486486486486" stroke="gray" d="M 205 149 226 149"/>
<path stroke-width="5.77027027027027" stroke="gray" d="M 209 91 205 149"/>
<path stroke-width="5.77027027027027" stroke="gray" d="M 209 91 231 135"/>
<path stroke-width="2.608108108108108" stroke="gray" d="M 209 91 233 171"/>
<path stroke-width="2.608108108108108" stroke="gray" d="M 209 91 256 159"/>
<path stroke-width="5.77027027027027" stroke="gray" d="M 209 91 234 155"/>
<path stroke-width="5.77027027027027" stroke="gray" d="M 209 91 226 149"/>
<path stroke-width="1.554054054054054" stroke="gray" d="M 319 37 205 149"/>
<path stroke-width="5.243243243243243" stroke="gray" d="M 205 149 233 171"/>
<path stroke-width="1.554054054054054" stroke="gray" d="M 319 37 231 135"/>
<path stroke-width="0.5" stroke="gray" d="M 319 37 256 159"/>
<path stroke-width="1.554054054054054" stroke="gray" d="M 319 37 234 155"/>
<path stroke-width="1.554054054054054" stroke="gray" d="M 319 37 226 149"/>
<path stroke-width="1.554054054054054" stroke="gray" d="M 90 64 205 149"/>
<path stroke-width="1.554054054054054" stroke="gray" d="M 90 64 231 135"/>
<path stroke-width="0.5" stroke="gray" d="M 90 64 233 171"/>
<path stroke-width="0.5" stroke="gray" d="M 90 64 256 159"/>
<path stroke-width="1.554054054054054" stroke="gray" d="M 90 64 234 155"/>
<path stroke-width="1.554054054054054" stroke="gray" d="M 90 64 226 149"/>
<path stroke-width="3.135135135135135" stroke="gray" d="M 268 72 205 149"/>
<path stroke-width="0.5" stroke="gray" d="M 319 37 233 171"/>
<path stroke-width="9.45945945945946" stroke="gray" d="M 205 149 231 135"/>
<path stroke-width="9.45945945945946" stroke="gray" d="M 205 149 205 149"/>
<path stroke-width="8.405405405405405" stroke="gray" d="M 231 135 226 149"/>
<path stroke-width="3.6621621621621623" stroke="gray" d="M 315 151 205 149"/>
<path stroke-width="3.6621621621621623" stroke="gray" d="M 315 151 231 135"/>
<path stroke-width="5.243243243243243" stroke="gray" d="M 315 151 233 171"/>
<path stroke-width="5.243243243243243" stroke="gray" d="M 315 151 256 159"/>
<path stroke-width="6.297297297297297" stroke="gray" d="M 315 151 234 155"/>
<path stroke-width="6.297297297297297" stroke="gray" d="M 315 151 226 149"/>
<path stroke-width="0.5" stroke="gray" d="M 398 224 205 149"/>
<path stroke-width="0.5" stroke="gray" d="M 398 224 231 135"/>
<path stroke-width="1.554054054054054" stroke="gray" d="M 398 224 233 171"/>
<path stroke-width="1.554054054054054" stroke="gray" d="M 398 224 256 159"/>
<path stroke-width="1.554054054054054" stroke="gray" d="M 398 224 234 155"/>
<path stroke-width="1.554054054054054" stroke="gray" d="M 398 224 226 149"/>
<path stroke-width="2.608108108108108" stroke="gray" d="M 124 191 205 149"/>
<path stroke-width="2.608108108108108" stroke="gray" d="M 124 191 231 135"/>
<path stroke-width="3.135135135135135" stroke="gray" d="M 124 191 233 171"/>
<path stroke-width="3.135135135135135" stroke="gray" d="M 124 191 256 159"/>
<path stroke-width="4.1891891891891895" stroke="gray" d="M 124 191 234 155"/>
<path stroke-width="4.1891891891891895" stroke="gray" d="M 124 191 226 149"/>
<path stroke-width="7.878378378378378" stroke="gray" d="M 231 135 205 149"/>
<path stroke-width="7.878378378378378" stroke="gray" d="M 231 135 231 135"/>
<path stroke-width="4.1891891891891895" stroke="gray" d="M 231 135 233 171"/>
<path stroke-width="4.1891891891891895" stroke="gray" d="M 231 135 256 159"/>
<path stroke-width="8.405405405405405" stroke="gray" d="M 231 135 234 155"/>
<path stroke-width="3.6621621621621623" stroke="gray" d="M 107 164 234 155"/>
<path stroke-width="1.554054054054054" stroke="gray" d="M 343 260 226 149"/>
<circle cx="226" cy="149" r="7.0" style="fill:rgb(179, 3, 38);stroke:black;stroke-width:1.0"/>
<circle cx="420" cy="117" r="7.0" style="fill:rgb(58, 76, 192);stroke:black;stroke-width:1.0"/>
<circle cx="199" cy="33" r="7.0" style="fill:rgb(58, 76, 192);stroke:black;stroke-width:1.0"/>
<circle cx="121" cy="131" r="7.0" style="fill:rgb(58, 76, 192);stroke:black;stroke-width:1.0"/>
<circle cx="358" cy="183" r="7.0" style="fill:rgb(58, 76, 192);stroke:black;stroke-width:1.0"/>
<circle cx="234" cy="155" r="7.0" style="fill:rgb(179, 3, 38);stroke:black;stroke-width:1.0"/>
<circle cx="256" cy="159" r="7.0" style="fill:rgb(207, 70, 61);stroke:black;stroke-width:1.0"/>
<circle cx="233" cy="171" r="7.0" style="fill:rgb(207, 70, 61);stroke:black;stroke-width:1.0"/>
<circle cx="107" cy="164" r="7.0" style="fill:rgb(58, 76, 192);stroke:black;stroke-width:1.0"/>
<circle cx="315" cy="151" r="7.0" style="fill:rgb(58, 76, 192);stroke:black;stroke-width:1.0"/>
<circle cx="398" cy="224" r="7.0" style="fill:rgb(58, 76, 192);stroke:black;stroke-width:1.0"/>
<circle cx="124" cy="191" r="7.0" style="fill:rgb(58, 76, 192);stroke:black;stroke-width:1.0"/>
<circle cx="231" cy="135" r="7.0" style="fill:rgb(207, 70, 61);stroke:black;stroke-width:1.0"/>
<circle cx="205" cy="149" r="7.0" style="fill:rgb(207, 70, 61);stroke:black;stroke-width:1.0"/>
<circle cx="209" cy="91" r="7.0" style="fill:rgb(58, 76, 192);stroke:black;stroke-width:1.0"/>
<circle cx="319" cy="37" r="7.0" style="fill:rgb(58, 76, 192);stroke:black;stroke-width:1.0"/>
<circle cx="90" cy="64" r="7.0" style="fill:rgb(58, 76, 192);stroke:black;stroke-width:1.0"/>
<circle cx="268" cy="72" r="7.0" style="fill:rgb(58, 76, 192);stroke:black;stroke-width:1.0"/>
<circle cx="253" cy="20" r="7.0" style="fill:rgb(58, 76, 192);stroke:black;stroke-width:1.0"/>
<circle cx="326" cy="104" r="7.0" style="fill:rgb(58, 76, 192);stroke:black;stroke-width:1.0"/>
<circle cx="141" cy="34" r="7.0" style="fill:rgb(58, 76, 192);stroke:black;stroke-width:1.0"/>
<circle cx="257" cy="230" r="7.0" style="fill:rgb(58, 76, 192);stroke:black;stroke-width:1.0"/>
<circle cx="312" cy="208" r="7.0" style="fill:rgb(58, 76, 192);stroke:black;stroke-width:1.0"/>
<circle cx="359" cy="142" r="7.0" style="fill:rgb(58, 76, 192);stroke:black;stroke-width:1.0"/>
<circle cx="145" cy="95" r="7.0" style="fill:rgb(58, 76, 192);stroke:black;stroke-width:1.0"/>
<circle cx="199" cy="216" r="7.0" style="fill:rgb(58, 76, 192);stroke:black;stroke-width:1.0"/>
<circle cx="35" cy="96" r="7.0" style="fill:rgb(58, 76, 192);stroke:black;stroke-width:1.0"/>
<circle cx="20" cy="159" r="7.0" style="fill:rgb(58, 76, 192);stroke:black;stroke-width:1.0"/>
<circle cx="287" cy="291" r="7.0" style="fill:rgb(58, 76, 192);stroke:black;stroke-width:1.0"/>
<circle cx="151" cy="214" r="7.0" style="fill:rgb(58, 76, 192);stroke:black;stroke-width:1.0"/>
<circle cx="194" cy="320" r="7.0" style="fill:rgb(58, 76, 192);stroke:black;stroke-width:1.0"/>
<circle cx="114" cy="258" r="7.0" style="fill:rgb(58, 76, 192);stroke:black;stroke-width:1.0"/>
<circle cx="377" cy="69" r="7.0" style="fill:rgb(58, 76, 192);stroke:black;stroke-width:1.0"/>
<circle cx="203" cy="275" r="7.0" style="fill:rgb(58, 76, 192);stroke:black;stroke-width:1.0"/>
<circle cx="343" cy="260" r="7.0" style="fill:rgb(58, 76, 192);stroke:black;stroke-width:1.0"/>
<text x="236" y="156" font-size="12">throat cancer</text><text x="430" y="124" font-size="12">squamous cell carcinoma</text><text x="209" y="40" font-size="12">microscope</text><text x="131" y="138" font-size="12">united states</text><text x="368" y="190" font-size="12">adenocarcinoma</text><text x="244" y="162" font-size="12">cancer</text><text x="266" y="166" font-size="12">laryngeal cancer</text><text x="243" y="178" font-size="12">pharyngeal cancer</text><text x="117" y="171" font-size="12">nasopharynx cancer</text><text x="325" y="158" font-size="12">oropharynx</text><text x="408" y="231" font-size="12">nasopharyngeal cancer</text><text x="134" y="198" font-size="12">nasopharynx</text><text x="241" y="142" font-size="12">pharynx</text><text x="215" y="156" font-size="12">larynx</text><text x="219" y="98" font-size="12">tonsils</text><text x="329" y="44" font-size="12">the voice</text><text x="100" y="71" font-size="12">cartilage</text><text x="278" y="79" font-size="12">vocal cords</text><text x="263" y="27" font-size="12">epiglottis</text><text x="336" y="111" font-size="12">windpipe</text><text x="151" y="41" font-size="12">tonsil cancer</text><text x="267" y="237" font-size="12">main places</text><text x="322" y="215" font-size="12">neck cancer</text><text x="369" y="149" font-size="12">sinuses</text><text x="155" y="102" font-size="12">salivary glands</text><text x="209" y="223" font-size="12">lymph nodes</text><text x="45" y="103" font-size="12">larynx cancer</text><text x="30" y="166" font-size="12">tobacco</text><text x="297" y="298" font-size="12">alcohol</text><text x="161" y="221" font-size="12">hypopharynx</text><text x="204" y="327" font-size="12">critical stage</text><text x="124" y="265" font-size="12">hypopharyngeal cancer</text><text x="387" y="76" font-size="12">laryngopharyngeal</text><text x="213" y="282" font-size="12">laryngopharynx</text><text x="353" y="267" font-size="12">esophagus</text></svg>
