<svg width="584.0" height="340" xmlns="http://www.w3.org/2000/svg">
<path stroke-width="20.0" stroke="gray" d="M 171 93 173 94"/>
<path stroke-width="1.8928571428571428" stroke="gray" d="M 112 78 171 93"/>
<path stroke-width="1.8928571428571428" stroke="gray" d="M 112 78 173 94"/>
<path stroke-width="1.8928571428571428" stroke="gray" d="M 163 122 171 93"/>
<path stroke-width="1.8928571428571428" stroke="gray" d="M 163 122 173 94"/>
<path stroke-width="1.8928571428571428" stroke="gray" d="M 207 64 171 93"/>
<path stroke-width="1.8928571428571428" stroke="gray" d="M 207 64 173 94"/>
<path stroke-width="0.5" stroke="gray" d="M 152 50 173 94"/>
<path stroke-width="1.8928571428571428" stroke="gray" d="M 232 76 171 93"/>
<path stroke-width="1.8928571428571428" stroke="gray" d="M 213 72 171 93"/>
<path stroke-width="1.8928571428571428" stroke="gray" d="M 213 72 173 94"/>
<path stroke-width="1.8928571428571428" stroke="gray" d="M 125 85 171 93"/>
<path stroke-width="1.8928571428571428" stroke="gray" d="M 125 85 173 94"/>
<path stroke-width="1.8928571428571428" stroke="gray" d="M 240 96 171 93"/>
<path stroke-width="1.8928571428571428" stroke="gray" d="M 240 96 173 94"/>
<path stroke-width="1.8928571428571428" stroke="gray" d="M 232 76 173 94"/>
<path stroke-width="1.8928571428571428" stroke="gray" d="M 141 119 171 93"/>
<path stroke-width="0.5" stroke="gray" d="M 152 50 171 93"/>
<path stroke-width="0.5" stroke="gray" d="M 83 102 171 93"/>
<path stroke-width="1.8928571428571428" stroke="gray" d="M 211 118 171 93"/>
<path stroke-width="1.8928571428571428" stroke="gray" d="M 211 118 173 94"/>
<path stroke-width="1.8928571428571428" stroke="gray" d="M 109 93 171 93"/>
<path stroke-width="1.8928571428571428" stroke="gray" d="M 109 93 173 94"/>
<path stroke-width="1.8928571428571428" stroke="gray" d="M 186 71 171 93"/>
<path stroke-width="1.8928571428571428" stroke="gray" d="M 186 71 173 94"/>
<path stroke-width="0.5" stroke="gray" d="M 83 102 173 94"/>
<path stroke-width="1.8928571428571428" stroke="gray" d="M 123 115 171 93"/>
<path stroke-width="0.5" stroke="gray" d="M 165 137 171 93"/>
<path stroke-width="0.5" stroke="gray" d="M 165 137 173 94"/>
<path stroke-width="0.5" stroke="gray" d="M 80 81 171 93"/>
<path stroke-width="0.5" stroke="gray" d="M 80 81 173 94"/>
<path stroke-width="0.5" stroke="gray" d="M 248 119 171 93"/>
<path stroke-width="0.5" stroke="gray" d="M 248 119 173 94"/>
<path stroke-width="1.8928571428571428" stroke="gray" d="M 123 115 173 94"/>
<path stroke-width="1.8928571428571428" stroke="gray" d="M 141 119 173 94"/>
<path stroke-width="1.8928571428571428" stroke="gray" d="M 160 65 171 93"/>
<path stroke-width="1.8928571428571428" stroke="gray" d="M 160 65 173 94"/>
<path stroke-width="7.464285714285714" stroke="gray" d="M 164 81 173 94"/>
<path stroke-width="7.464285714285714" stroke="gray" d="M 191 88 171 93"/>
<path stroke-width="7.464285714285714" stroke="gray" d="M 191 88 173 94"/>
<path stroke-width="4.678571428571429" stroke="gray" d="M 162 109 171 93"/>
<path stroke-width="4.678571428571429" stroke="gray" d="M 162 109 173 94"/>
<path stroke-width="4.678571428571429" stroke="gray" d="M 141 94 171 93"/>
<path stroke-width="7.464285714285714" stroke="gray" d="M 164 81 171 93"/>
<path stroke-width="4.678571428571429" stroke="gray" d="M 141 94 173 94"/>
<path stroke-width="1.8928571428571428" stroke="gray" d="M 140 67 173 94"/>
<path stroke-width="1.8928571428571428" stroke="gray" d="M 240 86 171 93"/>
<path stroke-width="1.8928571428571428" stroke="gray" d="M 240 86 173 94"/>
<path stroke-width="20.0" stroke="gray" d="M 173 94 171 93"/>
<path stroke-width="20.0" stroke="gray" d="M 173 94 173 94"/>
<path stroke-width="20.0" stroke="gray" d="M 171 93 171 93"/>
<path stroke-width="1.8928571428571428" stroke="gray" d="M 140 67 171 93"/>
<path stroke-width="4.678571428571429" stroke="gray" d="M 211 95 173 94"/>
<path stroke-width="4.678571428571429" stroke="gray" d="M 211 95 171 93"/>
<path stroke-width="4.678571428571429" stroke="gray" d="M 207 84 173 94"/>
<path stroke-width="1.8928571428571428" stroke="gray" d="M 188 122 171 93"/>
<path stroke-width="1.8928571428571428" stroke="gray" d="M 188 122 173 94"/>
<path stroke-width="1.8928571428571428" stroke="gray" d="M 233 106 171 93"/>
<path stroke-width="1.8928571428571428" stroke="gray" d="M 233 106 173 94"/>
<path stroke-width="1.8928571428571428" stroke="gray" d="M 116 106 171 93"/>
<path stroke-width="1.8928571428571428" stroke="gray" d="M 116 106 173 94"/>
<path stroke-width="1.8928571428571428" stroke="gray" d="M 130 73 171 93"/>
<path stroke-width="1.8928571428571428" stroke="gray" d="M 130 73 173 94"/>
<path stroke-width="4.678571428571429" stroke="gray" d="M 149 103 171 93"/>
<path stroke-width="4.678571428571429" stroke="gray" d="M 149 103 173 94"/>
<path stroke-width="4.678571428571429" stroke="gray" d="M 203 104 171 93"/>
<path stroke-width="4.678571428571429" stroke="gray" d="M 203 104 173 94"/>
<path stroke-width="4.678571428571429" stroke="gray" d="M 185 109 171 93"/>
<path stroke-width="4.678571428571429" stroke="gray" d="M 185 109 173 94"/>
<path stroke-width="4.678571428571429" stroke="gray" d="M 207 84 171 93"/>
<path stroke-width="1.8928571428571428" stroke="gray" d="M 182 62 173 94"/>
<path stroke-width="1.8928571428571428" stroke="gray" d="M 182 62 171 93"/>
<circle cx="420" cy="139" r="7.0" style="fill:rgb(58, 76, 192);stroke:black;stroke-width:1.0"/>
<circle cx="171" cy="93" r="7.0" style="fill:rgb(179, 3, 38);stroke:black;stroke-width:1.0"/>
<circle cx="173" cy="94" r="7.0" style="fill:rgb(179, 3, 38);stroke:black;stroke-width:1.0"/>
<circle cx="240" cy="86" r="7.0" style="fill:rgb(58, 76, 192);stroke:black;stroke-width:1.0"/>
<circle cx="140" cy="67" r="7.0" style="fill:rgb(58, 76, 192);stroke:black;stroke-width:1.0"/>
<circle cx="141" cy="94" r="7.0" style="fill:rgb(58, 76, 192);stroke:black;stroke-width:1.0"/>
<circle cx="162" cy="109" r="7.0" style="fill:rgb(58, 76, 192);stroke:black;stroke-width:1.0"/>
<circle cx="191" cy="88" r="7.0" style="fill:rgb(58, 76, 192);stroke:black;stroke-width:1.0"/>
<circle cx="164" cy="81" r="7.0" style="fill:rgb(58, 76, 192);stroke:black;stroke-width:1.0"/>
<circle cx="211" cy="95" r="7.0" style="fill:rgb(58, 76, 192);stroke:black;stroke-width:1.0"/>
<circle cx="207" cy="84" r="7.0" style="fill:rgb(58, 76, 192);stroke:black;stroke-width:1.0"/>
<circle cx="185" cy="109" r="7.0" style="fill:rgb(58, 76, 192);stroke:black;stroke-width:1.0"/>
<circle cx="203" cy="104" r="7.0" style="fill:rgb(58, 76, 192);stroke:black;stroke-width:1.0"/>
<circle cx="149" cy="103" r="7.0" style="fill:rgb(58, 76, 192);stroke:black;stroke-width:1.0"/>
<circle cx="130" cy="73" r="7.0" style="fill:rgb(58, 76, 192);stroke:black;stroke-width:1.0"/>
<circle cx="116" cy="106" r="7.0" style="fill:rgb(58, 76, 192);stroke:black;stroke-width:1.0"/>
<circle cx="233" cy="106" r="7.0" style="fill:rgb(58, 76, 192);stroke:black;stroke-width:1.0"/>
<circle cx="188" cy="122" r="7.0" style="fill:rgb(58, 76, 192);stroke:black;stroke-width:1.0"/>
<circle cx="160" cy="65" r="7.0" style="fill:rgb(58, 76, 192);stroke:black;stroke-width:1.0"/>
<circle cx="141" cy="119" r="7.0" style="fill:rgb(58, 76, 192);stroke:black;stroke-width:1.0"/>
<circle cx="240" cy="96" r="7.0" style="fill:rgb(58, 76, 192);stroke:black;stroke-width:1.0"/>
<circle cx="125" cy="85" r="7.0" style="fill:rgb(58, 76, 192);stroke:black;stroke-width:1.0"/>
<circle cx="213" cy="72" r="7.0" style="fill:rgb(58, 76, 192);stroke:black;stroke-width:1.0"/>
<circle cx="232" cy="76" r="7.0" style="fill:rgb(58, 76, 192);stroke:black;stroke-width:1.0"/>
<circle cx="207" cy="64" r="7.0" style="fill:rgb(58, 76, 192);stroke:black;stroke-width:1.0"/>
<circle cx="163" cy="122" r="7.0" style="fill:rgb(58, 76, 192);stroke:black;stroke-width:1.0"/>
<circle cx="112" cy="78" r="7.0" style="fill:rgb(58, 76, 192);stroke:black;stroke-width:1.0"/>
<circle cx="152" cy="50" r="7.0" style="fill:rgb(58, 76, 192);stroke:black;stroke-width:1.0"/>
<circle cx="83" cy="102" r="7.0" style="fill:rgb(58, 76, 192);stroke:black;stroke-width:1.0"/>
<circle cx="248" cy="119" r="7.0" style="fill:rgb(58, 76, 192);stroke:black;stroke-width:1.0"/>
<circle cx="80" cy="81" r="7.0" style="fill:rgb(58, 76, 192);stroke:black;stroke-width:1.0"/>
<circle cx="165" cy="137" r="7.0" style="fill:rgb(58, 76, 192);stroke:black;stroke-width:1.0"/>
<circle cx="123" cy="115" r="7.0" style="fill:rgb(58, 76, 192);stroke:black;stroke-width:1.0"/>
<circle cx="186" cy="71" r="7.0" style="fill:rgb(58, 76, 192);stroke:black;stroke-width:1.0"/>
<circle cx="109" cy="93" r="7.0" style="fill:rgb(58, 76, 192);stroke:black;stroke-width:1.0"/>
<circle cx="211" cy="118" r="7.0" style="fill:rgb(58, 76, 192);stroke:black;stroke-width:1.0"/>
<circle cx="182" cy="62" r="7.0" style="fill:rgb(58, 76, 192);stroke:black;stroke-width:1.0"/>
<circle cx="20" cy="20" r="7.0" style="fill:rgb(58, 76, 192);stroke:black;stroke-width:1.0"/>
<circle cx="411" cy="320" r="7.0" style="fill:rgb(58, 76, 192);stroke:black;stroke-width:1.0"/>
<text x="430" y="146" font-size="12">lung cancer</text><text x="181" y="100" font-size="12">throat cancer</text><text x="183" y="101" font-size="12">cancer</text><text x="250" y="93" font-size="12">squamous cell carcinoma</text><text x="150" y="74" font-size="12">microscope</text><text x="151" y="101" font-size="12">united states</text><text x="172" y="116" font-size="12">adenocarcinoma</text><text x="201" y="95" font-size="12">laryngeal cancer</text><text x="174" y="88" font-size="12">pharyngeal cancer</text><text x="221" y="102" font-size="12">nasopharynx cancer</text><text x="217" y="91" font-size="12">oropharynx</text><text x="195" y="116" font-size="12">pharynx</text><text x="213" y="111" font-size="12">larynx</text><text x="159" y="110" font-size="12">tonsils</text><text x="140" y="80" font-size="12">the voice</text><text x="126" y="113" font-size="12">cartilage</text><text x="243" y="113" font-size="12">vocal cords</text><text x="198" y="129" font-size="12">epiglottis</text><text x="170" y="72" font-size="12">windpipe</text><text x="151" y="126" font-size="12">tonsil cancer</text><text x="250" y="103" font-size="12">nasopharyngeal cancer</text><text x="135" y="92" font-size="12">nasopharynx</text><text x="223" y="79" font-size="12">enlarged lymph nodes</text><text x="242" y="83" font-size="12">throat pain</text><text x="217" y="71" font-size="12">pain</text><text x="173" y="129" font-size="12">painful swallowing</text><text x="122" y="85" font-size="12">headache</text><text x="162" y="57" font-size="12">metastatic cancer</text><text x="93" y="109" font-size="12">combination chemotherapy</text><text x="258" y="126" font-size="12">lymph node</text><text x="90" y="88" font-size="12">radiation</text><text x="175" y="144" font-size="12">metastases</text><text x="133" y="122" font-size="12">main places</text><text x="196" y="78" font-size="12">neck cancer</text><text x="119" y="100" font-size="12">sinuses</text><text x="221" y="125" font-size="12">salivary glands</text><text x="192" y="69" font-size="12">lymph nodes</text><text x="30" y="27" font-size="12">melissa</text><text x="421" y="327" font-size="12">conrad</text></svg>
