<svg width="578.0" height="340" xmlns="http://www.w3.org/2000/svg">
<path stroke-width="9.785714285714286" stroke="gray" d="M 213 190 225 179"/>
<path stroke-width="1.4285714285714286" stroke="gray" d="M 204 105 225 179"/>
<path stroke-width="1.4285714285714286" stroke="gray" d="M 331 148 213 190"/>
<path stroke-width="2.357142857142857" stroke="gray" d="M 331 148 226 183"/>
<path stroke-width="1.4285714285714286" stroke="gray" d="M 331 148 225 179"/>
<path stroke-width="3.2857142857142856" stroke="gray" d="M 219 244 213 190"/>
<path stroke-width="5.142857142857143" stroke="gray" d="M 219 244 226 183"/>
<path stroke-width="3.2857142857142856" stroke="gray" d="M 219 244 225 179"/>
<path stroke-width="5.142857142857143" stroke="gray" d="M 260 212 213 190"/>
<path stroke-width="7.0" stroke="gray" d="M 260 212 226 183"/>
<path stroke-width="4.214285714285714" stroke="gray" d="M 260 212 225 179"/>
<path stroke-width="1.4285714285714286" stroke="gray" d="M 286 107 213 190"/>
<path stroke-width="2.357142857142857" stroke="gray" d="M 286 107 226 183"/>
<path stroke-width="2.357142857142857" stroke="gray" d="M 204 105 226 183"/>
<path stroke-width="1.4285714285714286" stroke="gray" d="M 286 107 225 179"/>
<path stroke-width="9.785714285714286" stroke="gray" d="M 225 179 226 183"/>
<path stroke-width="7.0" stroke="gray" d="M 225 179 225 179"/>
<path stroke-width="2.357142857142857" stroke="gray" d="M 141 148 213 190"/>
<path stroke-width="4.214285714285714" stroke="gray" d="M 141 148 226 183"/>
<path stroke-width="3.2857142857142856" stroke="gray" d="M 141 148 225 179"/>
<path stroke-width="0.5" stroke="gray" d="M 337 97 213 190"/>
<path stroke-width="1.4285714285714286" stroke="gray" d="M 337 97 226 183"/>
<path stroke-width="1.4285714285714286" stroke="gray" d="M 337 97 225 179"/>
<path stroke-width="2.357142857142857" stroke="gray" d="M 282 236 213 190"/>
<path stroke-width="4.214285714285714" stroke="gray" d="M 282 236 226 183"/>
<path stroke-width="3.2857142857142856" stroke="gray" d="M 282 236 225 179"/>
<path stroke-width="1.4285714285714286" stroke="gray" d="M 88 247 213 190"/>
<path stroke-width="6.071428571428571" stroke="gray" d="M 225 179 213 190"/>
<path stroke-width="1.4285714285714286" stroke="gray" d="M 88 247 226 183"/>
<path stroke-width="1.4285714285714286" stroke="gray" d="M 204 105 213 190"/>
<path stroke-width="2.357142857142857" stroke="gray" d="M 331 235 226 183"/>
<path stroke-width="0.5" stroke="gray" d="M 263 73 225 179"/>
<path stroke-width="1.4285714285714286" stroke="gray" d="M 261 47 213 190"/>
<path stroke-width="1.4285714285714286" stroke="gray" d="M 261 47 226 183"/>
<path stroke-width="0.5" stroke="gray" d="M 261 47 225 179"/>
<path stroke-width="1.4285714285714286" stroke="gray" d="M 67 217 213 190"/>
<path stroke-width="1.4285714285714286" stroke="gray" d="M 67 217 226 183"/>
<path stroke-width="0.5" stroke="gray" d="M 67 217 225 179"/>
<path stroke-width="1.4285714285714286" stroke="gray" d="M 326 198 213 190"/>
<path stroke-width="2.357142857142857" stroke="gray" d="M 326 198 226 183"/>
<path stroke-width="1.4285714285714286" stroke="gray" d="M 326 198 225 179"/>
<path stroke-width="1.4285714285714286" stroke="gray" d="M 211 307 213 190"/>
<path stroke-width="2.357142857142857" stroke="gray" d="M 211 307 226 183"/>
<path stroke-width="1.4285714285714286" stroke="gray" d="M 331 235 225 179"/>
<path stroke-width="1.4285714285714286" stroke="gray" d="M 211 307 225 179"/>
<path stroke-width="2.357142857142857" stroke="gray" d="M 100 154 226 183"/>
<path stroke-width="1.4285714285714286" stroke="gray" d="M 100 154 225 179"/>
<path stroke-width="1.4285714285714286" stroke="gray" d="M 199 83 213 190"/>
<path stroke-width="2.357142857142857" stroke="gray" d="M 199 83 226 183"/>
<path stroke-width="1.4285714285714286" stroke="gray" d="M 199 83 225 179"/>
<path stroke-width="1.4285714285714286" stroke="gray" d="M 282 285 213 190"/>
<path stroke-width="2.357142857142857" stroke="gray" d="M 282 285 226 183"/>
<path stroke-width="1.4285714285714286" stroke="gray" d="M 282 285 225 179"/>
<path stroke-width="1.4285714285714286" stroke="gray" d="M 164 296 213 190"/>
<path stroke-width="2.357142857142857" stroke="gray" d="M 164 296 226 183"/>
<path stroke-width="1.4285714285714286" stroke="gray" d="M 164 296 225 179"/>
<path stroke-width="1.4285714285714286" stroke="gray" d="M 331 235 213 190"/>
<path stroke-width="1.4285714285714286" stroke="gray" d="M 100 154 213 190"/>
<path stroke-width="0.5" stroke="gray" d="M 88 247 225 179"/>
<path stroke-width="1.4285714285714286" stroke="gray" d="M 373 180 213 190"/>
<path stroke-width="1.4285714285714286" stroke="gray" d="M 373 180 226 183"/>
<path stroke-width="0.5" stroke="gray" d="M 420 220 213 190"/>
<path stroke-width="0.5" stroke="gray" d="M 420 220 226 183"/>
<path stroke-width="0.5" stroke="gray" d="M 420 220 225 179"/>
<path stroke-width="0.5" stroke="gray" d="M 20 188 213 190"/>
<path stroke-width="0.5" stroke="gray" d="M 20 188 226 183"/>
<path stroke-width="0.5" stroke="gray" d="M 20 188 225 179"/>
<path stroke-width="0.5" stroke="gray" d="M 403 113 213 190"/>
<path stroke-width="0.5" stroke="gray" d="M 403 113 226 183"/>
<path stroke-width="0.5" stroke="gray" d="M 403 113 225 179"/>
<path stroke-width="0.5" stroke="gray" d="M 151 20 213 190"/>
<path stroke-width="0.5" stroke="gray" d="M 151 20 226 183"/>
<path stroke-width="0.5" stroke="gray" d="M 151 20 225 179"/>
<path stroke-width="0.5" stroke="gray" d="M 48 113 225 179"/>
<path stroke-width="1.4285714285714286" stroke="gray" d="M 289 320 213 190"/>
<path stroke-width="0.5" stroke="gray" d="M 289 320 225 179"/>
<path stroke-width="1.4285714285714286" stroke="gray" d="M 354 266 213 190"/>
<path stroke-width="1.4285714285714286" stroke="gray" d="M 354 266 226 183"/>
<path stroke-width="0.5" stroke="gray" d="M 354 266 225 179"/>
<path stroke-width="5.142857142857143" stroke="gray" d="M 192 140 213 190"/>
<path stroke-width="6.071428571428571" stroke="gray" d="M 192 140 226 183"/>
<path stroke-width="3.2857142857142856" stroke="gray" d="M 192 140 225 179"/>
<path stroke-width="16.285714285714285" stroke="gray" d="M 226 183 213 190"/>
<path stroke-width="20.0" stroke="gray" d="M 226 183 226 183"/>
<path stroke-width="12.571428571428571" stroke="gray" d="M 226 183 225 179"/>
<path stroke-width="16.285714285714285" stroke="gray" d="M 213 190 213 190"/>
<path stroke-width="19.071428571428573" stroke="gray" d="M 213 190 226 183"/>
<path stroke-width="1.4285714285714286" stroke="gray" d="M 289 320 226 183"/>
<path stroke-width="0.5" stroke="gray" d="M 48 113 226 183"/>
<path stroke-width="0.5" stroke="gray" d="M 48 113 213 190"/>
<path stroke-width="0.5" stroke="gray" d="M 91 58 225 179"/>
<path stroke-width="0.5" stroke="gray" d="M 373 180 225 179"/>
<path stroke-width="3.2857142857142856" stroke="gray" d="M 140 235 213 190"/>
<path stroke-width="3.2857142857142856" stroke="gray" d="M 140 235 226 183"/>
<path stroke-width="1.4285714285714286" stroke="gray" d="M 140 235 225 179"/>
<path stroke-width="3.2857142857142856" stroke="gray" d="M 179 262 213 190"/>
<path stroke-width="3.2857142857142856" stroke="gray" d="M 179 262 226 183"/>
<path stroke-width="1.4285714285714286" stroke="gray" d="M 179 262 225 179"/>
<path stroke-width="5.142857142857143" stroke="gray" d="M 157 205 213 190"/>
<path stroke-width="5.142857142857143" stroke="gray" d="M 157 205 226 183"/>
<path stroke-width="2.357142857142857" stroke="gray" d="M 157 205 225 179"/>
<path stroke-width="5.142857142857143" stroke="gray" d="M 161 169 213 190"/>
<path stroke-width="5.142857142857143" stroke="gray" d="M 161 169 226 183"/>
<path stroke-width="2.357142857142857" stroke="gray" d="M 161 169 225 179"/>
<path stroke-width="3.2857142857142856" stroke="gray" d="M 289 155 213 190"/>
<path stroke-width="3.2857142857142856" stroke="gray" d="M 289 155 226 183"/>
<path stroke-width="1.4285714285714286" stroke="gray" d="M 289 155 225 179"/>
<path stroke-width="3.2857142857142856" stroke="gray" d="M 240 273 213 190"/>
<path stroke-width="3.2857142857142856" stroke="gray" d="M 240 273 226 183"/>
<path stroke-width="1.4285714285714286" stroke="gray" d="M 240 273 225 179"/>
<path stroke-width="1.4285714285714286" stroke="gray" d="M 109 290 213 190"/>
<path stroke-width="1.4285714285714286" stroke="gray" d="M 109 290 226 183"/>
<path stroke-width="0.5" stroke="gray" d="M 109 290 225 179"/>
<path stroke-width="1.4285714285714286" stroke="gray" d="M 174 60 213 190"/>
<path stroke-width="1.4285714285714286" stroke="gray" d="M 174 60 226 183"/>
<path stroke-width="0.5" stroke="gray" d="M 174 60 225 179"/>
<path stroke-width="0.5" stroke="gray" d="M 91 58 213 190"/>
<path stroke-width="0.5" stroke="gray" d="M 91 58 226 183"/>
<path stroke-width="1.4285714285714286" stroke="gray" d="M 263 73 226 183"/>
<path stroke-width="1.4285714285714286" stroke="gray" d="M 263 73 213 190"/>
<circle cx="213" cy="190" r="7.0" style="fill:rgb(201, 59, 55);stroke:black;stroke-width:1.0"/>
<circle cx="226" cy="183" r="7.0" style="fill:rgb(179, 3, 38);stroke:black;stroke-width:1.0"/>
<circle cx="192" cy="140" r="7.0" style="fill:rgb(58, 76, 192);stroke:black;stroke-width:1.0"/>
<circle cx="354" cy="266" r="7.0" style="fill:rgb(58, 76, 192);stroke:black;stroke-width:1.0"/>
<circle cx="289" cy="320" r="7.0" style="fill:rgb(58, 76, 192);stroke:black;stroke-width:1.0"/>
<circle cx="151" cy="20" r="7.0" style="fill:rgb(58, 76, 192);stroke:black;stroke-width:1.0"/>
<circle cx="403" cy="113" r="7.0" style="fill:rgb(58, 76, 192);stroke:black;stroke-width:1.0"/>
<circle cx="20" cy="188" r="7.0" style="fill:rgb(58, 76, 192);stroke:black;stroke-width:1.0"/>
<circle cx="420" cy="220" r="7.0" style="fill:rgb(58, 76, 192);stroke:black;stroke-width:1.0"/>
<circle cx="48" cy="113" r="7.0" style="fill:rgb(58, 76, 192);stroke:black;stroke-width:1.0"/>
<circle cx="91" cy="58" r="7.0" style="fill:rgb(58, 76, 192);stroke:black;stroke-width:1.0"/>
<circle cx="174" cy="60" r="7.0" style="fill:rgb(58, 76, 192);stroke:black;stroke-width:1.0"/>
<circle cx="109" cy="290" r="7.0" style="fill:rgb(58, 76, 192);stroke:black;stroke-width:1.0"/>
<circle cx="240" cy="273" r="7.0" style="fill:rgb(58, 76, 192);stroke:black;stroke-width:1.0"/>
<circle cx="289" cy="155" r="7.0" style="fill:rgb(58, 76, 192);stroke:black;stroke-width:1.0"/>
<circle cx="161" cy="169" r="7.0" style="fill:rgb(58, 76, 192);stroke:black;stroke-width:1.0"/>
<circle cx="157" cy="205" r="7.0" style="fill:rgb(58, 76, 192);stroke:black;stroke-width:1.0"/>
<circle cx="179" cy="262" r="7.0" style="fill:rgb(58, 76, 192);stroke:black;stroke-width:1.0"/>
<circle cx="140" cy="235" r="7.0" style="fill:rgb(58, 76, 192);stroke:black;stroke-width:1.0"/>
<circle cx="373" cy="180" r="7.0" style="fill:rgb(58, 76, 192);stroke:black;stroke-width:1.0"/>
<circle cx="88" cy="247" r="7.0" style="fill:rgb(58, 76, 192);stroke:black;stroke-width:1.0"/>
<circle cx="282" cy="236" r="7.0" style="fill:rgb(58, 76, 192);stroke:black;stroke-width:1.0"/>
<circle cx="337" cy="97" r="7.0" style="fill:rgb(58, 76, 192);stroke:black;stroke-width:1.0"/>
<circle cx="141" cy="148" r="7.0" style="fill:rgb(58, 76, 192);stroke:black;stroke-width:1.0"/>
<circle cx="225" cy="179" r="7.0" style="fill:rgb(214, 82, 67);stroke:black;stroke-width:1.0"/>
<circle cx="286" cy="107" r="7.0" style="fill:rgb(58, 76, 192);stroke:black;stroke-width:1.0"/>
<circle cx="260" cy="212" r="7.0" style="fill:rgb(58, 76, 192);stroke:black;stroke-width:1.0"/>
<circle cx="219" cy="244" r="7.0" style="fill:rgb(58, 76, 192);stroke:black;stroke-width:1.0"/>
<circle cx="331" cy="148" r="7.0" style="fill:rgb(58, 76, 192);stroke:black;stroke-width:1.0"/>
<circle cx="204" cy="105" r="7.0" style="fill:rgb(58, 76, 192);stroke:black;stroke-width:1.0"/>
<circle cx="331" cy="235" r="7.0" style="fill:rgb(58, 76, 192);stroke:black;stroke-width:1.0"/>
<circle cx="164" cy="296" r="7.0" style="fill:rgb(58, 76, 192);stroke:black;stroke-width:1.0"/>
<circle cx="282" cy="285" r="7.0" style="fill:rgb(58, 76, 192);stroke:black;stroke-width:1.0"/>
<circle cx="199" cy="83" r="7.0" style="fill:rgb(58, 76, 192);stroke:black;stroke-width:1.0"/>
<circle cx="100" cy="154" r="7.0" style="fill:rgb(58, 76, 192);stroke:black;stroke-width:1.0"/>
<circle cx="211" cy="307" r="7.0" style="fill:rgb(58, 76, 192);stroke:black;stroke-width:1.0"/>
<circle cx="326" cy="198" r="7.0" style="fill:rgb(58, 76, 192);stroke:black;stroke-width:1.0"/>
<circle cx="67" cy="217" r="7.0" style="fill:rgb(58, 76, 192);stroke:black;stroke-width:1.0"/>
<circle cx="261" cy="47" r="7.0" style="fill:rgb(58, 76, 192);stroke:black;stroke-width:1.0"/>
<circle cx="263" cy="73" r="7.0" style="fill:rgb(58, 76, 192);stroke:black;stroke-width:1.0"/>
<text x="223" y="197" font-size="12">throat cancer</text><text x="236" y="190" font-size="12">cancer</text><text x="202" y="147" font-size="12">vocal cords</text><text x="364" y="273" font-size="12">endoscopy</text><text x="299" y="327" font-size="12">laser</text><text x="161" y="27" font-size="12">carcinoma</text><text x="413" y="120" font-size="12">tonsil</text><text x="30" y="195" font-size="12">oncology</text><text x="430" y="227" font-size="12">squamous cell</text><text x="58" y="120" font-size="12">incidence</text><text x="101" y="65" font-size="12">prognosis</text><text x="184" y="67" font-size="12">squamous cell carcinoma</text><text x="119" y="297" font-size="12">microscope</text><text x="250" y="280" font-size="12">united states</text><text x="299" y="162" font-size="12">adenocarcinoma</text><text x="171" y="176" font-size="12">laryngeal cancer</text><text x="167" y="212" font-size="12">pharyngeal cancer</text><text x="189" y="269" font-size="12">nasopharynx cancer</text><text x="150" y="242" font-size="12">oropharynx</text><text x="383" y="187" font-size="12">nasopharyngeal cancer</text><text x="98" y="254" font-size="12">nasopharynx</text><text x="292" y="243" font-size="12">oral cancer</text><text x="347" y="104" font-size="12">soft palate</text><text x="151" y="155" font-size="12">sinuses</text><text x="235" y="186" font-size="12">pharynx</text><text x="296" y="114" font-size="12">metastatic</text><text x="270" y="219" font-size="12">larynx</text><text x="229" y="251" font-size="12">tonsils</text><text x="341" y="155" font-size="12">the voice</text><text x="214" y="112" font-size="12">cartilage</text><text x="341" y="242" font-size="12">epiglottis</text><text x="174" y="303" font-size="12">windpipe</text><text x="292" y="292" font-size="12">tonsil cancer</text><text x="209" y="90" font-size="12">main places</text><text x="110" y="161" font-size="12">neck cancer</text><text x="221" y="314" font-size="12">salivary glands</text><text x="336" y="205" font-size="12">lymph nodes</text><text x="77" y="224" font-size="12">larynx cancer</text><text x="271" y="54" font-size="12">tobacco</text><text x="273" y="80" font-size="12">alcohol</text></svg>
