<svg width="578.0" height="340" xmlns="http://www.w3.org/2000/svg">
<path stroke-width="15.381578947368421" stroke="gray" d="M 217 151 239 155"/>
<path stroke-width="3.5789473684210527" stroke="gray" d="M 262 87 238 172"/>
<path stroke-width="1.5263157894736843" stroke="gray" d="M 262 87 200 179"/>
<path stroke-width="1.5263157894736843" stroke="gray" d="M 262 87 191 162"/>
<path stroke-width="3.5789473684210527" stroke="gray" d="M 262 87 221 174"/>
<path stroke-width="3.5789473684210527" stroke="gray" d="M 262 87 217 151"/>
<path stroke-width="3.5789473684210527" stroke="gray" d="M 356 164 239 155"/>
<path stroke-width="3.5789473684210527" stroke="gray" d="M 356 164 238 172"/>
<path stroke-width="1.5263157894736843" stroke="gray" d="M 356 164 200 179"/>
<path stroke-width="1.5263157894736843" stroke="gray" d="M 356 164 191 162"/>
<path stroke-width="3.5789473684210527" stroke="gray" d="M 356 164 221 174"/>
<path stroke-width="3.5789473684210527" stroke="gray" d="M 262 87 239 155"/>
<path stroke-width="3.5789473684210527" stroke="gray" d="M 356 164 217 151"/>
<path stroke-width="3.5789473684210527" stroke="gray" d="M 122 123 238 172"/>
<path stroke-width="1.5263157894736843" stroke="gray" d="M 122 123 200 179"/>
<path stroke-width="1.5263157894736843" stroke="gray" d="M 122 123 191 162"/>
<path stroke-width="3.5789473684210527" stroke="gray" d="M 122 123 221 174"/>
<path stroke-width="3.5789473684210527" stroke="gray" d="M 122 123 217 151"/>
<path stroke-width="4.605263157894737" stroke="gray" d="M 121 164 239 155"/>
<path stroke-width="4.605263157894737" stroke="gray" d="M 121 164 238 172"/>
<path stroke-width="2.5526315789473686" stroke="gray" d="M 121 164 200 179"/>
<path stroke-width="2.5526315789473686" stroke="gray" d="M 121 164 191 162"/>
<path stroke-width="4.605263157894737" stroke="gray" d="M 121 164 221 174"/>
<path stroke-width="3.5789473684210527" stroke="gray" d="M 122 123 239 155"/>
<path stroke-width="4.605263157894737" stroke="gray" d="M 121 164 217 151"/>
<path stroke-width="3.5789473684210527" stroke="gray" d="M 312 104 217 151"/>
<path stroke-width="1.5263157894736843" stroke="gray" d="M 312 104 191 162"/>
<path stroke-width="3.0657894736842106" stroke="gray" d="M 175 244 217 151"/>
<path stroke-width="1.5263157894736843" stroke="gray" d="M 174 38 239 155"/>
<path stroke-width="1.5263157894736843" stroke="gray" d="M 174 38 238 172"/>
<path stroke-width="0.5" stroke="gray" d="M 174 38 200 179"/>
<path stroke-width="0.5" stroke="gray" d="M 174 38 191 162"/>
<path stroke-width="1.5263157894736843" stroke="gray" d="M 174 38 221 174"/>
<path stroke-width="1.5263157894736843" stroke="gray" d="M 174 38 217 151"/>
<path stroke-width="2.5526315789473686" stroke="gray" d="M 280 237 239 155"/>
<path stroke-width="2.5526315789473686" stroke="gray" d="M 280 237 238 172"/>
<path stroke-width="2.5526315789473686" stroke="gray" d="M 280 237 200 179"/>
<path stroke-width="3.5789473684210527" stroke="gray" d="M 312 104 221 174"/>
<path stroke-width="2.5526315789473686" stroke="gray" d="M 280 237 191 162"/>
<path stroke-width="3.5789473684210527" stroke="gray" d="M 280 237 217 151"/>
<path stroke-width="1.5263157894736843" stroke="gray" d="M 391 97 239 155"/>
<path stroke-width="1.5263157894736843" stroke="gray" d="M 391 97 238 172"/>
<path stroke-width="0.5" stroke="gray" d="M 391 97 200 179"/>
<path stroke-width="0.5" stroke="gray" d="M 391 97 191 162"/>
<path stroke-width="1.5263157894736843" stroke="gray" d="M 391 97 221 174"/>
<path stroke-width="1.5263157894736843" stroke="gray" d="M 391 97 217 151"/>
<path stroke-width="3.5789473684210527" stroke="gray" d="M 312 104 239 155"/>
<path stroke-width="3.5789473684210527" stroke="gray" d="M 312 104 238 172"/>
<path stroke-width="1.5263157894736843" stroke="gray" d="M 312 104 200 179"/>
<path stroke-width="3.5789473684210527" stroke="gray" d="M 280 237 221 174"/>
<path stroke-width="1.013157894736842" stroke="gray" d="M 236 305 239 155"/>
<path stroke-width="1.013157894736842" stroke="gray" d="M 236 305 238 172"/>
<path stroke-width="0.5" stroke="gray" d="M 236 305 200 179"/>
<path stroke-width="0.5" stroke="gray" d="M 166 290 239 155"/>
<path stroke-width="0.5" stroke="gray" d="M 166 290 238 172"/>
<path stroke-width="1.5263157894736843" stroke="gray" d="M 166 290 200 179"/>
<path stroke-width="1.5263157894736843" stroke="gray" d="M 166 290 191 162"/>
<path stroke-width="1.5263157894736843" stroke="gray" d="M 166 290 221 174"/>
<path stroke-width="1.5263157894736843" stroke="gray" d="M 166 290 217 151"/>
<path stroke-width="0.5" stroke="gray" d="M 102 269 239 155"/>
<path stroke-width="0.5" stroke="gray" d="M 102 269 238 172"/>
<path stroke-width="1.5263157894736843" stroke="gray" d="M 102 269 200 179"/>
<path stroke-width="1.5263157894736843" stroke="gray" d="M 102 269 191 162"/>
<path stroke-width="0.5" stroke="gray" d="M 309 320 217 151"/>
<path stroke-width="1.5263157894736843" stroke="gray" d="M 102 269 221 174"/>
<path stroke-width="0.5" stroke="gray" d="M 44 111 239 155"/>
<path stroke-width="0.5" stroke="gray" d="M 44 111 238 172"/>
<path stroke-width="1.5263157894736843" stroke="gray" d="M 44 111 200 179"/>
<path stroke-width="1.5263157894736843" stroke="gray" d="M 44 111 191 162"/>
<path stroke-width="1.5263157894736843" stroke="gray" d="M 44 111 221 174"/>
<path stroke-width="1.5263157894736843" stroke="gray" d="M 44 111 217 151"/>
<path stroke-width="0.5" stroke="gray" d="M 32 159 239 155"/>
<path stroke-width="0.5" stroke="gray" d="M 32 159 238 172"/>
<path stroke-width="1.5263157894736843" stroke="gray" d="M 32 159 200 179"/>
<path stroke-width="1.5263157894736843" stroke="gray" d="M 32 159 191 162"/>
<path stroke-width="1.5263157894736843" stroke="gray" d="M 102 269 217 151"/>
<path stroke-width="0.5" stroke="gray" d="M 309 320 221 174"/>
<path stroke-width="0.5" stroke="gray" d="M 309 320 191 162"/>
<path stroke-width="0.5" stroke="gray" d="M 309 320 200 179"/>
<path stroke-width="0.5" stroke="gray" d="M 236 305 191 162"/>
<path stroke-width="1.013157894736842" stroke="gray" d="M 236 305 221 174"/>
<path stroke-width="1.013157894736842" stroke="gray" d="M 236 305 217 151"/>
<path stroke-width="1.013157894736842" stroke="gray" d="M 20 205 239 155"/>
<path stroke-width="1.013157894736842" stroke="gray" d="M 20 205 238 172"/>
<path stroke-width="0.5" stroke="gray" d="M 20 205 200 179"/>
<path stroke-width="0.5" stroke="gray" d="M 20 205 191 162"/>
<path stroke-width="1.013157894736842" stroke="gray" d="M 20 205 221 174"/>
<path stroke-width="1.013157894736842" stroke="gray" d="M 20 205 217 151"/>
<path stroke-width="1.013157894736842" stroke="gray" d="M 248 20 239 155"/>
<path stroke-width="1.013157894736842" stroke="gray" d="M 248 20 238 172"/>
<path stroke-width="0.5" stroke="gray" d="M 248 20 200 179"/>
<path stroke-width="0.5" stroke="gray" d="M 248 20 191 162"/>
<path stroke-width="1.013157894736842" stroke="gray" d="M 248 20 221 174"/>
<path stroke-width="1.013157894736842" stroke="gray" d="M 248 20 217 151"/>
<path stroke-width="2.5526315789473686" stroke="gray" d="M 321 136 239 155"/>
<path stroke-width="2.5526315789473686" stroke="gray" d="M 321 136 238 172"/>
<path stroke-width="3.0657894736842106" stroke="gray" d="M 321 136 200 179"/>
<path stroke-width="3.0657894736842106" stroke="gray" d="M 321 136 191 162"/>
<path stroke-width="4.092105263157895" stroke="gray" d="M 321 136 221 174"/>
<path stroke-width="4.092105263157895" stroke="gray" d="M 321 136 217 151"/>
<path stroke-width="0.5" stroke="gray" d="M 309 320 239 155"/>
<path stroke-width="0.5" stroke="gray" d="M 309 320 238 172"/>
<path stroke-width="3.0657894736842106" stroke="gray" d="M 175 244 221 174"/>
<path stroke-width="1.5263157894736843" stroke="gray" d="M 175 244 191 162"/>
<path stroke-width="1.5263157894736843" stroke="gray" d="M 175 244 200 179"/>
<path stroke-width="3.0657894736842106" stroke="gray" d="M 175 244 238 172"/>
<path stroke-width="3.5789473684210527" stroke="gray" d="M 153 96 221 174"/>
<path stroke-width="3.5789473684210527" stroke="gray" d="M 153 96 217 151"/>
<path stroke-width="14.355263157894736" stroke="gray" d="M 221 174 239 155"/>
<path stroke-width="14.355263157894736" stroke="gray" d="M 221 174 238 172"/>
<path stroke-width="14.355263157894736" stroke="gray" d="M 221 174 200 179"/>
<path stroke-width="14.355263157894736" stroke="gray" d="M 221 174 191 162"/>
<path stroke-width="18.973684210526315" stroke="gray" d="M 221 174 221 174"/>
<path stroke-width="18.973684210526315" stroke="gray" d="M 221 174 217 151"/>
<path stroke-width="3.5789473684210527" stroke="gray" d="M 191 162 239 155"/>
<path stroke-width="3.5789473684210527" stroke="gray" d="M 191 162 238 172"/>
<path stroke-width="3.5789473684210527" stroke="gray" d="M 153 96 191 162"/>
<path stroke-width="7.684210526315789" stroke="gray" d="M 191 162 200 179"/>
<path stroke-width="7.684210526315789" stroke="gray" d="M 191 162 221 174"/>
<path stroke-width="7.684210526315789" stroke="gray" d="M 191 162 217 151"/>
<path stroke-width="5.631578947368421" stroke="gray" d="M 200 179 239 155"/>
<path stroke-width="5.631578947368421" stroke="gray" d="M 200 179 238 172"/>
<path stroke-width="9.223684210526315" stroke="gray" d="M 200 179 200 179"/>
<path stroke-width="9.223684210526315" stroke="gray" d="M 200 179 191 162"/>
<path stroke-width="10.25" stroke="gray" d="M 200 179 221 174"/>
<path stroke-width="10.25" stroke="gray" d="M 200 179 217 151"/>
<path stroke-width="1.5263157894736843" stroke="gray" d="M 327 215 239 155"/>
<path stroke-width="1.5263157894736843" stroke="gray" d="M 327 215 238 172"/>
<path stroke-width="7.684210526315789" stroke="gray" d="M 191 162 191 162"/>
<path stroke-width="3.5789473684210527" stroke="gray" d="M 153 96 200 179"/>
<path stroke-width="1.5263157894736843" stroke="gray" d="M 153 96 238 172"/>
<path stroke-width="1.5263157894736843" stroke="gray" d="M 153 96 239 155"/>
<path stroke-width="15.381578947368421" stroke="gray" d="M 217 151 238 172"/>
<path stroke-width="15.381578947368421" stroke="gray" d="M 217 151 200 179"/>
<path stroke-width="15.381578947368421" stroke="gray" d="M 217 151 191 162"/>
<path stroke-width="20.0" stroke="gray" d="M 217 151 221 174"/>
<path stroke-width="20.0" stroke="gray" d="M 217 151 217 151"/>
<path stroke-width="0.5" stroke="gray" d="M 64 235 239 155"/>
<path stroke-width="0.5" stroke="gray" d="M 64 235 238 172"/>
<path stroke-width="1.5263157894736843" stroke="gray" d="M 64 235 200 179"/>
<path stroke-width="1.5263157894736843" stroke="gray" d="M 64 235 191 162"/>
<path stroke-width="1.5263157894736843" stroke="gray" d="M 64 235 221 174"/>
<path stroke-width="1.5263157894736843" stroke="gray" d="M 64 235 217 151"/>
<path stroke-width="0.5" stroke="gray" d="M 92 65 239 155"/>
<path stroke-width="0.5" stroke="gray" d="M 92 65 238 172"/>
<path stroke-width="1.5263157894736843" stroke="gray" d="M 92 65 200 179"/>
<path stroke-width="1.5263157894736843" stroke="gray" d="M 92 65 191 162"/>
<path stroke-width="1.5263157894736843" stroke="gray" d="M 92 65 221 174"/>
<path stroke-width="1.5263157894736843" stroke="gray" d="M 92 65 217 151"/>
<path stroke-width="1.5263157894736843" stroke="gray" d="M 205 86 239 155"/>
<path stroke-width="1.5263157894736843" stroke="gray" d="M 205 86 238 172"/>
<path stroke-width="3.5789473684210527" stroke="gray" d="M 205 86 200 179"/>
<path stroke-width="3.5789473684210527" stroke="gray" d="M 205 86 191 162"/>
<path stroke-width="3.5789473684210527" stroke="gray" d="M 205 86 221 174"/>
<path stroke-width="3.5789473684210527" stroke="gray" d="M 205 86 217 151"/>
<path stroke-width="3.5789473684210527" stroke="gray" d="M 327 215 200 179"/>
<path stroke-width="1.5263157894736843" stroke="gray" d="M 32 159 221 174"/>
<path stroke-width="3.5789473684210527" stroke="gray" d="M 327 215 191 162"/>
<path stroke-width="3.5789473684210527" stroke="gray" d="M 327 215 217 151"/>
<path stroke-width="5.118421052631579" stroke="gray" d="M 239 155 191 162"/>
<path stroke-width="9.736842105263158" stroke="gray" d="M 239 155 221 174"/>
<path stroke-width="9.736842105263158" stroke="gray" d="M 239 155 217 151"/>
<path stroke-width="5.631578947368421" stroke="gray" d="M 147 202 239 155"/>
<path stroke-width="5.631578947368421" stroke="gray" d="M 147 202 238 172"/>
<path stroke-width="2.5526315789473686" stroke="gray" d="M 147 202 200 179"/>
<path stroke-width="2.5526315789473686" stroke="gray" d="M 147 202 191 162"/>
<path stroke-width="5.631578947368421" stroke="gray" d="M 147 202 221 174"/>
<path stroke-width="5.631578947368421" stroke="gray" d="M 147 202 217 151"/>
<path stroke-width="1.5263157894736843" stroke="gray" d="M 352 264 239 155"/>
<path stroke-width="5.118421052631579" stroke="gray" d="M 239 155 200 179"/>
<path stroke-width="1.5263157894736843" stroke="gray" d="M 352 264 238 172"/>
<path stroke-width="0.5" stroke="gray" d="M 352 264 191 162"/>
<path stroke-width="1.5263157894736843" stroke="gray" d="M 352 264 221 174"/>
<path stroke-width="1.5263157894736843" stroke="gray" d="M 352 264 217 151"/>
<path stroke-width="1.5263157894736843" stroke="gray" d="M 420 161 239 155"/>
<path stroke-width="1.5263157894736843" stroke="gray" d="M 420 161 238 172"/>
<path stroke-width="0.5" stroke="gray" d="M 420 161 200 179"/>
<path stroke-width="0.5" stroke="gray" d="M 420 161 191 162"/>
<path stroke-width="1.5263157894736843" stroke="gray" d="M 420 161 221 174"/>
<path stroke-width="1.5263157894736843" stroke="gray" d="M 420 161 217 151"/>
<path stroke-width="3.0657894736842106" stroke="gray" d="M 175 244 239 155"/>
<path stroke-width="0.5" stroke="gray" d="M 352 264 200 179"/>
<path stroke-width="9.223684210526315" stroke="gray" d="M 239 155 238 172"/>
<path stroke-width="9.223684210526315" stroke="gray" d="M 239 155 239 155"/>
<path stroke-width="8.197368421052632" stroke="gray" d="M 238 172 217 151"/>
<path stroke-width="3.5789473684210527" stroke="gray" d="M 227 226 239 155"/>
<path stroke-width="3.5789473684210527" stroke="gray" d="M 227 226 238 172"/>
<path stroke-width="5.118421052631579" stroke="gray" d="M 227 226 200 179"/>
<path stroke-width="5.118421052631579" stroke="gray" d="M 227 226 191 162"/>
<path stroke-width="6.144736842105263" stroke="gray" d="M 227 226 221 174"/>
<path stroke-width="6.144736842105263" stroke="gray" d="M 227 226 217 151"/>
<path stroke-width="0.5" stroke="gray" d="M 316 53 239 155"/>
<path stroke-width="0.5" stroke="gray" d="M 316 53 238 172"/>
<path stroke-width="1.5263157894736843" stroke="gray" d="M 316 53 200 179"/>
<path stroke-width="1.5263157894736843" stroke="gray" d="M 316 53 191 162"/>
<path stroke-width="1.5263157894736843" stroke="gray" d="M 316 53 221 174"/>
<path stroke-width="1.5263157894736843" stroke="gray" d="M 316 53 217 151"/>
<path stroke-width="2.5526315789473686" stroke="gray" d="M 321 187 239 155"/>
<path stroke-width="2.5526315789473686" stroke="gray" d="M 321 187 238 172"/>
<path stroke-width="3.0657894736842106" stroke="gray" d="M 321 187 200 179"/>
<path stroke-width="3.0657894736842106" stroke="gray" d="M 321 187 191 162"/>
<path stroke-width="4.092105263157895" stroke="gray" d="M 321 187 221 174"/>
<path stroke-width="4.092105263157895" stroke="gray" d="M 321 187 217 151"/>
<path stroke-width="7.684210526315789" stroke="gray" d="M 238 172 239 155"/>
<path stroke-width="7.684210526315789" stroke="gray" d="M 238 172 238 172"/>
<path stroke-width="4.092105263157895" stroke="gray" d="M 238 172 200 179"/>
<path stroke-width="4.092105263157895" stroke="gray" d="M 238 172 191 162"/>
<path stroke-width="8.197368421052632" stroke="gray" d="M 238 172 221 174"/>
<path stroke-width="3.5789473684210527" stroke="gray" d="M 327 215 221 174"/>
<path stroke-width="1.5263157894736843" stroke="gray" d="M 32 159 217 151"/>
<circle cx="217" cy="151" r="7.0" style="fill:rgb(179, 3, 38);stroke:black;stroke-width:1.0"/>
<circle cx="64" cy="235" r="7.0" style="fill:rgb(58, 76, 192);stroke:black;stroke-width:1.0"/>
<circle cx="92" cy="65" r="7.0" style="fill:rgb(58, 76, 192);stroke:black;stroke-width:1.0"/>
<circle cx="205" cy="86" r="7.0" style="fill:rgb(58, 76, 192);stroke:black;stroke-width:1.0"/>
<circle cx="153" cy="96" r="7.0" style="fill:rgb(58, 76, 192);stroke:black;stroke-width:1.0"/>
<circle cx="221" cy="174" r="7.0" style="fill:rgb(179, 3, 38);stroke:black;stroke-width:1.0"/>
<circle cx="191" cy="162" r="7.0" style="fill:rgb(207, 70, 61);stroke:black;stroke-width:1.0"/>
<circle cx="200" cy="179" r="7.0" style="fill:rgb(207, 70, 61);stroke:black;stroke-width:1.0"/>
<circle cx="327" cy="215" r="7.0" style="fill:rgb(58, 76, 192);stroke:black;stroke-width:1.0"/>
<circle cx="227" cy="226" r="7.0" style="fill:rgb(58, 76, 192);stroke:black;stroke-width:1.0"/>
<circle cx="316" cy="53" r="7.0" style="fill:rgb(58, 76, 192);stroke:black;stroke-width:1.0"/>
<circle cx="321" cy="187" r="7.0" style="fill:rgb(58, 76, 192);stroke:black;stroke-width:1.0"/>
<circle cx="238" cy="172" r="7.0" style="fill:rgb(207, 70, 61);stroke:black;stroke-width:1.0"/>
<circle cx="239" cy="155" r="7.0" style="fill:rgb(207, 70, 61);stroke:black;stroke-width:1.0"/>
<circle cx="147" cy="202" r="7.0" style="fill:rgb(58, 76, 192);stroke:black;stroke-width:1.0"/>
<circle cx="352" cy="264" r="7.0" style="fill:rgb(58, 76, 192);stroke:black;stroke-width:1.0"/>
<circle cx="420" cy="161" r="7.0" style="fill:rgb(58, 76, 192);stroke:black;stroke-width:1.0"/>
<circle cx="175" cy="244" r="7.0" style="fill:rgb(58, 76, 192);stroke:black;stroke-width:1.0"/>
<circle cx="174" cy="38" r="7.0" style="fill:rgb(58, 76, 192);stroke:black;stroke-width:1.0"/>
<circle cx="280" cy="237" r="7.0" style="fill:rgb(58, 76, 192);stroke:black;stroke-width:1.0"/>
<circle cx="391" cy="97" r="7.0" style="fill:rgb(58, 76, 192);stroke:black;stroke-width:1.0"/>
<circle cx="312" cy="104" r="7.0" style="fill:rgb(58, 76, 192);stroke:black;stroke-width:1.0"/>
<circle cx="262" cy="87" r="7.0" style="fill:rgb(58, 76, 192);stroke:black;stroke-width:1.0"/>
<circle cx="356" cy="164" r="7.0" style="fill:rgb(58, 76, 192);stroke:black;stroke-width:1.0"/>
<circle cx="122" cy="123" r="7.0" style="fill:rgb(58, 76, 192);stroke:black;stroke-width:1.0"/>
<circle cx="121" cy="164" r="7.0" style="fill:rgb(58, 76, 192);stroke:black;stroke-width:1.0"/>
<circle cx="236" cy="305" r="7.0" style="fill:rgb(58, 76, 192);stroke:black;stroke-width:1.0"/>
<circle cx="20" cy="205" r="7.0" style="fill:rgb(58, 76, 192);stroke:black;stroke-width:1.0"/>
<circle cx="248" cy="20" r="7.0" style="fill:rgb(58, 76, 192);stroke:black;stroke-width:1.0"/>
<circle cx="321" cy="136" r="7.0" style="fill:rgb(58, 76, 192);stroke:black;stroke-width:1.0"/>
<circle cx="309" cy="320" r="7.0" style="fill:rgb(58, 76, 192);stroke:black;stroke-width:1.0"/>
<circle cx="166" cy="290" r="7.0" style="fill:rgb(58, 76, 192);stroke:black;stroke-width:1.0"/>
<circle cx="102" cy="269" r="7.0" style="fill:rgb(58, 76, 192);stroke:black;stroke-width:1.0"/>
<circle cx="44" cy="111" r="7.0" style="fill:rgb(58, 76, 192);stroke:black;stroke-width:1.0"/>
<circle cx="32" cy="159" r="7.0" style="fill:rgb(58, 76, 192);stroke:black;stroke-width:1.0"/>
<text x="227" y="158" font-size="12">throat cancer</text><text x="74" y="242" font-size="12">squamous cell carcinoma</text><text x="102" y="72" font-size="12">microscope</text><text x="215" y="93" font-size="12">united states</text><text x="163" y="103" font-size="12">adenocarcinoma</text><text x="231" y="181" font-size="12">cancer</text><text x="201" y="169" font-size="12">laryngeal cancer</text><text x="210" y="186" font-size="12">pharyngeal cancer</text><text x="337" y="222" font-size="12">nasopharynx cancer</text><text x="237" y="233" font-size="12">oropharynx</text><text x="326" y="60" font-size="12">nasopharyngeal cancer</text><text x="331" y="194" font-size="12">nasopharynx</text><text x="248" y="179" font-size="12">pharynx</text><text x="249" y="162" font-size="12">larynx</text><text x="157" y="209" font-size="12">tonsils</text><text x="362" y="271" font-size="12">the voice</text><text x="430" y="168" font-size="12">cartilage</text><text x="185" y="251" font-size="12">vocal cords</text><text x="184" y="45" font-size="12">epiglottis</text><text x="290" y="244" font-size="12">windpipe</text><text x="401" y="104" font-size="12">tonsil cancer</text><text x="322" y="111" font-size="12">main places</text><text x="272" y="94" font-size="12">neck cancer</text><text x="366" y="171" font-size="12">sinuses</text><text x="132" y="130" font-size="12">salivary glands</text><text x="131" y="171" font-size="12">lymph nodes</text><text x="246" y="312" font-size="12">larynx cancer</text><text x="30" y="212" font-size="12">tobacco</text><text x="258" y="27" font-size="12">alcohol</text><text x="331" y="143" font-size="12">hypopharynx</text><text x="319" y="327" font-size="12">critical stage</text><text x="176" y="297" font-size="12">hypopharyngeal cancer</text><text x="112" y="276" font-size="12">laryngopharyngeal</text><text x="54" y="118" font-size="12">laryngopharynx</text><text x="42" y="166" font-size="12">esophagus</text></svg>
