<svg width="578.0" height="340" xmlns="http://www.w3.org/2000/svg">
<path stroke-width="15.256756756756756" stroke="gray" d="M 208 263 218 273"/>
<path stroke-width="3.6621621621621623" stroke="gray" d="M 122 249 236 263"/>
<path stroke-width="1.554054054054054" stroke="gray" d="M 122 249 179 262"/>
<path stroke-width="1.554054054054054" stroke="gray" d="M 122 249 225 269"/>
<path stroke-width="3.6621621621621623" stroke="gray" d="M 122 249 196 268"/>
<path stroke-width="3.6621621621621623" stroke="gray" d="M 122 249 208 263"/>
<path stroke-width="3.6621621621621623" stroke="gray" d="M 208 239 218 273"/>
<path stroke-width="3.6621621621621623" stroke="gray" d="M 208 239 236 263"/>
<path stroke-width="1.554054054054054" stroke="gray" d="M 208 239 179 262"/>
<path stroke-width="1.554054054054054" stroke="gray" d="M 208 239 225 269"/>
<path stroke-width="3.6621621621621623" stroke="gray" d="M 208 239 196 268"/>
<path stroke-width="3.6621621621621623" stroke="gray" d="M 122 249 218 273"/>
<path stroke-width="3.6621621621621623" stroke="gray" d="M 208 239 208 263"/>
<path stroke-width="3.6621621621621623" stroke="gray" d="M 163 243 236 263"/>
<path stroke-width="1.554054054054054" stroke="gray" d="M 163 243 179 262"/>
<path stroke-width="1.554054054054054" stroke="gray" d="M 163 243 225 269"/>
<path stroke-width="3.6621621621621623" stroke="gray" d="M 163 243 196 268"/>
<path stroke-width="3.6621621621621623" stroke="gray" d="M 163 243 208 263"/>
<path stroke-width="4.716216216216216" stroke="gray" d="M 274 284 218 273"/>
<path stroke-width="4.716216216216216" stroke="gray" d="M 274 284 236 263"/>
<path stroke-width="2.608108108108108" stroke="gray" d="M 274 284 179 262"/>
<path stroke-width="2.608108108108108" stroke="gray" d="M 274 284 225 269"/>
<path stroke-width="4.716216216216216" stroke="gray" d="M 274 284 196 268"/>
<path stroke-width="3.6621621621621623" stroke="gray" d="M 163 243 218 273"/>
<path stroke-width="4.716216216216216" stroke="gray" d="M 274 284 208 263"/>
<path stroke-width="3.6621621621621623" stroke="gray" d="M 242 294 208 263"/>
<path stroke-width="1.554054054054054" stroke="gray" d="M 242 294 225 269"/>
<path stroke-width="3.135135135135135" stroke="gray" d="M 299 246 208 263"/>
<path stroke-width="1.554054054054054" stroke="gray" d="M 39 284 218 273"/>
<path stroke-width="1.554054054054054" stroke="gray" d="M 39 284 236 263"/>
<path stroke-width="0.5" stroke="gray" d="M 39 284 179 262"/>
<path stroke-width="0.5" stroke="gray" d="M 39 284 225 269"/>
<path stroke-width="1.554054054054054" stroke="gray" d="M 39 284 196 268"/>
<path stroke-width="1.554054054054054" stroke="gray" d="M 39 284 208 263"/>
<path stroke-width="2.608108108108108" stroke="gray" d="M 97 260 218 273"/>
<path stroke-width="2.608108108108108" stroke="gray" d="M 97 260 236 263"/>
<path stroke-width="2.608108108108108" stroke="gray" d="M 97 260 179 262"/>
<path stroke-width="3.6621621621621623" stroke="gray" d="M 242 294 196 268"/>
<path stroke-width="2.608108108108108" stroke="gray" d="M 97 260 225 269"/>
<path stroke-width="3.6621621621621623" stroke="gray" d="M 97 260 208 263"/>
<path stroke-width="1.554054054054054" stroke="gray" d="M 297 304 218 273"/>
<path stroke-width="1.554054054054054" stroke="gray" d="M 297 304 236 263"/>
<path stroke-width="0.5" stroke="gray" d="M 297 304 179 262"/>
<path stroke-width="0.5" stroke="gray" d="M 297 304 225 269"/>
<path stroke-width="1.554054054054054" stroke="gray" d="M 297 304 196 268"/>
<path stroke-width="1.554054054054054" stroke="gray" d="M 297 304 208 263"/>
<path stroke-width="3.6621621621621623" stroke="gray" d="M 242 294 218 273"/>
<path stroke-width="3.6621621621621623" stroke="gray" d="M 242 294 236 263"/>
<path stroke-width="1.554054054054054" stroke="gray" d="M 242 294 179 262"/>
<path stroke-width="3.6621621621621623" stroke="gray" d="M 97 260 196 268"/>
<path stroke-width="1.027027027027027" stroke="gray" d="M 367 297 218 273"/>
<path stroke-width="1.027027027027027" stroke="gray" d="M 367 297 236 263"/>
<path stroke-width="0.5" stroke="gray" d="M 367 297 179 262"/>
<path stroke-width="0.5" stroke="gray" d="M 378 269 218 273"/>
<path stroke-width="0.5" stroke="gray" d="M 378 269 236 263"/>
<path stroke-width="1.554054054054054" stroke="gray" d="M 378 269 179 262"/>
<path stroke-width="1.554054054054054" stroke="gray" d="M 378 269 225 269"/>
<path stroke-width="1.554054054054054" stroke="gray" d="M 378 269 196 268"/>
<path stroke-width="1.554054054054054" stroke="gray" d="M 378 269 208 263"/>
<path stroke-width="0.5" stroke="gray" d="M 370 248 218 273"/>
<path stroke-width="0.5" stroke="gray" d="M 370 248 236 263"/>
<path stroke-width="1.554054054054054" stroke="gray" d="M 370 248 179 262"/>
<path stroke-width="1.554054054054054" stroke="gray" d="M 370 248 225 269"/>
<path stroke-width="0.5" stroke="gray" d="M 218 320 208 263"/>
<path stroke-width="1.554054054054054" stroke="gray" d="M 370 248 196 268"/>
<path stroke-width="0.5" stroke="gray" d="M 20 270 218 273"/>
<path stroke-width="0.5" stroke="gray" d="M 20 270 236 263"/>
<path stroke-width="1.554054054054054" stroke="gray" d="M 20 270 179 262"/>
<path stroke-width="1.554054054054054" stroke="gray" d="M 20 270 225 269"/>
<path stroke-width="1.554054054054054" stroke="gray" d="M 20 270 196 268"/>
<path stroke-width="1.554054054054054" stroke="gray" d="M 20 270 208 263"/>
<path stroke-width="0.5" stroke="gray" d="M 199 223 218 273"/>
<path stroke-width="0.5" stroke="gray" d="M 199 223 236 263"/>
<path stroke-width="1.554054054054054" stroke="gray" d="M 199 223 179 262"/>
<path stroke-width="1.554054054054054" stroke="gray" d="M 199 223 225 269"/>
<path stroke-width="1.554054054054054" stroke="gray" d="M 370 248 208 263"/>
<path stroke-width="0.5" stroke="gray" d="M 218 320 196 268"/>
<path stroke-width="0.5" stroke="gray" d="M 218 320 225 269"/>
<path stroke-width="0.5" stroke="gray" d="M 218 320 179 262"/>
<path stroke-width="0.5" stroke="gray" d="M 367 297 225 269"/>
<path stroke-width="1.027027027027027" stroke="gray" d="M 367 297 196 268"/>
<path stroke-width="1.027027027027027" stroke="gray" d="M 367 297 208 263"/>
<path stroke-width="1.027027027027027" stroke="gray" d="M 346 231 218 273"/>
<path stroke-width="1.027027027027027" stroke="gray" d="M 346 231 236 263"/>
<path stroke-width="0.5" stroke="gray" d="M 346 231 179 262"/>
<path stroke-width="0.5" stroke="gray" d="M 346 231 225 269"/>
<path stroke-width="1.027027027027027" stroke="gray" d="M 346 231 196 268"/>
<path stroke-width="1.027027027027027" stroke="gray" d="M 346 231 208 263"/>
<path stroke-width="1.027027027027027" stroke="gray" d="M 420 261 218 273"/>
<path stroke-width="1.027027027027027" stroke="gray" d="M 420 261 236 263"/>
<path stroke-width="0.5" stroke="gray" d="M 420 261 179 262"/>
<path stroke-width="0.5" stroke="gray" d="M 420 261 225 269"/>
<path stroke-width="1.027027027027027" stroke="gray" d="M 420 261 196 268"/>
<path stroke-width="1.027027027027027" stroke="gray" d="M 420 261 208 263"/>
<path stroke-width="2.608108108108108" stroke="gray" d="M 310 273 218 273"/>
<path stroke-width="2.608108108108108" stroke="gray" d="M 310 273 236 263"/>
<path stroke-width="3.135135135135135" stroke="gray" d="M 310 273 179 262"/>
<path stroke-width="3.135135135135135" stroke="gray" d="M 310 273 225 269"/>
<path stroke-width="4.1891891891891895" stroke="gray" d="M 310 273 196 268"/>
<path stroke-width="4.1891891891891895" stroke="gray" d="M 310 273 208 263"/>
<path stroke-width="0.5" stroke="gray" d="M 218 320 218 273"/>
<path stroke-width="0.5" stroke="gray" d="M 218 320 236 263"/>
<path stroke-width="3.135135135135135" stroke="gray" d="M 299 246 196 268"/>
<path stroke-width="1.554054054054054" stroke="gray" d="M 299 246 225 269"/>
<path stroke-width="1.554054054054054" stroke="gray" d="M 299 246 179 262"/>
<path stroke-width="3.135135135135135" stroke="gray" d="M 299 246 236 263"/>
<path stroke-width="3.6621621621621623" stroke="gray" d="M 253 239 196 268"/>
<path stroke-width="3.6621621621621623" stroke="gray" d="M 253 239 208 263"/>
<path stroke-width="14.72972972972973" stroke="gray" d="M 196 268 218 273"/>
<path stroke-width="14.72972972972973" stroke="gray" d="M 196 268 236 263"/>
<path stroke-width="14.72972972972973" stroke="gray" d="M 196 268 179 262"/>
<path stroke-width="14.72972972972973" stroke="gray" d="M 196 268 225 269"/>
<path stroke-width="19.472972972972972" stroke="gray" d="M 196 268 196 268"/>
<path stroke-width="19.472972972972972" stroke="gray" d="M 196 268 208 263"/>
<path stroke-width="3.6621621621621623" stroke="gray" d="M 225 269 218 273"/>
<path stroke-width="3.6621621621621623" stroke="gray" d="M 225 269 236 263"/>
<path stroke-width="3.6621621621621623" stroke="gray" d="M 253 239 225 269"/>
<path stroke-width="7.878378378378378" stroke="gray" d="M 225 269 179 262"/>
<path stroke-width="7.878378378378378" stroke="gray" d="M 225 269 196 268"/>
<path stroke-width="7.878378378378378" stroke="gray" d="M 225 269 208 263"/>
<path stroke-width="5.77027027027027" stroke="gray" d="M 179 262 218 273"/>
<path stroke-width="5.77027027027027" stroke="gray" d="M 179 262 236 263"/>
<path stroke-width="9.45945945945946" stroke="gray" d="M 179 262 179 262"/>
<path stroke-width="9.45945945945946" stroke="gray" d="M 179 262 225 269"/>
<path stroke-width="10.513513513513514" stroke="gray" d="M 179 262 196 268"/>
<path stroke-width="10.513513513513514" stroke="gray" d="M 179 262 208 263"/>
<path stroke-width="1.554054054054054" stroke="gray" d="M 180 296 218 273"/>
<path stroke-width="1.554054054054054" stroke="gray" d="M 180 296 236 263"/>
<path stroke-width="7.878378378378378" stroke="gray" d="M 225 269 225 269"/>
<path stroke-width="3.6621621621621623" stroke="gray" d="M 253 239 179 262"/>
<path stroke-width="1.554054054054054" stroke="gray" d="M 253 239 236 263"/>
<path stroke-width="1.554054054054054" stroke="gray" d="M 253 239 218 273"/>
<path stroke-width="15.256756756756756" stroke="gray" d="M 208 263 236 263"/>
<path stroke-width="15.256756756756756" stroke="gray" d="M 208 263 179 262"/>
<path stroke-width="15.256756756756756" stroke="gray" d="M 208 263 225 269"/>
<path stroke-width="20.0" stroke="gray" d="M 208 263 196 268"/>
<path stroke-width="20.0" stroke="gray" d="M 208 263 208 263"/>
<path stroke-width="0.5" stroke="gray" d="M 115 229 218 273"/>
<path stroke-width="0.5" stroke="gray" d="M 115 229 236 263"/>
<path stroke-width="1.554054054054054" stroke="gray" d="M 115 229 179 262"/>
<path stroke-width="1.554054054054054" stroke="gray" d="M 115 229 225 269"/>
<path stroke-width="1.554054054054054" stroke="gray" d="M 115 229 196 268"/>
<path stroke-width="1.554054054054054" stroke="gray" d="M 115 229 208 263"/>
<path stroke-width="0.5" stroke="gray" d="M 57 240 218 273"/>
<path stroke-width="0.5" stroke="gray" d="M 57 240 236 263"/>
<path stroke-width="1.554054054054054" stroke="gray" d="M 57 240 179 262"/>
<path stroke-width="1.554054054054054" stroke="gray" d="M 57 240 225 269"/>
<path stroke-width="1.554054054054054" stroke="gray" d="M 57 240 196 268"/>
<path stroke-width="1.554054054054054" stroke="gray" d="M 57 240 208 263"/>
<path stroke-width="1.554054054054054" stroke="gray" d="M 99 274 218 273"/>
<path stroke-width="1.554054054054054" stroke="gray" d="M 99 274 236 263"/>
<path stroke-width="3.6621621621621623" stroke="gray" d="M 99 274 179 262"/>
<path stroke-width="3.6621621621621623" stroke="gray" d="M 99 274 225 269"/>
<path stroke-width="3.6621621621621623" stroke="gray" d="M 99 274 196 268"/>
<path stroke-width="3.6621621621621623" stroke="gray" d="M 99 274 208 263"/>
<path stroke-width="3.6621621621621623" stroke="gray" d="M 180 296 179 262"/>
<path stroke-width="1.554054054054054" stroke="gray" d="M 199 223 196 268"/>
<path stroke-width="3.6621621621621623" stroke="gray" d="M 180 296 225 269"/>
<path stroke-width="3.6621621621621623" stroke="gray" d="M 180 296 208 263"/>
<path stroke-width="5.243243243243243" stroke="gray" d="M 218 273 225 269"/>
<path stroke-width="9.986486486486486" stroke="gray" d="M 218 273 196 268"/>
<path stroke-width="9.986486486486486" stroke="gray" d="M 218 273 208 263"/>
<path stroke-width="5.77027027027027" stroke="gray" d="M 186 286 218 273"/>
<path stroke-width="5.77027027027027" stroke="gray" d="M 186 286 236 263"/>
<path stroke-width="2.608108108108108" stroke="gray" d="M 186 286 179 262"/>
<path stroke-width="2.608108108108108" stroke="gray" d="M 186 286 225 269"/>
<path stroke-width="5.77027027027027" stroke="gray" d="M 186 286 196 268"/>
<path stroke-width="5.77027027027027" stroke="gray" d="M 186 286 208 263"/>
<path stroke-width="1.554054054054054" stroke="gray" d="M 80 298 218 273"/>
<path stroke-width="5.243243243243243" stroke="gray" d="M 218 273 179 262"/>
<path stroke-width="1.554054054054054" stroke="gray" d="M 80 298 236 263"/>
<path stroke-width="0.5" stroke="gray" d="M 80 298 225 269"/>
<path stroke-width="1.554054054054054" stroke="gray" d="M 80 298 196 268"/>
<path stroke-width="1.554054054054054" stroke="gray" d="M 80 298 208 263"/>
<path stroke-width="1.554054054054054" stroke="gray" d="M 381 282 218 273"/>
<path stroke-width="1.554054054054054" stroke="gray" d="M 381 282 236 263"/>
<path stroke-width="0.5" stroke="gray" d="M 381 282 179 262"/>
<path stroke-width="0.5" stroke="gray" d="M 381 282 225 269"/>
<path stroke-width="1.554054054054054" stroke="gray" d="M 381 282 196 268"/>
<path stroke-width="1.554054054054054" stroke="gray" d="M 381 282 208 263"/>
<path stroke-width="3.135135135135135" stroke="gray" d="M 299 246 218 273"/>
<path stroke-width="0.5" stroke="gray" d="M 80 298 179 262"/>
<path stroke-width="9.45945945945946" stroke="gray" d="M 218 273 236 263"/>
<path stroke-width="9.45945945945946" stroke="gray" d="M 218 273 218 273"/>
<path stroke-width="8.405405405405405" stroke="gray" d="M 236 263 208 263"/>
<path stroke-width="3.6621621621621623" stroke="gray" d="M 286 258 218 273"/>
<path stroke-width="3.6621621621621623" stroke="gray" d="M 286 258 236 263"/>
<path stroke-width="5.243243243243243" stroke="gray" d="M 286 258 179 262"/>
<path stroke-width="5.243243243243243" stroke="gray" d="M 286 258 225 269"/>
<path stroke-width="6.297297297297297" stroke="gray" d="M 286 258 196 268"/>
<path stroke-width="6.297297297297297" stroke="gray" d="M 286 258 208 263"/>
<path stroke-width="0.5" stroke="gray" d="M 27 255 218 273"/>
<path stroke-width="0.5" stroke="gray" d="M 27 255 236 263"/>
<path stroke-width="1.554054054054054" stroke="gray" d="M 27 255 179 262"/>
<path stroke-width="1.554054054054054" stroke="gray" d="M 27 255 225 269"/>
<path stroke-width="1.554054054054054" stroke="gray" d="M 27 255 196 268"/>
<path stroke-width="1.554054054054054" stroke="gray" d="M 27 255 208 263"/>
<path stroke-width="2.608108108108108" stroke="gray" d="M 132 287 218 273"/>
<path stroke-width="2.608108108108108" stroke="gray" d="M 132 287 236 263"/>
<path stroke-width="3.135135135135135" stroke="gray" d="M 132 287 179 262"/>
<path stroke-width="3.135135135135135" stroke="gray" d="M 132 287 225 269"/>
<path stroke-width="4.1891891891891895" stroke="gray" d="M 132 287 196 268"/>
<path stroke-width="4.1891891891891895" stroke="gray" d="M 132 287 208 263"/>
<path stroke-width="7.878378378378378" stroke="gray" d="M 236 263 218 273"/>
<path stroke-width="7.878378378378378" stroke="gray" d="M 236 263 236 263"/>
<path stroke-width="4.1891891891891895" stroke="gray" d="M 236 263 179 262"/>
<path stroke-width="4.1891891891891895" stroke="gray" d="M 236 263 225 269"/>
<path stroke-width="8.405405405405405" stroke="gray" d="M 236 263 196 268"/>
<path stroke-width="3.6621621621621623" stroke="gray" d="M 180 296 196 268"/>
<path stroke-width="1.554054054054054" stroke="gray" d="M 199 223 208 263"/>
<circle cx="323" cy="20" r="7.0" style="fill:rgb(58, 76, 192);stroke:black;stroke-width:1.0"/>
<circle cx="208" cy="263" r="7.0" style="fill:rgb(179, 3, 38);stroke:black;stroke-width:1.0"/>
<circle cx="115" cy="229" r="7.0" style="fill:rgb(58, 76, 192);stroke:black;stroke-width:1.0"/>
<circle cx="57" cy="240" r="7.0" style="fill:rgb(58, 76, 192);stroke:black;stroke-width:1.0"/>
<circle cx="99" cy="274" r="7.0" style="fill:rgb(58, 76, 192);stroke:black;stroke-width:1.0"/>
<circle cx="253" cy="239" r="7.0" style="fill:rgb(58, 76, 192);stroke:black;stroke-width:1.0"/>
<circle cx="196" cy="268" r="7.0" style="fill:rgb(179, 3, 38);stroke:black;stroke-width:1.0"/>
<circle cx="225" cy="269" r="7.0" style="fill:rgb(207, 70, 61);stroke:black;stroke-width:1.0"/>
<circle cx="179" cy="262" r="7.0" style="fill:rgb(207, 70, 61);stroke:black;stroke-width:1.0"/>
<circle cx="180" cy="296" r="7.0" style="fill:rgb(58, 76, 192);stroke:black;stroke-width:1.0"/>
<circle cx="286" cy="258" r="7.0" style="fill:rgb(58, 76, 192);stroke:black;stroke-width:1.0"/>
<circle cx="27" cy="255" r="7.0" style="fill:rgb(58, 76, 192);stroke:black;stroke-width:1.0"/>
<circle cx="132" cy="287" r="7.0" style="fill:rgb(58, 76, 192);stroke:black;stroke-width:1.0"/>
<circle cx="236" cy="263" r="7.0" style="fill:rgb(207, 70, 61);stroke:black;stroke-width:1.0"/>
<circle cx="218" cy="273" r="7.0" style="fill:rgb(207, 70, 61);stroke:black;stroke-width:1.0"/>
<circle cx="186" cy="286" r="7.0" style="fill:rgb(58, 76, 192);stroke:black;stroke-width:1.0"/>
<circle cx="80" cy="298" r="7.0" style="fill:rgb(58, 76, 192);stroke:black;stroke-width:1.0"/>
<circle cx="381" cy="282" r="7.0" style="fill:rgb(58, 76, 192);stroke:black;stroke-width:1.0"/>
<circle cx="299" cy="246" r="7.0" style="fill:rgb(58, 76, 192);stroke:black;stroke-width:1.0"/>
<circle cx="39" cy="284" r="7.0" style="fill:rgb(58, 76, 192);stroke:black;stroke-width:1.0"/>
<circle cx="97" cy="260" r="7.0" style="fill:rgb(58, 76, 192);stroke:black;stroke-width:1.0"/>
<circle cx="297" cy="304" r="7.0" style="fill:rgb(58, 76, 192);stroke:black;stroke-width:1.0"/>
<circle cx="242" cy="294" r="7.0" style="fill:rgb(58, 76, 192);stroke:black;stroke-width:1.0"/>
<circle cx="122" cy="249" r="7.0" style="fill:rgb(58, 76, 192);stroke:black;stroke-width:1.0"/>
<circle cx="208" cy="239" r="7.0" style="fill:rgb(58, 76, 192);stroke:black;stroke-width:1.0"/>
<circle cx="163" cy="243" r="7.0" style="fill:rgb(58, 76, 192);stroke:black;stroke-width:1.0"/>
<circle cx="274" cy="284" r="7.0" style="fill:rgb(58, 76, 192);stroke:black;stroke-width:1.0"/>
<circle cx="367" cy="297" r="7.0" style="fill:rgb(58, 76, 192);stroke:black;stroke-width:1.0"/>
<circle cx="346" cy="231" r="7.0" style="fill:rgb(58, 76, 192);stroke:black;stroke-width:1.0"/>
<circle cx="420" cy="261" r="7.0" style="fill:rgb(58, 76, 192);stroke:black;stroke-width:1.0"/>
<circle cx="310" cy="273" r="7.0" style="fill:rgb(58, 76, 192);stroke:black;stroke-width:1.0"/>
<circle cx="218" cy="320" r="7.0" style="fill:rgb(58, 76, 192);stroke:black;stroke-width:1.0"/>
<circle cx="378" cy="269" r="7.0" style="fill:rgb(58, 76, 192);stroke:black;stroke-width:1.0"/>
<circle cx="370" cy="248" r="7.0" style="fill:rgb(58, 76, 192);stroke:black;stroke-width:1.0"/>
<circle cx="20" cy="270" r="7.0" style="fill:rgb(58, 76, 192);stroke:black;stroke-width:1.0"/>
<circle cx="199" cy="223" r="7.0" style="fill:rgb(58, 76, 192);stroke:black;stroke-width:1.0"/>
<text x="333" y="27" font-size="12">lung cancer</text><text x="218" y="270" font-size="12">throat cancer</text><text x="125" y="236" font-size="12">squamous cell carcinoma</text><text x="67" y="247" font-size="12">microscope</text><text x="109" y="281" font-size="12">united states</text><text x="263" y="246" font-size="12">adenocarcinoma</text><text x="206" y="275" font-size="12">cancer</text><text x="235" y="276" font-size="12">laryngeal cancer</text><text x="189" y="269" font-size="12">pharyngeal cancer</text><text x="190" y="303" font-size="12">nasopharynx cancer</text><text x="296" y="265" font-size="12">oropharynx</text><text x="37" y="262" font-size="12">nasopharyngeal cancer</text><text x="142" y="294" font-size="12">nasopharynx</text><text x="246" y="270" font-size="12">pharynx</text><text x="228" y="280" font-size="12">larynx</text><text x="196" y="293" font-size="12">tonsils</text><text x="90" y="305" font-size="12">the voice</text><text x="391" y="289" font-size="12">cartilage</text><text x="309" y="253" font-size="12">vocal cords</text><text x="49" y="291" font-size="12">epiglottis</text><text x="107" y="267" font-size="12">windpipe</text><text x="307" y="311" font-size="12">tonsil cancer</text><text x="252" y="301" font-size="12">main places</text><text x="132" y="256" font-size="12">neck cancer</text><text x="218" y="246" font-size="12">sinuses</text><text x="173" y="250" font-size="12">salivary glands</text><text x="284" y="291" font-size="12">lymph nodes</text><text x="377" y="304" font-size="12">larynx cancer</text><text x="356" y="238" font-size="12">tobacco</text><text x="430" y="268" font-size="12">alcohol</text><text x="320" y="280" font-size="12">hypopharynx</text><text x="228" y="327" font-size="12">critical stage</text><text x="388" y="276" font-size="12">hypopharyngeal cancer</text><text x="380" y="255" font-size="12">laryngopharyngeal</text><text x="30" y="277" font-size="12">laryngopharynx</text><text x="209" y="230" font-size="12">esophagus</text></svg>
