<svg width="578.0" height="340" xmlns="http://www.w3.org/2000/svg">
<path stroke-width="15.125" stroke="gray" d="M 216 171 202 162"/>
<path stroke-width="1.71875" stroke="gray" d="M 299 80 202 162"/>
<path stroke-width="0.5" stroke="gray" d="M 299 80 226 168"/>
<path stroke-width="1.109375" stroke="gray" d="M 299 80 197 177"/>
<path stroke-width="1.71875" stroke="gray" d="M 299 80 211 158"/>
<path stroke-width="1.71875" stroke="gray" d="M 299 80 216 171"/>
<path stroke-width="2.9375" stroke="gray" d="M 107 160 202 162"/>
<path stroke-width="1.71875" stroke="gray" d="M 107 160 226 168"/>
<path stroke-width="2.9375" stroke="gray" d="M 107 160 197 177"/>
<path stroke-width="3.546875" stroke="gray" d="M 107 160 211 158"/>
<path stroke-width="4.15625" stroke="gray" d="M 107 160 216 171"/>
<path stroke-width="1.109375" stroke="gray" d="M 49 91 202 162"/>
<path stroke-width="0.5" stroke="gray" d="M 49 91 226 168"/>
<path stroke-width="1.109375" stroke="gray" d="M 49 91 197 177"/>
<path stroke-width="1.109375" stroke="gray" d="M 49 91 211 158"/>
<path stroke-width="1.109375" stroke="gray" d="M 49 91 216 171"/>
<path stroke-width="1.109375" stroke="gray" d="M 337 265 202 162"/>
<path stroke-width="0.5" stroke="gray" d="M 337 265 226 168"/>
<path stroke-width="1.109375" stroke="gray" d="M 337 265 197 177"/>
<path stroke-width="1.109375" stroke="gray" d="M 337 265 211 158"/>
<path stroke-width="1.109375" stroke="gray" d="M 337 265 216 171"/>
<path stroke-width="1.109375" stroke="gray" d="M 26 219 202 162"/>
<path stroke-width="0.5" stroke="gray" d="M 26 219 226 168"/>
<path stroke-width="1.109375" stroke="gray" d="M 26 219 197 177"/>
<path stroke-width="1.71875" stroke="gray" d="M 121 68 216 171"/>
<path stroke-width="1.71875" stroke="gray" d="M 121 68 211 158"/>
<path stroke-width="1.109375" stroke="gray" d="M 121 68 197 177"/>
<path stroke-width="0.5" stroke="gray" d="M 121 68 226 168"/>
<path stroke-width="1.109375" stroke="gray" d="M 98 105 197 177"/>
<path stroke-width="1.71875" stroke="gray" d="M 98 105 211 158"/>
<path stroke-width="2.328125" stroke="gray" d="M 98 105 216 171"/>
<path stroke-width="1.71875" stroke="gray" d="M 171 71 202 162"/>
<path stroke-width="1.109375" stroke="gray" d="M 171 71 226 168"/>
<path stroke-width="1.109375" stroke="gray" d="M 171 71 197 177"/>
<path stroke-width="1.71875" stroke="gray" d="M 171 71 211 158"/>
<path stroke-width="2.328125" stroke="gray" d="M 171 71 216 171"/>
<path stroke-width="1.71875" stroke="gray" d="M 325 220 202 162"/>
<path stroke-width="1.109375" stroke="gray" d="M 325 220 226 168"/>
<path stroke-width="1.109375" stroke="gray" d="M 325 220 197 177"/>
<path stroke-width="1.109375" stroke="gray" d="M 26 219 211 158"/>
<path stroke-width="1.71875" stroke="gray" d="M 325 220 211 158"/>
<path stroke-width="2.9375" stroke="gray" d="M 196 106 202 162"/>
<path stroke-width="1.71875" stroke="gray" d="M 196 106 226 168"/>
<path stroke-width="2.328125" stroke="gray" d="M 196 106 197 177"/>
<path stroke-width="2.9375" stroke="gray" d="M 196 106 211 158"/>
<path stroke-width="3.546875" stroke="gray" d="M 196 106 216 171"/>
<path stroke-width="1.71875" stroke="gray" d="M 250 56 202 162"/>
<path stroke-width="0.5" stroke="gray" d="M 250 56 226 168"/>
<path stroke-width="1.109375" stroke="gray" d="M 250 56 197 177"/>
<path stroke-width="1.71875" stroke="gray" d="M 250 56 211 158"/>
<path stroke-width="1.71875" stroke="gray" d="M 250 56 216 171"/>
<path stroke-width="1.71875" stroke="gray" d="M 121 68 202 162"/>
<path stroke-width="2.328125" stroke="gray" d="M 325 220 216 171"/>
<path stroke-width="1.109375" stroke="gray" d="M 98 105 226 168"/>
<path stroke-width="1.109375" stroke="gray" d="M 26 219 216 171"/>
<path stroke-width="0.5" stroke="gray" d="M 369 102 226 168"/>
<path stroke-width="0.5" stroke="gray" d="M 231 320 202 162"/>
<path stroke-width="1.109375" stroke="gray" d="M 231 320 226 168"/>
<path stroke-width="0.5" stroke="gray" d="M 231 320 197 177"/>
<path stroke-width="0.5" stroke="gray" d="M 231 320 211 158"/>
<path stroke-width="1.109375" stroke="gray" d="M 231 320 216 171"/>
<path stroke-width="0.5" stroke="gray" d="M 307 31 202 162"/>
<path stroke-width="1.109375" stroke="gray" d="M 307 31 226 168"/>
<path stroke-width="0.5" stroke="gray" d="M 307 31 197 177"/>
<path stroke-width="0.5" stroke="gray" d="M 307 31 211 158"/>
<path stroke-width="1.109375" stroke="gray" d="M 307 31 216 171"/>
<path stroke-width="0.5" stroke="gray" d="M 91 297 202 162"/>
<path stroke-width="1.109375" stroke="gray" d="M 91 297 226 168"/>
<path stroke-width="0.5" stroke="gray" d="M 91 297 197 177"/>
<path stroke-width="0.5" stroke="gray" d="M 91 297 211 158"/>
<path stroke-width="1.109375" stroke="gray" d="M 91 297 216 171"/>
<path stroke-width="0.5" stroke="gray" d="M 415 224 202 162"/>
<path stroke-width="1.109375" stroke="gray" d="M 415 224 226 168"/>
<path stroke-width="0.5" stroke="gray" d="M 415 224 197 177"/>
<path stroke-width="0.5" stroke="gray" d="M 415 224 211 158"/>
<path stroke-width="1.109375" stroke="gray" d="M 415 224 216 171"/>
<path stroke-width="1.109375" stroke="gray" d="M 285 289 202 162"/>
<path stroke-width="0.5" stroke="gray" d="M 285 289 226 168"/>
<path stroke-width="1.109375" stroke="gray" d="M 285 289 197 177"/>
<path stroke-width="1.109375" stroke="gray" d="M 420 147 216 171"/>
<path stroke-width="0.5" stroke="gray" d="M 420 147 211 158"/>
<path stroke-width="0.5" stroke="gray" d="M 420 147 197 177"/>
<path stroke-width="1.109375" stroke="gray" d="M 420 147 226 168"/>
<path stroke-width="1.109375" stroke="gray" d="M 369 102 197 177"/>
<path stroke-width="1.109375" stroke="gray" d="M 369 102 211 158"/>
<path stroke-width="1.109375" stroke="gray" d="M 369 102 216 171"/>
<path stroke-width="1.109375" stroke="gray" d="M 20 159 202 162"/>
<path stroke-width="0.5" stroke="gray" d="M 20 159 226 168"/>
<path stroke-width="1.109375" stroke="gray" d="M 20 159 197 177"/>
<path stroke-width="1.109375" stroke="gray" d="M 20 159 211 158"/>
<path stroke-width="1.109375" stroke="gray" d="M 20 159 216 171"/>
<path stroke-width="1.109375" stroke="gray" d="M 377 205 202 162"/>
<path stroke-width="0.5" stroke="gray" d="M 377 205 226 168"/>
<path stroke-width="1.109375" stroke="gray" d="M 377 205 197 177"/>
<path stroke-width="1.109375" stroke="gray" d="M 369 102 202 162"/>
<path stroke-width="1.109375" stroke="gray" d="M 377 205 211 158"/>
<path stroke-width="1.109375" stroke="gray" d="M 158 294 202 162"/>
<path stroke-width="0.5" stroke="gray" d="M 158 294 226 168"/>
<path stroke-width="1.109375" stroke="gray" d="M 158 294 197 177"/>
<path stroke-width="1.109375" stroke="gray" d="M 158 294 211 158"/>
<path stroke-width="1.109375" stroke="gray" d="M 158 294 216 171"/>
<path stroke-width="0.5" stroke="gray" d="M 161 20 202 162"/>
<path stroke-width="1.109375" stroke="gray" d="M 161 20 226 168"/>
<path stroke-width="0.5" stroke="gray" d="M 161 20 197 177"/>
<path stroke-width="0.5" stroke="gray" d="M 161 20 211 158"/>
<path stroke-width="1.109375" stroke="gray" d="M 161 20 216 171"/>
<path stroke-width="0.5" stroke="gray" d="M 420 147 202 162"/>
<path stroke-width="1.109375" stroke="gray" d="M 377 205 216 171"/>
<path stroke-width="1.71875" stroke="gray" d="M 98 105 202 162"/>
<path stroke-width="2.328125" stroke="gray" d="M 318 112 216 171"/>
<path stroke-width="1.71875" stroke="gray" d="M 318 112 211 158"/>
<path stroke-width="17.5625" stroke="gray" d="M 211 158 216 171"/>
<path stroke-width="3.546875" stroke="gray" d="M 276 170 202 162"/>
<path stroke-width="1.71875" stroke="gray" d="M 276 170 226 168"/>
<path stroke-width="5.375" stroke="gray" d="M 276 170 197 177"/>
<path stroke-width="5.375" stroke="gray" d="M 276 170 211 158"/>
<path stroke-width="5.375" stroke="gray" d="M 276 170 216 171"/>
<path stroke-width="5.375" stroke="gray" d="M 197 177 202 162"/>
<path stroke-width="2.9375" stroke="gray" d="M 197 177 226 168"/>
<path stroke-width="7.203125" stroke="gray" d="M 197 177 197 177"/>
<path stroke-width="7.8125" stroke="gray" d="M 197 177 211 158"/>
<path stroke-width="8.421875" stroke="gray" d="M 197 177 216 171"/>
<path stroke-width="2.328125" stroke="gray" d="M 275 211 202 162"/>
<path stroke-width="1.109375" stroke="gray" d="M 275 211 226 168"/>
<path stroke-width="3.546875" stroke="gray" d="M 275 211 197 177"/>
<path stroke-width="3.546875" stroke="gray" d="M 275 211 211 158"/>
<path stroke-width="3.546875" stroke="gray" d="M 275 211 216 171"/>
<path stroke-width="4.15625" stroke="gray" d="M 162 204 202 162"/>
<path stroke-width="2.328125" stroke="gray" d="M 162 204 226 168"/>
<path stroke-width="5.375" stroke="gray" d="M 162 204 197 177"/>
<path stroke-width="5.984375" stroke="gray" d="M 162 204 211 158"/>
<path stroke-width="6.59375" stroke="gray" d="M 162 204 216 171"/>
<path stroke-width="1.109375" stroke="gray" d="M 210 272 202 162"/>
<path stroke-width="0.5" stroke="gray" d="M 210 272 226 168"/>
<path stroke-width="15.734375" stroke="gray" d="M 211 158 211 158"/>
<path stroke-width="13.296875" stroke="gray" d="M 211 158 197 177"/>
<path stroke-width="7.203125" stroke="gray" d="M 211 158 226 168"/>
<path stroke-width="13.296875" stroke="gray" d="M 211 158 202 162"/>
<path stroke-width="9.640625" stroke="gray" d="M 216 171 226 168"/>
<path stroke-width="15.125" stroke="gray" d="M 216 171 197 177"/>
<path stroke-width="17.5625" stroke="gray" d="M 216 171 211 158"/>
<path stroke-width="20.0" stroke="gray" d="M 216 171 216 171"/>
<path stroke-width="1.109375" stroke="gray" d="M 119 257 202 162"/>
<path stroke-width="0.5" stroke="gray" d="M 119 257 226 168"/>
<path stroke-width="1.71875" stroke="gray" d="M 119 257 197 177"/>
<path stroke-width="1.71875" stroke="gray" d="M 119 257 211 158"/>
<path stroke-width="1.71875" stroke="gray" d="M 119 257 216 171"/>
<path stroke-width="1.109375" stroke="gray" d="M 77 235 202 162"/>
<path stroke-width="0.5" stroke="gray" d="M 77 235 226 168"/>
<path stroke-width="1.71875" stroke="gray" d="M 210 272 197 177"/>
<path stroke-width="1.71875" stroke="gray" d="M 77 235 197 177"/>
<path stroke-width="1.71875" stroke="gray" d="M 77 235 216 171"/>
<path stroke-width="2.328125" stroke="gray" d="M 295 146 202 162"/>
<path stroke-width="1.109375" stroke="gray" d="M 295 146 226 168"/>
<path stroke-width="3.546875" stroke="gray" d="M 295 146 197 177"/>
<path stroke-width="3.546875" stroke="gray" d="M 295 146 211 158"/>
<path stroke-width="3.546875" stroke="gray" d="M 295 146 216 171"/>
<path stroke-width="2.328125" stroke="gray" d="M 181 234 202 162"/>
<path stroke-width="1.109375" stroke="gray" d="M 181 234 226 168"/>
<path stroke-width="3.546875" stroke="gray" d="M 181 234 197 177"/>
<path stroke-width="3.546875" stroke="gray" d="M 181 234 211 158"/>
<path stroke-width="3.546875" stroke="gray" d="M 181 234 216 171"/>
<path stroke-width="1.71875" stroke="gray" d="M 77 235 211 158"/>
<path stroke-width="1.71875" stroke="gray" d="M 210 272 211 158"/>
<path stroke-width="1.71875" stroke="gray" d="M 210 272 216 171"/>
<path stroke-width="2.9375" stroke="gray" d="M 125 197 202 162"/>
<path stroke-width="2.328125" stroke="gray" d="M 347 165 216 171"/>
<path stroke-width="3.546875" stroke="gray" d="M 153 119 202 162"/>
<path stroke-width="1.71875" stroke="gray" d="M 153 119 226 168"/>
<path stroke-width="2.328125" stroke="gray" d="M 153 119 197 177"/>
<path stroke-width="3.546875" stroke="gray" d="M 153 119 211 158"/>
<path stroke-width="4.15625" stroke="gray" d="M 153 119 216 171"/>
<path stroke-width="1.71875" stroke="gray" d="M 218 71 202 162"/>
<path stroke-width="1.109375" stroke="gray" d="M 218 71 226 168"/>
<path stroke-width="1.109375" stroke="gray" d="M 218 71 197 177"/>
<path stroke-width="1.71875" stroke="gray" d="M 218 71 211 158"/>
<path stroke-width="2.328125" stroke="gray" d="M 218 71 216 171"/>
<path stroke-width="1.71875" stroke="gray" d="M 347 165 211 158"/>
<path stroke-width="2.9375" stroke="gray" d="M 249 112 202 162"/>
<path stroke-width="2.328125" stroke="gray" d="M 249 112 197 177"/>
<path stroke-width="2.9375" stroke="gray" d="M 249 112 211 158"/>
<path stroke-width="3.546875" stroke="gray" d="M 249 112 216 171"/>
<path stroke-width="1.71875" stroke="gray" d="M 265 251 202 162"/>
<path stroke-width="1.109375" stroke="gray" d="M 265 251 226 168"/>
<path stroke-width="1.109375" stroke="gray" d="M 265 251 197 177"/>
<path stroke-width="1.71875" stroke="gray" d="M 265 251 211 158"/>
<path stroke-width="2.328125" stroke="gray" d="M 265 251 216 171"/>
<path stroke-width="1.71875" stroke="gray" d="M 318 112 202 162"/>
<path stroke-width="1.109375" stroke="gray" d="M 318 112 226 168"/>
<path stroke-width="1.109375" stroke="gray" d="M 318 112 197 177"/>
<path stroke-width="1.71875" stroke="gray" d="M 249 112 226 168"/>
<path stroke-width="1.109375" stroke="gray" d="M 285 289 211 158"/>
<path stroke-width="1.109375" stroke="gray" d="M 347 165 197 177"/>
<path stroke-width="1.71875" stroke="gray" d="M 347 165 202 162"/>
<path stroke-width="1.71875" stroke="gray" d="M 125 197 226 168"/>
<path stroke-width="3.546875" stroke="gray" d="M 125 197 197 177"/>
<path stroke-width="4.15625" stroke="gray" d="M 125 197 211 158"/>
<path stroke-width="4.765625" stroke="gray" d="M 125 197 216 171"/>
<path stroke-width="5.984375" stroke="gray" d="M 226 168 202 162"/>
<path stroke-width="4.765625" stroke="gray" d="M 226 168 226 168"/>
<path stroke-width="4.765625" stroke="gray" d="M 226 168 197 177"/>
<path stroke-width="6.59375" stroke="gray" d="M 226 168 211 158"/>
<path stroke-width="9.03125" stroke="gray" d="M 226 168 216 171"/>
<path stroke-width="7.203125" stroke="gray" d="M 202 162 202 162"/>
<path stroke-width="4.15625" stroke="gray" d="M 202 162 226 168"/>
<path stroke-width="1.109375" stroke="gray" d="M 347 165 226 168"/>
<path stroke-width="5.375" stroke="gray" d="M 202 162 197 177"/>
<path stroke-width="9.640625" stroke="gray" d="M 202 162 216 171"/>
<path stroke-width="3.546875" stroke="gray" d="M 136 149 202 162"/>
<path stroke-width="2.328125" stroke="gray" d="M 136 149 226 168"/>
<path stroke-width="2.328125" stroke="gray" d="M 136 149 197 177"/>
<path stroke-width="3.546875" stroke="gray" d="M 136 149 211 158"/>
<path stroke-width="4.765625" stroke="gray" d="M 136 149 216 171"/>
<path stroke-width="1.71875" stroke="gray" d="M 67 189 202 162"/>
<path stroke-width="1.109375" stroke="gray" d="M 67 189 226 168"/>
<path stroke-width="1.109375" stroke="gray" d="M 67 189 197 177"/>
<path stroke-width="1.71875" stroke="gray" d="M 67 189 211 158"/>
<path stroke-width="2.328125" stroke="gray" d="M 67 189 216 171"/>
<path stroke-width="7.8125" stroke="gray" d="M 202 162 211 158"/>
<path stroke-width="1.109375" stroke="gray" d="M 285 289 216 171"/>
<circle cx="216" cy="171" r="7.0" style="fill:rgb(179, 3, 38);stroke:black;stroke-width:1.0"/>
<circle cx="119" cy="257" r="7.0" style="fill:rgb(58, 76, 192);stroke:black;stroke-width:1.0"/>
<circle cx="77" cy="235" r="7.0" style="fill:rgb(58, 76, 192);stroke:black;stroke-width:1.0"/>
<circle cx="295" cy="146" r="7.0" style="fill:rgb(58, 76, 192);stroke:black;stroke-width:1.0"/>
<circle cx="181" cy="234" r="7.0" style="fill:rgb(58, 76, 192);stroke:black;stroke-width:1.0"/>
<circle cx="211" cy="158" r="7.0" style="fill:rgb(194, 45, 49);stroke:black;stroke-width:1.0"/>
<circle cx="276" cy="170" r="7.0" style="fill:rgb(58, 76, 192);stroke:black;stroke-width:1.0"/>
<circle cx="197" cy="177" r="7.0" style="fill:rgb(207, 70, 61);stroke:black;stroke-width:1.0"/>
<circle cx="275" cy="211" r="7.0" style="fill:rgb(58, 76, 192);stroke:black;stroke-width:1.0"/>
<circle cx="162" cy="204" r="7.0" style="fill:rgb(58, 76, 192);stroke:black;stroke-width:1.0"/>
<circle cx="210" cy="272" r="7.0" style="fill:rgb(58, 76, 192);stroke:black;stroke-width:1.0"/>
<circle cx="125" cy="197" r="7.0" style="fill:rgb(58, 76, 192);stroke:black;stroke-width:1.0"/>
<circle cx="226" cy="168" r="7.0" style="fill:rgb(236, 128, 100);stroke:black;stroke-width:1.0"/>
<circle cx="202" cy="162" r="7.0" style="fill:rgb(207, 70, 61);stroke:black;stroke-width:1.0"/>
<circle cx="136" cy="149" r="7.0" style="fill:rgb(58, 76, 192);stroke:black;stroke-width:1.0"/>
<circle cx="67" cy="189" r="7.0" style="fill:rgb(58, 76, 192);stroke:black;stroke-width:1.0"/>
<circle cx="347" cy="165" r="7.0" style="fill:rgb(58, 76, 192);stroke:black;stroke-width:1.0"/>
<circle cx="153" cy="119" r="7.0" style="fill:rgb(58, 76, 192);stroke:black;stroke-width:1.0"/>
<circle cx="218" cy="71" r="7.0" style="fill:rgb(58, 76, 192);stroke:black;stroke-width:1.0"/>
<circle cx="249" cy="112" r="7.0" style="fill:rgb(58, 76, 192);stroke:black;stroke-width:1.0"/>
<circle cx="265" cy="251" r="7.0" style="fill:rgb(58, 76, 192);stroke:black;stroke-width:1.0"/>
<circle cx="318" cy="112" r="7.0" style="fill:rgb(58, 76, 192);stroke:black;stroke-width:1.0"/>
<circle cx="98" cy="105" r="7.0" style="fill:rgb(58, 76, 192);stroke:black;stroke-width:1.0"/>
<circle cx="171" cy="71" r="7.0" style="fill:rgb(58, 76, 192);stroke:black;stroke-width:1.0"/>
<circle cx="325" cy="220" r="7.0" style="fill:rgb(58, 76, 192);stroke:black;stroke-width:1.0"/>
<circle cx="196" cy="106" r="7.0" style="fill:rgb(58, 76, 192);stroke:black;stroke-width:1.0"/>
<circle cx="250" cy="56" r="7.0" style="fill:rgb(58, 76, 192);stroke:black;stroke-width:1.0"/>
<circle cx="121" cy="68" r="7.0" style="fill:rgb(58, 76, 192);stroke:black;stroke-width:1.0"/>
<circle cx="299" cy="80" r="7.0" style="fill:rgb(58, 76, 192);stroke:black;stroke-width:1.0"/>
<circle cx="107" cy="160" r="7.0" style="fill:rgb(58, 76, 192);stroke:black;stroke-width:1.0"/>
<circle cx="49" cy="91" r="7.0" style="fill:rgb(58, 76, 192);stroke:black;stroke-width:1.0"/>
<circle cx="337" cy="265" r="7.0" style="fill:rgb(58, 76, 192);stroke:black;stroke-width:1.0"/>
<circle cx="26" cy="219" r="7.0" style="fill:rgb(58, 76, 192);stroke:black;stroke-width:1.0"/>
<circle cx="369" cy="102" r="7.0" style="fill:rgb(58, 76, 192);stroke:black;stroke-width:1.0"/>
<circle cx="20" cy="159" r="7.0" style="fill:rgb(58, 76, 192);stroke:black;stroke-width:1.0"/>
<circle cx="377" cy="205" r="7.0" style="fill:rgb(58, 76, 192);stroke:black;stroke-width:1.0"/>
<circle cx="158" cy="294" r="7.0" style="fill:rgb(58, 76, 192);stroke:black;stroke-width:1.0"/>
<circle cx="161" cy="20" r="7.0" style="fill:rgb(58, 76, 192);stroke:black;stroke-width:1.0"/>
<circle cx="420" cy="147" r="7.0" style="fill:rgb(58, 76, 192);stroke:black;stroke-width:1.0"/>
<circle cx="231" cy="320" r="7.0" style="fill:rgb(58, 76, 192);stroke:black;stroke-width:1.0"/>
<circle cx="307" cy="31" r="7.0" style="fill:rgb(58, 76, 192);stroke:black;stroke-width:1.0"/>
<circle cx="91" cy="297" r="7.0" style="fill:rgb(58, 76, 192);stroke:black;stroke-width:1.0"/>
<circle cx="415" cy="224" r="7.0" style="fill:rgb(58, 76, 192);stroke:black;stroke-width:1.0"/>
<circle cx="285" cy="289" r="7.0" style="fill:rgb(58, 76, 192);stroke:black;stroke-width:1.0"/>
<text x="226" y="178" font-size="12">throat cancer</text><text x="129" y="264" font-size="12">squamous cell carcinoma</text><text x="87" y="242" font-size="12">microscope</text><text x="305" y="153" font-size="12">united states</text><text x="191" y="241" font-size="12">adenocarcinoma</text><text x="221" y="165" font-size="12">cancer</text><text x="286" y="177" font-size="12">laryngeal cancer</text><text x="207" y="184" font-size="12">pharyngeal cancer</text><text x="285" y="218" font-size="12">nasopharynx cancer</text><text x="172" y="211" font-size="12">oropharynx</text><text x="220" y="279" font-size="12">nasopharyngeal cancer</text><text x="135" y="204" font-size="12">nasopharynx</text><text x="236" y="175" font-size="12">pharynx</text><text x="212" y="169" font-size="12">larynx</text><text x="146" y="156" font-size="12">tonsils</text><text x="77" y="196" font-size="12">the voice</text><text x="357" y="172" font-size="12">cartilage</text><text x="163" y="126" font-size="12">vocal cords</text><text x="228" y="78" font-size="12">epiglottis</text><text x="259" y="119" font-size="12">windpipe</text><text x="275" y="258" font-size="12">tonsil cancer</text><text x="328" y="119" font-size="12">main places</text><text x="108" y="112" font-size="12">neck cancer</text><text x="181" y="78" font-size="12">sinuses</text><text x="335" y="227" font-size="12">salivary glands</text><text x="206" y="113" font-size="12">lymph nodes</text><text x="260" y="63" font-size="12">larynx cancer</text><text x="131" y="75" font-size="12">tobacco</text><text x="309" y="87" font-size="12">alcohol</text><text x="117" y="167" font-size="12">hypopharynx</text><text x="59" y="98" font-size="12">anatomy</text><text x="347" y="272" font-size="12">tumor</text><text x="36" y="226" font-size="12">mutation</text><text x="379" y="109" font-size="12">hypopharyngeal cancer</text><text x="30" y="166" font-size="12">laryngopharyngeal</text><text x="387" y="212" font-size="12">laryngopharynx</text><text x="168" y="301" font-size="12">esophagus</text><text x="171" y="27" font-size="12">sore throat</text><text x="430" y="154" font-size="12">inflammation</text><text x="241" y="327" font-size="12">smoking</text><text x="317" y="38" font-size="12">aids</text><text x="101" y="304" font-size="12">virus</text><text x="425" y="231" font-size="12">flu</text><text x="295" y="296" font-size="12">critical stage</text></svg>
